{"glyphs":{"0":{"ha":601,"x_min":0,"x_max":0,"o":"m 565 531 b 321 393 506 531 418 482 b 111 79 182 268 111 161 b 164 -1 111 28 129 -1 b 410 122 217 -1 319 50 b 631 460 542 226 631 363 b 565 531 631 504 607 531 z m 564 521 b 600 494 588 521 600 513 b 369 182 600 458 522 353 b 165 8 247 44 204 8 b 131 53 144 8 131 25 b 296 354 131 128 201 256 b 564 521 390 453 500 521 z "},"1":{"ha":601,"x_min":0,"x_max":0,"o":"m 658 524 b 93 22 444 319 249 144 l 100 15 b 588 442 261 144 351 222 b 197 0 501 315 299 86 l 321 0 b 519 296 406 94 446 156 b 671 519 561 381 606 446 z "},"2":{"ha":601,"x_min":0,"x_max":0,"o":"m 561 492 b 499 374 543 436 529 411 b 385 279 447 311 410 279 b 358 311 369 279 358 293 b 425 444 358 347 385 400 b 569 521 468 493 521 521 b 621 475 601 521 621 503 b 589 374 621 447 610 414 b 388 188 546 289 471 221 b 151 71 256 138 211 117 b 93 8 115 51 93 28 b 104 -3 93 3 97 -3 b 126 21 113 -3 119 4 b 175 64 140 54 151 64 b 228 38 192 64 207 57 b 307 0 261 10 281 0 b 518 156 374 0 431 42 l 511 160 b 342 76 458 92 426 76 l 175 75 b 315 146 197 96 257 126 b 539 221 472 189 489 194 b 672 417 624 267 672 338 b 569 529 672 481 628 529 b 418 451 517 529 464 503 b 350 311 376 406 350 350 b 389 267 350 286 367 267 b 503 326 422 267 469 292 b 569 492 536 364 551 401 z "},"3":{"ha":601,"x_min":0,"x_max":0,"o":"m 528 496 b 489 426 517 464 510 451 b 389 351 447 381 410 351 b 372 371 379 351 372 360 b 547 519 372 436 471 519 b 592 482 574 519 592 504 b 472 314 592 444 525 350 b 399 290 454 301 432 294 b 364 293 379 293 372 293 b 306 275 324 293 306 288 b 319 264 306 268 311 264 b 339 268 324 264 332 265 b 396 282 368 279 382 282 b 431 256 417 282 431 272 b 353 125 431 232 403 186 b 178 10 282 42 235 10 b 106 63 138 10 106 33 b 117 76 106 69 111 76 b 125 74 118 76 121 75 b 156 67 136 69 147 67 b 206 108 183 67 206 85 b 163 144 206 129 188 144 b 93 71 125 144 93 110 b 189 0 93 26 129 0 b 347 39 242 0 294 13 b 479 203 433 82 479 139 b 431 285 479 233 467 254 b 646 428 592 322 646 358 b 549 529 646 481 600 529 b 363 372 467 529 363 442 b 393 342 363 354 375 342 b 536 496 461 342 525 411 z "},"4":{"ha":601,"x_min":0,"x_max":0,"o":"m 621 408 b 389 163 561 335 447 214 b 249 172 353 163 299 167 b 721 646 436 299 597 460 l 608 646 b 232 175 497 435 368 272 b 183 178 207 176 196 178 b 93 142 132 178 93 163 b 124 125 93 132 106 125 b 233 164 154 125 174 132 l 244 163 l 308 157 b 379 154 326 156 343 156 b 367 138 375 149 371 144 l 310 78 b 253 15 290 57 271 35 l 240 0 l 354 0 l 460 151 b 700 268 544 156 601 183 l 694 274 b 467 163 606 197 543 165 l 635 408 z "},"5":{"ha":601,"x_min":0,"x_max":0,"o":"m 135 72 b 158 68 149 68 151 68 b 213 119 188 68 213 92 b 174 151 213 138 196 151 b 93 65 131 151 93 113 b 182 0 93 25 126 0 b 358 49 236 0 300 18 b 504 246 451 99 504 169 b 400 343 504 301 460 343 b 357 335 385 343 369 340 b 454 460 385 371 385 371 b 531 446 488 449 506 446 b 686 531 600 446 651 474 b 600 506 660 513 633 506 b 497 533 564 506 536 514 b 333 326 474 499 413 421 b 254 258 276 296 254 276 b 265 249 254 254 260 249 b 339 318 278 249 290 260 b 400 333 365 331 379 333 b 460 293 433 333 460 315 b 371 143 460 261 426 207 b 174 10 289 53 226 10 b 111 54 139 10 111 29 b 129 72 111 65 118 72 z "},"6":{"ha":601,"x_min":0,"x_max":0,"o":"m 181 43 b 414 311 215 178 332 311 b 447 278 433 311 447 297 b 167 10 447 175 274 10 b 117 49 138 10 117 26 b 171 144 117 67 128 88 b 290 290 197 179 254 249 b 556 514 454 481 494 514 b 615 469 588 514 615 493 b 599 446 615 457 607 446 b 590 449 597 446 594 447 b 558 460 576 457 569 460 b 511 419 533 460 511 442 b 553 385 511 400 531 385 b 631 461 592 385 631 422 b 557 525 631 496 597 525 b 264 368 492 525 365 457 b 93 81 158 275 93 165 b 164 0 93 32 121 0 b 333 69 211 0 269 24 b 468 258 422 133 468 197 b 415 322 468 294 446 322 b 171 43 326 322 207 185 z "},"7":{"ha":601,"x_min":0,"x_max":0,"o":"m 297 526 b 186 357 265 474 219 401 l 196 350 b 307 449 240 393 278 426 b 401 503 344 476 390 503 b 407 499 404 503 407 501 b 403 490 407 497 406 494 b 386 450 389 467 386 461 b 424 422 386 435 403 422 b 501 447 446 422 465 429 b 564 479 533 464 554 474 b 163 0 419 356 258 163 l 276 0 b 621 511 393 263 494 413 l 615 518 b 458 440 531 471 469 440 b 450 446 454 440 450 443 b 451 450 450 447 450 449 b 464 486 463 471 464 475 b 431 522 464 507 450 522 b 249 411 393 522 310 472 b 338 524 317 499 324 507 z "},"8":{"ha":601,"x_min":0,"x_max":0,"o":"m 321 283 b 204 250 244 267 231 263 b 101 106 140 218 101 164 b 219 0 101 40 147 0 b 442 200 340 0 442 92 b 428 288 442 229 439 249 b 628 440 556 303 628 358 b 539 531 628 493 590 531 b 378 442 478 531 415 496 b 332 286 347 399 333 351 z m 424 297 b 413 368 415 326 413 343 b 538 521 413 457 465 521 b 604 464 576 521 604 496 b 535 342 604 426 574 374 b 424 297 504 317 475 306 z m 333 276 b 346 156 344 203 346 188 b 213 10 346 75 286 10 b 126 74 164 10 126 38 b 201 208 126 108 158 164 b 333 276 240 247 275 265 z "},"9":{"ha":601,"x_min":0,"x_max":0,"o":"m 543 482 b 310 214 508 347 392 214 b 276 247 290 214 276 228 b 557 515 276 350 450 515 b 607 476 586 515 607 499 b 553 381 607 458 596 438 b 433 235 525 346 469 276 b 168 11 267 43 229 11 b 108 56 136 11 108 32 b 125 79 108 68 117 79 b 133 76 126 79 129 78 b 165 65 147 68 154 65 b 213 106 190 65 213 83 b 171 140 213 125 193 140 b 93 64 132 140 93 103 b 167 0 93 29 126 0 b 460 157 232 0 358 68 b 631 444 565 250 631 360 b 560 525 631 493 603 525 b 390 456 513 525 454 501 b 256 267 301 392 256 328 b 308 203 256 231 278 203 b 553 482 397 203 517 340 z "}," ":{"ha":285,"x_min":0,"x_max":0,"o":""},"!":{"ha":517,"x_min":0,"x_max":0,"o":"m 146 110 b 414 397 253 238 272 258 b 515 526 508 488 515 496 b 483 561 515 547 503 561 b 397 486 457 561 428 536 b 139 115 326 367 199 183 z m 100 88 b 46 32 72 88 46 60 b 81 -1 46 13 60 -1 b 135 56 108 -1 135 26 b 100 88 135 74 119 88 z "},"\"":{"ha":393,"x_min":0,"x_max":0,"o":"m 482 582 l 729 888 l 683 924 l 450 607 z m 667 582 l 914 888 l 868 924 l 635 607 z "},"#":{"ha":372,"x_min":0,"x_max":0,"o":"m 189 0 l 285 176 l 381 176 l 385 192 l 293 192 l 342 279 l 438 279 l 442 294 l 350 294 l 438 458 l 424 458 l 333 294 l 243 294 l 332 458 l 315 458 l 225 294 l 124 294 l 119 279 l 217 279 l 168 192 l 65 192 l 61 176 l 161 176 l 65 0 l 82 0 l 178 176 l 269 176 l 174 0 z m 325 279 l 276 192 l 186 192 l 235 279 z "},"$":{"ha":747,"x_min":0,"x_max":0,"o":"m 772 722 l 647 564 b 531 533 597 561 564 553 b 421 358 461 493 421 429 b 436 288 421 332 425 315 l 396 235 b 363 246 385 242 374 246 b 210 96 289 246 210 168 b 238 29 210 68 218 49 l 107 -137 b 93 -160 93 -154 93 -154 b 111 -168 93 -165 99 -168 b 150 -139 129 -168 131 -167 l 263 14 b 293 4 271 10 282 6 l 183 -139 b 172 -157 172 -153 172 -153 b 189 -165 172 -162 178 -165 b 232 -133 206 -165 213 -161 l 328 0 b 581 218 468 0 581 96 b 551 311 581 251 572 276 l 586 358 b 631 344 599 349 613 344 b 765 475 701 344 765 407 b 724 549 765 506 750 532 l 840 711 l 833 715 l 710 556 b 665 563 700 560 682 564 l 781 718 z m 501 374 b 488 428 490 396 488 408 b 639 553 488 499 544 546 z m 660 551 b 703 544 678 551 693 549 l 675 508 b 615 493 649 508 633 504 z m 581 385 b 575 408 576 396 575 401 b 667 496 575 453 615 492 z m 560 418 b 571 374 560 400 564 386 l 538 328 b 521 347 535 332 528 342 l 517 353 l 514 356 z m 717 539 b 740 494 733 525 740 511 b 626 354 740 432 676 354 b 593 367 613 354 603 358 z m 469 238 l 425 179 b 413 218 425 196 421 210 l 449 267 b 461 247 456 253 457 251 l 467 240 z m 246 39 b 232 72 235 51 232 58 b 275 164 232 94 244 121 b 361 235 311 217 333 235 b 389 225 372 235 381 232 z m 354 85 b 311 67 339 72 326 67 b 303 68 308 67 307 67 l 404 208 b 414 176 411 199 414 188 b 413 164 414 174 414 171 z m 300 13 b 268 24 288 15 278 18 l 294 57 l 307 57 b 336 63 318 57 328 58 z m 485 218 b 504 163 499 197 504 182 b 335 10 504 83 424 11 z "},"%":{"ha":661,"x_min":0,"x_max":0,"o":"m 556 669 b 422 596 522 669 475 643 b 308 424 347 528 308 469 b 339 379 308 396 319 379 b 472 446 367 379 424 407 b 592 629 543 503 592 576 b 556 669 592 654 578 669 z m 553 661 b 572 649 567 661 572 657 b 449 481 572 629 529 572 b 339 388 382 407 360 388 b 322 410 329 388 322 396 b 553 661 322 496 475 661 z m 707 575 l 203 31 b 186 8 188 14 186 13 b 213 -3 186 3 200 -3 b 290 60 236 -3 239 0 l 717 567 z m 643 290 b 508 217 610 290 563 264 b 394 44 433 149 394 90 b 425 0 394 17 406 0 b 560 67 454 0 510 28 b 679 250 631 124 679 197 b 643 290 679 275 665 290 z m 640 282 b 660 269 654 282 660 278 b 535 101 660 250 617 192 b 425 8 469 28 446 8 b 408 31 415 8 408 17 b 640 282 408 117 561 282 z "},"&":{"ha":828,"x_min":0,"x_max":0,"o":"m 868 429 b 703 233 808 333 765 283 b 421 118 611 161 507 118 b 349 128 396 118 379 121 b 467 281 415 217 440 250 b 654 418 539 364 613 418 b 675 404 665 418 675 413 b 660 392 675 399 672 396 b 626 349 640 385 626 367 b 664 315 626 329 643 315 b 722 374 693 315 722 344 b 663 429 722 403 693 429 b 489 318 617 429 557 390 b 338 129 456 281 456 281 b 264 169 308 136 281 151 b 440 363 374 289 433 353 b 593 608 558 499 593 554 b 532 665 593 643 569 665 b 307 569 461 665 367 625 b 189 311 233 500 189 404 b 204 224 189 278 193 257 b 93 51 128 158 93 106 b 154 -17 93 13 119 -17 b 343 119 208 -17 274 31 b 425 110 372 113 396 110 b 875 425 594 110 757 224 z m 218 231 b 208 265 211 242 208 251 b 344 501 208 326 250 399 b 542 649 431 593 506 649 b 582 610 567 649 582 633 b 424 378 582 547 517 453 b 218 231 385 349 307 292 z m 256 163 b 332 121 274 144 303 129 b 158 -6 281 47 210 -6 b 136 11 144 -6 136 1 b 256 163 136 36 161 68 z "},"’":{"ha":665,"x_min":0,"x_max":0,"o":"m 558 738 b 758 915 674 772 758 849 b 724 953 758 936 743 953 b 665 889 693 953 665 922 b 701 849 665 867 679 851 b 556 746 674 811 628 778 z "},"(":{"ha":653,"x_min":0,"x_max":0,"o":"m 1018 921 b 382 439 749 800 506 617 b 139 -204 274 294 182 51 l 149 -204 b 433 404 204 32 281 197 b 1022 914 626 663 790 804 z "},")":{"ha":392,"x_min":0,"x_max":0,"o":"m 569 914 b 257 289 506 667 431 515 b -324 -190 57 42 -89 -79 l -317 -199 b 578 913 240 61 465 340 z "},"*":{"ha":626,"x_min":0,"x_max":0,"o":"m 574 814 b 544 764 571 790 563 776 b 529 735 533 754 529 746 b 558 706 529 718 542 706 b 588 736 575 706 588 719 b 585 751 588 740 588 743 b 582 769 582 760 582 764 b 593 806 582 785 586 796 b 625 757 611 796 618 785 b 657 724 631 732 639 724 b 686 753 672 724 686 738 b 656 785 686 768 678 776 b 617 821 636 792 624 804 b 646 828 629 826 635 828 b 669 822 654 828 660 826 b 689 818 679 819 682 818 b 718 847 706 818 718 831 b 690 876 718 863 706 876 b 665 865 682 876 672 872 b 622 846 643 847 640 846 b 608 847 618 846 615 846 b 631 890 613 865 619 879 b 653 924 650 908 653 913 b 624 953 653 940 640 953 b 594 925 607 953 594 940 l 596 907 b 599 889 597 900 599 894 b 586 857 599 878 594 868 b 561 893 572 868 564 879 b 528 935 554 926 547 935 b 497 904 511 935 497 921 b 529 872 497 886 504 879 b 568 840 549 867 564 854 b 538 833 561 835 551 833 b 514 838 529 833 521 835 b 493 842 500 842 500 842 b 463 813 475 842 463 829 b 492 783 463 796 475 783 b 513 790 499 783 507 786 b 567 814 536 810 544 814 z "},"+":{"ha":513,"x_min":0,"x_max":0,"o":"m 53 297 l 46 282 l 267 282 l 163 11 l 178 11 l 282 282 l 506 282 l 513 297 l 288 297 l 390 563 l 375 563 l 272 297 z "},",":{"ha":203,"x_min":0,"x_max":0,"o":"m -87 -122 b 111 50 22 -82 111 -6 b 76 86 111 71 96 86 b 17 24 47 86 17 54 b 53 -12 17 3 29 -10 b -92 -114 26 -50 -28 -87 z "},"-":{"ha":428,"x_min":0,"x_max":0,"o":"m 0 218 l 404 218 l 422 258 l 18 258 z "},".":{"ha":190,"x_min":0,"x_max":0,"o":"m 60 86 b 0 31 29 86 0 58 b 39 -1 0 13 17 -1 b 99 54 69 -1 99 25 b 60 86 99 72 82 86 z "},"/":{"ha":792,"x_min":0,"x_max":0,"o":"m 785 807 l 56 17 b 46 1 49 8 46 4 b 67 -10 46 -4 56 -10 b 103 13 79 -10 86 -6 l 792 801 z "},":":{"ha":440,"x_min":0,"x_max":0,"o":"m 244 364 b 185 308 214 364 185 336 b 224 276 185 290 201 276 b 283 332 254 276 283 303 b 244 364 283 350 267 364 z m 60 86 b 0 31 29 86 0 58 b 39 -1 0 13 17 -1 b 99 54 69 -1 99 25 b 60 86 99 72 82 86 z "},";":{"ha":440,"x_min":0,"x_max":0,"o":"m 244 364 b 185 308 214 364 185 336 b 224 276 185 290 201 276 b 283 332 254 276 283 303 b 244 364 283 350 267 364 z m -104 -122 b 94 50 6 -82 94 -6 b 60 86 94 71 79 86 b 0 24 31 86 0 54 b 36 -12 0 3 13 -10 b -108 -114 10 -50 -44 -87 z "},"<":{"ha":694,"x_min":0,"x_max":0,"o":"m 633 849 l 60 479 l 60 471 l 633 88 l 633 219 l 193 513 l 633 800 z "},"=":{"ha":513,"x_min":0,"x_max":0,"o":"m 53 244 l 46 229 l 506 229 l 513 244 z m 89 346 l 83 331 l 543 331 l 549 346 z "},">":{"ha":694,"x_min":0,"x_max":0,"o":"m 60 88 l 633 457 l 633 465 l 60 849 l 60 718 l 500 424 l 60 138 z "},"?":{"ha":492,"x_min":0,"x_max":0,"o":"m 278 224 b 126 110 242 160 175 110 b 103 132 113 110 103 119 b 225 235 103 165 154 208 b 389 303 358 285 358 285 b 472 439 439 333 472 388 b 354 557 472 507 422 557 b 193 497 299 557 240 535 b 110 364 144 458 110 403 b 163 318 110 339 135 318 b 314 389 215 318 278 347 b 369 521 347 425 364 468 l 361 521 b 308 425 353 485 339 458 b 158 331 257 368 199 331 b 119 367 135 331 119 346 b 161 451 119 389 133 418 b 354 549 211 513 282 549 b 428 492 399 549 428 526 b 268 285 428 425 361 339 b 149 208 182 236 182 235 b 92 129 111 179 92 151 b 122 101 92 114 106 101 b 283 219 176 101 246 151 z m 97 83 b 46 32 71 83 46 58 b 79 -1 46 13 60 -1 b 131 53 106 -1 131 25 b 97 83 131 69 117 83 z "},"@":{"ha":690,"x_min":0,"x_max":0,"o":"m 644 429 l 594 379 b 597 397 596 386 597 393 b 557 431 597 418 581 431 b 342 343 496 431 404 393 b 265 219 288 299 265 263 b 310 157 265 182 283 157 b 499 269 343 157 403 193 l 501 268 b 474 199 479 233 474 219 b 524 156 474 174 494 156 b 678 233 564 156 619 183 b 796 439 756 299 796 368 b 579 621 796 546 706 621 b 139 208 357 621 139 417 b 369 -6 139 76 228 -6 b 699 165 492 -6 631 67 l 686 165 b 372 4 629 78 486 4 b 182 207 256 4 182 83 b 578 611 182 410 379 611 b 753 439 679 611 753 539 b 657 243 753 372 721 307 b 526 163 606 192 558 163 b 493 186 508 163 493 174 b 526 238 493 199 501 213 b 708 429 629 346 676 394 z m 556 424 b 589 399 576 424 589 415 b 514 293 589 371 571 346 b 315 164 432 219 347 164 b 292 189 301 164 292 175 b 424 353 292 229 326 272 b 556 424 485 403 522 424 z "},"A":{"ha":1121,"x_min":0,"x_max":0,"o":"m 1121 167 b 890 58 1038 92 988 68 b 1250 543 964 149 1029 238 b 1435 797 1313 626 1374 713 b 1554 954 1483 861 1504 889 b 1372 868 1494 950 1458 933 b 1031 554 1246 768 1143 675 b 886 406 931 450 904 422 b 825 607 879 499 863 553 b 650 708 782 669 714 708 b 467 474 544 708 467 608 b 589 147 467 346 504 244 b 200 3 444 49 319 3 b 74 65 132 3 74 32 b 83 75 74 71 78 75 b 90 74 85 75 88 75 b 114 71 97 72 106 71 b 171 121 146 71 171 93 b 124 168 171 147 150 168 b 49 88 85 168 49 129 b 200 -6 49 31 108 -6 b 599 138 324 -6 449 39 b 758 54 657 86 692 68 b 714 0 739 29 736 25 l 844 0 l 883 47 b 1135 167 993 60 1040 82 z m 599 154 b 501 417 536 221 501 313 b 572 617 501 501 524 564 b 681 671 606 653 640 671 b 875 393 793 671 868 564 b 599 154 790 304 679 207 z m 610 144 b 875 375 729 235 740 244 b 765 63 878 289 818 118 b 610 144 704 72 647 101 z m 886 388 b 1526 940 1231 754 1438 933 b 1503 914 1519 932 1511 924 b 1013 363 1299 707 1221 619 b 817 114 903 222 838 139 b 886 388 869 243 882 297 z "},"B":{"ha":1124,"x_min":0,"x_max":0,"o":"m 853 874 b 583 464 847 742 761 611 b 314 332 475 375 388 332 b 200 443 246 332 200 376 b 424 778 200 558 286 686 b 857 919 556 865 722 919 b 1140 831 974 919 1079 886 b 636 297 953 692 742 468 b 464 86 549 160 524 131 b 224 7 394 38 304 7 b 68 96 131 7 68 43 b 90 133 68 117 78 133 b 101 126 93 133 96 132 b 149 104 118 110 131 104 b 208 156 181 104 208 128 b 154 201 208 181 185 201 b 49 110 99 201 49 157 b 235 -6 49 40 124 -6 b 601 122 356 -6 489 40 b 831 400 696 190 763 271 b 1150 824 963 657 996 701 b 1186 749 1175 801 1186 778 b 1111 565 1186 692 1158 622 b 1018 486 1079 526 1044 497 b 940 514 982 507 965 514 b 899 490 917 514 899 504 b 949 464 899 475 921 464 b 1015 474 969 464 985 467 b 1040 401 1033 453 1040 433 b 953 151 1040 326 1011 243 b 771 6 889 53 829 6 b 703 81 733 6 703 39 b 846 307 703 151 764 250 b 997 369 889 339 929 354 l 996 378 b 840 322 928 368 888 354 b 693 83 753 261 693 165 b 781 -6 693 29 726 -6 b 975 67 836 -6 913 22 b 1100 296 1056 122 1100 204 b 1031 478 1100 365 1076 426 b 1242 681 1168 519 1242 590 b 1160 832 1242 736 1219 778 b 1326 922 1214 867 1244 885 l 1321 928 b 1150 839 1258 901 1229 888 b 857 929 1071 900 976 929 b 189 453 526 929 189 689 b 318 319 189 372 240 319 b 761 565 476 319 661 422 b 861 874 826 657 857 754 z m 1001 482 b 951 475 979 476 968 475 b 914 490 929 475 914 482 b 938 504 914 499 924 504 b 1001 482 958 504 978 497 z "},"C":{"ha":1119,"x_min":0,"x_max":0,"o":"m 1015 374 b 947 235 1004 322 983 279 b 699 92 883 156 772 92 b 651 125 674 92 651 107 b 807 318 651 158 713 235 b 1038 457 919 417 985 457 b 1124 364 1086 457 1124 417 b 994 128 1124 289 1075 200 b 675 -1 903 46 788 -1 b 497 129 568 -1 497 51 b 644 403 497 207 532 271 b 1251 722 876 490 1144 632 b 1333 865 1303 765 1333 819 b 1294 906 1333 889 1318 906 b 1018 799 1250 906 1147 865 b 600 908 907 874 775 908 b 229 817 444 908 321 878 b 93 569 147 761 93 664 b 378 349 93 439 211 349 b 476 357 408 349 432 351 b 438 207 446 290 438 257 b 674 -10 438 78 533 -10 b 1001 121 790 -10 911 38 b 1132 363 1082 193 1132 286 b 1000 474 1132 432 1082 474 b 756 378 922 474 832 438 b 626 150 681 317 626 222 b 697 82 626 110 656 82 b 925 199 758 82 858 133 b 1022 372 976 249 1007 304 z m 482 367 b 378 357 432 360 407 357 b 113 544 228 357 113 438 b 311 803 113 638 185 732 b 651 892 417 861 532 892 b 1006 793 789 892 922 854 b 482 367 739 647 563 504 z m 1117 683 b 1058 767 1099 719 1083 742 b 1289 896 1199 871 1243 896 b 1318 875 1306 896 1318 886 b 1258 771 1318 851 1297 815 b 1058 611 1215 721 1146 664 b 658 418 949 543 783 463 b 1050 760 765 531 903 650 b 1110 679 1071 740 1093 711 z "},"D":{"ha":1100,"x_min":0,"x_max":0,"o":"m 231 183 b 65 396 128 207 65 285 b 199 717 65 501 113 615 b 581 925 313 849 451 925 b 686 897 622 925 653 917 b 394 754 540 857 469 821 b 226 418 290 660 226 532 b 363 268 226 328 281 268 b 604 379 435 268 524 308 b 779 738 713 475 779 611 b 729 879 779 789 763 835 b 860 906 782 899 814 906 b 1107 804 960 906 1043 872 b 738 357 960 686 872 578 b 531 76 619 160 592 124 b 288 108 439 100 376 108 b 94 46 181 108 94 81 b 281 -7 94 14 169 -7 b 471 18 350 -7 388 -1 b 604 -4 526 0 554 -4 b 922 100 719 -4 832 32 b 1182 611 1078 214 1182 419 b 1122 800 1182 679 1164 739 b 1285 886 1176 843 1222 867 l 1283 894 b 1115 810 1215 874 1164 849 b 847 915 1042 883 960 915 b 703 900 804 915 771 911 b 581 933 660 925 628 933 b 228 769 463 933 339 876 b 56 393 121 667 56 524 b 231 175 56 282 121 201 z m 449 26 b 288 1 401 8 356 1 b 107 47 183 1 107 21 b 201 88 107 67 157 88 b 449 26 260 88 353 64 z m 718 875 b 769 735 750 842 769 789 b 635 424 769 629 718 511 b 367 276 549 333 446 276 b 264 356 307 276 264 310 b 425 638 264 414 328 528 b 718 875 528 754 628 836 z m 564 68 b 997 607 765 194 889 349 b 1114 793 1043 713 1065 747 b 1172 607 1151 744 1172 678 b 722 32 1172 331 939 32 b 564 68 678 32 618 46 z "},"E":{"ha":1013,"x_min":0,"x_max":0,"o":"m 924 397 b 839 235 901 331 876 283 b 608 96 778 156 679 96 b 571 126 588 96 571 110 b 729 336 571 165 643 260 b 935 457 822 417 890 457 b 1013 368 976 457 1013 415 b 890 128 1013 297 965 203 b 588 -10 806 40 696 -10 b 421 135 485 -10 421 46 b 546 392 421 214 453 281 b 1076 614 743 431 939 513 b 1263 867 1204 708 1263 788 b 1167 946 1263 918 1228 946 b 897 868 1082 946 996 921 b 619 915 797 901 714 915 b 93 565 318 915 93 765 b 331 365 93 444 188 365 b 383 368 347 365 360 367 b 343 211 353 300 343 263 b 585 -19 343 75 442 -19 b 896 121 697 -19 807 31 b 1021 367 972 199 1021 296 b 904 474 1021 432 975 474 b 628 357 803 474 694 428 b 542 164 578 303 542 224 b 606 86 542 118 568 86 b 814 193 667 86 753 131 b 929 396 868 250 906 317 z m 769 594 b 388 379 579 567 449 493 b 336 375 367 376 354 375 b 117 531 208 375 117 440 b 654 903 117 719 382 903 b 883 861 729 903 788 892 b 754 667 794 806 754 744 b 769 594 754 640 758 624 z m 1124 722 b 985 831 1075 772 1036 801 b 1179 933 1089 914 1126 933 b 1243 883 1217 933 1243 913 b 983 565 1243 796 1126 654 b 557 404 871 496 689 428 b 779 579 640 500 724 565 b 872 536 814 547 838 536 b 917 564 899 536 917 547 b 829 597 917 586 886 597 b 786 596 821 597 815 597 b 783 607 783 600 783 603 b 974 821 783 643 840 707 b 1115 715 1024 796 1053 775 z m 793 582 b 838 588 806 586 821 588 b 906 564 878 588 906 578 b 871 544 906 553 890 544 b 793 582 842 544 815 557 z "},"F":{"ha":867,"x_min":0,"x_max":0,"o":"m 772 843 b 774 806 774 824 774 814 b 621 513 774 715 725 621 b 363 350 517 401 433 350 b 257 468 300 350 257 399 b 368 717 257 550 297 639 b 751 904 476 838 614 904 b 1035 828 838 904 906 886 b 1199 781 1118 790 1153 781 b 1364 913 1276 781 1326 821 b 1169 854 1304 871 1247 854 b 1028 872 1129 854 1072 861 b 778 915 868 913 850 915 b 397 765 635 915 504 864 b 247 468 303 681 247 568 b 369 342 247 390 294 342 b 596 418 442 342 521 369 b 790 751 721 501 790 619 b 779 844 790 782 788 803 z m 1156 754 b 753 439 986 669 863 572 b 346 51 507 354 368 222 l 354 51 b 739 421 371 204 533 361 b 571 186 608 235 599 221 b 228 3 464 56 364 3 b 78 76 140 3 78 33 b 99 94 78 86 88 94 b 113 93 104 94 106 94 b 126 92 118 92 124 92 b 182 144 156 92 182 117 b 135 192 182 172 161 192 b 49 103 88 192 49 151 b 240 -6 49 32 114 -6 b 654 158 393 -6 526 47 b 879 460 746 239 810 322 b 944 486 908 469 925 478 l 979 504 l 993 510 l 946 426 b 849 290 899 339 890 326 b 1004 447 958 321 1004 367 l 1004 463 b 1029 538 1004 508 1008 521 b 1104 618 1089 583 1104 599 b 1094 629 1104 624 1100 629 b 1047 592 1082 629 1061 613 l 1019 547 l 1010 533 b 889 476 963 506 917 483 b 1160 747 956 597 1031 672 z "},"G":{"ha":990,"x_min":0,"x_max":0,"o":"m 1150 550 b 965 422 1094 522 1082 514 b 640 260 815 304 726 260 b 536 343 575 260 536 290 b 544 382 536 354 538 363 b 914 540 660 413 807 475 b 1185 838 1088 644 1185 751 b 1117 914 1185 882 1157 914 b 868 835 1065 914 1010 896 b 567 894 761 879 688 894 b 210 808 418 894 304 867 b 56 554 115 749 56 650 b 144 396 56 492 90 431 b 328 354 190 367 247 354 b 478 369 379 354 415 358 b 629 249 497 294 556 249 b 883 347 706 249 801 286 b 1007 440 925 378 965 408 b 1035 460 1017 446 1025 453 b 1015 440 1022 447 1029 454 b 978 401 1003 428 990 415 l 863 285 b 610 67 715 131 688 106 b 347 7 538 31 435 7 b 140 103 231 7 140 49 b 164 132 140 117 151 132 b 178 129 168 132 172 131 b 217 118 197 119 201 118 b 274 169 247 118 274 142 b 221 224 274 200 250 224 b 122 121 169 224 122 175 b 399 -6 122 36 214 -6 b 744 61 538 -6 643 15 b 986 332 860 114 900 158 b 1154 542 1050 457 1088 504 z m 851 828 b 476 379 586 688 476 557 b 326 364 421 368 376 364 b 82 525 176 364 82 426 b 238 767 82 611 136 696 b 604 881 344 843 465 881 b 851 828 700 881 778 864 z m 1021 714 b 919 807 981 757 971 764 b 1118 903 1004 869 1072 903 b 1163 857 1143 903 1163 883 b 960 585 1163 786 1075 669 b 547 394 856 508 668 422 b 910 799 600 515 761 694 b 1014 707 940 776 976 746 z "},"H":{"ha":1253,"x_min":0,"x_max":0,"o":"m 1253 167 b 1018 6 1110 42 1057 6 b 1001 21 1008 6 1001 13 b 1079 168 1001 36 1024 78 b 1319 506 1140 267 1140 267 b 1618 661 1454 554 1536 597 b 1756 864 1703 726 1756 804 b 1722 899 1756 886 1743 899 b 1492 767 1685 899 1611 857 b 1196 501 1399 697 1397 696 l 1175 499 l 1122 492 b 1053 485 1103 490 1086 488 b 1292 778 1113 576 1247 743 b 1381 697 1314 761 1357 724 l 1388 704 b 1300 786 1365 731 1325 769 b 1476 897 1349 826 1410 864 l 1471 906 b 1281 799 1411 878 1371 856 b 726 929 1125 888 951 929 b 321 850 554 929 425 904 b 147 593 218 797 147 692 b 413 390 147 479 264 390 b 943 575 565 390 742 451 l 1126 686 b 1193 724 1147 699 1169 711 b 882 451 1004 571 988 556 b 265 35 564 354 371 225 l 275 33 b 864 435 386 224 564 344 b 783 349 838 406 811 378 b 488 76 619 172 575 131 b 240 3 410 29 324 3 b 82 71 150 3 82 32 b 99 90 82 83 89 90 b 108 89 101 90 106 90 b 128 86 119 86 121 86 b 192 142 163 86 192 111 b 138 189 192 169 169 189 b 56 103 94 189 56 149 b 238 -6 56 36 125 -6 b 718 147 396 -6 567 49 b 1038 465 840 226 931 317 b 1179 482 1085 472 1117 476 b 950 97 1006 286 950 192 b 1011 -6 950 35 974 -6 b 1139 58 1040 -6 1082 15 b 1267 167 1168 81 1169 82 z m 1269 790 b 410 399 800 483 613 399 b 168 579 279 399 168 481 b 778 915 168 760 451 915 b 1269 790 961 915 1136 871 z m 1335 526 b 1717 886 1542 765 1669 886 b 1733 868 1726 886 1733 878 b 1606 672 1733 824 1675 733 b 1335 526 1528 603 1440 557 z "},"I":{"ha":865,"x_min":0,"x_max":0,"o":"m 318 106 b 272 276 286 165 272 215 b 810 794 272 531 547 794 b 896 783 835 794 864 790 b 611 481 703 692 611 593 b 657 363 611 433 625 400 b 500 168 579 260 536 206 b 197 4 394 51 307 4 b 74 60 126 4 74 28 b 92 76 74 68 82 76 l 97 76 b 114 74 108 74 108 74 b 172 126 144 74 172 99 b 128 172 172 151 151 172 b 49 88 86 172 49 132 b 204 -6 49 26 103 -6 b 496 79 299 -6 393 22 b 765 315 594 133 663 194 b 878 342 811 318 843 325 b 1046 606 976 386 1046 497 b 1032 688 1046 633 1043 653 b 1254 867 1111 774 1175 825 l 1265 867 b 1310 865 1303 865 1303 865 b 1347 881 1335 865 1347 869 b 1318 896 1347 890 1336 896 b 1256 881 1301 896 1289 893 b 913 790 1147 865 1029 835 b 808 806 878 800 840 806 b 264 269 531 806 264 543 b 311 101 264 210 278 163 z m 1219 864 b 1014 721 1156 824 1074 768 b 947 778 999 744 974 765 b 1219 864 1026 819 1125 850 z m 935 771 b 1004 714 967 756 989 738 b 664 374 828 561 793 526 b 636 439 644 396 636 414 b 935 771 636 535 764 676 z m 1024 675 b 1035 603 1032 647 1035 628 b 775 328 1035 458 913 328 b 1024 675 868 475 979 631 z "},"J":{"ha":761,"x_min":0,"x_max":0,"o":"m 763 167 b 482 28 679 89 606 53 b 749 372 560 103 714 304 b 903 422 810 376 854 390 b 1061 676 994 479 1061 586 b 1053 736 1061 693 1060 708 l 1046 733 b 1053 681 1051 710 1053 697 b 754 383 1053 535 906 388 b 1158 867 899 626 990 736 l 1169 868 b 1218 889 1214 875 1218 876 b 1204 900 1218 894 1213 900 b 1154 875 1194 900 1182 893 b 601 526 817 824 601 688 b 651 411 601 483 617 450 b 342 3 510 257 465 197 b -46 -287 125 -56 -46 -183 b -1 -347 -46 -322 -26 -347 b 210 -243 44 -347 133 -303 b 475 17 292 -179 379 -93 b 775 167 608 42 679 78 z m 1133 861 b 661 421 951 714 839 610 b 636 475 644 435 636 451 b 800 708 636 531 703 625 b 1133 861 896 790 983 831 z m 335 -8 b 1 -336 204 -196 61 -336 b -18 -312 -10 -336 -18 -326 b 75 -158 -18 -282 25 -210 b 335 -8 142 -89 229 -37 z "},"K":{"ha":1215,"x_min":0,"x_max":0,"o":"m 1164 694 b 1085 775 1140 722 1119 744 b 1233 893 1135 824 1188 865 l 1229 900 b 1069 786 1194 882 1139 843 b 633 913 949 872 808 913 b 138 600 344 913 138 782 b 401 385 138 476 250 385 b 932 647 543 385 686 456 l 913 628 l 872 586 b 554 204 694 408 678 389 b 422 53 494 114 465 79 b 236 4 375 24 300 4 b 97 74 160 4 97 35 b 117 97 97 86 107 97 b 129 94 119 97 124 96 b 167 82 150 83 156 82 b 224 136 197 82 224 107 b 169 186 224 164 199 186 b 74 94 117 186 74 144 b 236 -6 74 31 133 -6 b 569 107 349 -6 469 36 b 864 453 672 181 785 313 b 1078 767 956 615 988 663 b 1156 688 1099 751 1126 724 z m 1063 778 b 400 393 781 515 569 393 b 178 551 279 393 178 465 b 306 774 178 628 225 710 b 678 899 408 856 538 899 b 1063 778 824 899 956 857 z m 1215 167 b 954 4 1083 46 1017 4 b 910 36 926 4 910 17 b 922 69 910 46 911 50 b 1000 313 972 158 1000 246 b 974 433 1000 356 992 394 b 1232 646 1074 474 1136 525 b 1615 869 1351 797 1457 860 l 1617 879 b 1129 596 1435 875 1251 769 b 968 444 1050 490 1025 467 b 911 474 949 465 933 474 b 876 451 890 474 876 464 b 921 422 876 435 894 422 b 958 431 933 422 944 425 b 965 407 964 421 965 414 b 935 317 965 386 950 343 b 851 108 861 190 851 168 b 954 -6 851 43 896 -6 b 1228 167 1022 -6 1058 17 z m 951 440 b 919 432 940 435 932 432 b 889 449 901 432 889 439 b 913 463 889 457 899 463 b 951 440 929 463 942 456 z "},"L":{"ha":1007,"x_min":0,"x_max":0,"o":"m 1007 167 b 768 57 906 79 856 57 b 557 88 693 57 632 67 l 588 113 b 838 390 722 218 774 275 b 1033 513 911 425 967 460 b 1282 849 1190 635 1282 758 b 1233 914 1282 885 1261 914 b 1022 783 1194 914 1135 876 b 611 882 894 851 764 882 b 246 788 464 882 339 850 b 122 572 171 736 122 651 b 238 385 122 494 168 421 b 510 326 308 347 407 326 b 675 344 563 326 599 331 b 501 96 601 203 557 139 b 308 113 428 108 375 113 b 74 40 169 113 74 83 b 231 -14 74 10 140 -14 b 442 28 303 -14 350 -4 b 651 -14 506 1 581 -14 b 1019 167 781 -14 856 22 z m 1011 776 b 682 357 833 604 757 507 b 506 335 599 340 558 335 b 244 393 408 335 313 357 b 160 528 190 422 160 472 b 279 743 160 604 200 676 b 640 869 383 829 497 869 b 1011 776 772 869 899 838 z m 414 36 b 228 -3 363 11 299 -3 b 86 43 147 -3 86 17 b 181 85 86 67 128 85 b 414 36 253 85 324 69 z m 1150 683 b 1063 760 1108 724 1099 732 b 1233 906 1144 858 1199 906 b 1264 872 1250 906 1264 890 b 1114 601 1264 817 1192 686 b 847 408 1036 518 932 443 l 864 438 b 969 629 897 500 932 564 b 1056 750 1001 681 1017 700 b 1143 676 1081 733 1114 706 z "},"M":{"ha":1276,"x_min":0,"x_max":0,"o":"m 1276 167 b 1183 86 1231 126 1207 106 b 1032 6 1121 36 1064 6 b 1015 21 1024 6 1015 13 b 1196 251 1015 39 1015 39 b 1611 729 1378 467 1519 629 b 1742 876 1704 831 1710 836 b 915 203 1529 785 1285 585 b 703 19 801 83 726 19 b 696 28 699 19 696 24 b 813 174 696 40 706 51 b 1490 900 1208 624 1357 783 b 690 307 1332 868 1125 714 b 403 71 536 163 482 118 b 188 6 333 29 254 6 b 71 65 126 6 71 35 b 83 78 71 72 78 78 b 96 74 86 78 92 76 b 136 63 115 65 124 63 b 193 117 168 63 193 86 b 139 168 193 146 169 168 b 49 83 92 168 49 128 b 183 -6 49 28 100 -6 b 410 61 258 -6 336 17 b 697 299 490 110 522 136 b 1435 872 1169 731 1263 803 b 1382 828 1417 857 1400 842 b 853 367 1099 597 1019 528 b 650 71 681 199 650 156 b 685 3 650 29 664 3 b 922 194 724 3 790 57 b 1678 832 1238 525 1500 746 b 1292 485 1521 697 1407 594 b 976 76 1026 229 976 165 b 1031 -6 976 29 999 -6 b 1174 67 1063 -6 1115 21 b 1290 167 1199 86 1201 90 z "},"N":{"ha":1051,"x_min":0,"x_max":0,"o":"m 1453 868 b 1065 408 1307 757 1208 640 b 731 26 922 172 858 101 b 1029 621 871 182 944 326 b 1181 964 1089 817 1113 868 b 740 481 1067 914 908 739 b 514 165 590 256 560 214 b 168 4 415 63 290 4 b 81 43 119 4 81 22 b 99 60 81 51 89 60 l 106 60 b 118 58 110 58 115 58 b 185 113 154 58 185 83 b 129 163 185 140 161 163 b 49 81 85 163 49 125 b 167 -6 49 26 92 -6 b 439 89 263 -6 356 26 b 653 331 514 143 560 194 b 886 669 711 418 789 531 b 1128 921 986 799 1054 871 b 815 283 943 674 894 574 b 706 4 772 132 756 88 b 1075 403 851 78 921 151 b 1460 863 1221 638 1314 749 z "},"O":{"ha":824,"x_min":0,"x_max":0,"o":"m 901 629 b 1008 801 974 676 1008 731 b 839 953 1008 890 939 953 b 400 774 732 953 554 879 b 46 215 176 618 46 413 b 264 -26 46 69 133 -26 b 665 190 386 -26 524 47 b 901 629 804 329 874 458 z m 731 538 b 556 271 690 443 638 361 b 315 107 468 172 372 107 b 275 147 294 107 275 125 b 411 411 275 189 331 296 b 647 708 510 553 593 657 b 797 601 672 639 724 601 b 890 622 828 601 860 608 b 660 199 871 475 799 342 b 265 -18 524 58 385 -18 b 122 128 178 -18 122 38 b 326 578 122 257 190 406 b 833 943 526 829 683 943 b 976 831 919 943 976 899 b 900 676 976 774 950 719 b 771 775 882 743 842 775 b 656 743 733 775 708 768 b 824 882 660 814 731 871 l 824 890 b 644 738 721 879 647 815 b 388 511 550 686 463 608 b 247 176 306 403 247 265 b 311 96 247 129 274 96 b 563 265 369 96 472 164 b 739 535 642 351 694 433 z m 890 667 b 776 615 857 633 818 615 b 656 718 718 615 668 658 b 772 764 706 753 733 764 b 890 667 839 764 876 733 z "},"P":{"ha":931,"x_min":0,"x_max":0,"o":"m 839 889 b 569 463 835 750 757 624 b 304 313 449 357 369 313 b 203 417 244 313 203 356 b 907 922 203 651 581 922 b 1147 836 1007 922 1090 892 b 917 643 1051 769 1014 738 b 743 464 813 639 743 567 l 743 444 l 743 432 b 547 165 663 308 600 224 b 224 3 449 53 349 3 b 63 93 129 3 63 40 b 82 121 63 110 69 121 b 104 111 88 121 90 119 b 136 101 115 104 124 101 b 190 150 167 101 190 122 b 142 197 190 176 168 197 b 46 101 92 197 46 151 b 224 -6 46 35 114 -6 b 529 81 328 -6 425 22 b 822 350 644 144 724 218 b 908 333 857 338 876 333 b 1235 640 1082 333 1235 476 b 1167 832 1235 710 1208 785 b 1332 903 1217 865 1274 889 l 1329 913 b 1158 843 1263 896 1215 876 b 900 932 1090 904 1008 932 b 413 760 733 932 556 869 b 193 415 276 657 193 526 b 307 303 193 351 243 303 b 701 510 413 303 613 408 b 846 890 794 617 842 740 z m 753 458 b 906 632 753 558 813 625 b 753 446 869 592 785 489 z m 944 419 b 1015 536 990 447 1015 488 b 976 619 1015 571 1003 599 b 1157 828 1051 740 1088 782 b 1190 742 1182 799 1190 776 b 1074 465 1190 664 1153 574 b 894 343 1013 381 957 343 b 828 360 871 343 854 347 b 901 482 868 425 897 474 l 960 588 l 971 608 b 1006 536 994 592 1006 567 b 939 428 1006 492 983 454 z "},"Q":{"ha":997,"x_min":0,"x_max":0,"o":"m 997 167 b 733 65 914 93 842 65 b 518 85 667 65 608 71 b 1099 689 907 279 1099 478 b 901 888 1099 800 1011 888 b 858 886 893 888 888 888 b 743 926 828 914 792 926 b 339 726 601 926 451 853 b 182 364 242 617 182 479 b 347 183 182 261 253 183 b 444 213 381 183 403 190 l 436 217 b 349 192 400 197 379 192 b 192 357 260 192 192 264 b 351 715 192 468 251 604 b 746 917 464 842 610 917 b 844 883 785 917 815 907 b 660 824 771 872 724 856 b 356 422 489 733 356 557 b 460 321 356 361 397 321 b 700 413 533 321 619 354 b 899 772 819 500 899 642 b 867 876 899 810 890 839 b 896 878 881 878 888 878 b 1025 761 971 878 1025 829 b 481 92 1025 576 774 268 b 285 110 369 107 342 110 b 28 36 136 110 28 79 b 144 -7 28 8 71 -7 b 393 35 228 -7 301 6 b 596 -7 481 3 526 -7 b 867 58 689 -7 789 17 b 1011 167 913 83 942 104 z m 364 43 b 150 1 281 13 221 1 b 43 38 82 1 43 14 b 157 81 43 63 92 81 b 364 43 215 81 278 69 z m 853 875 b 881 792 871 849 881 821 b 654 447 881 701 806 588 b 449 331 571 369 501 331 b 365 424 400 331 365 371 b 597 772 365 535 458 674 b 853 875 681 831 749 858 z "},"R":{"ha":1200,"x_min":0,"x_max":0,"o":"m 1200 167 b 1104 81 1121 96 1114 90 b 976 8 1042 31 1004 8 b 960 25 967 8 960 15 b 976 79 960 35 967 56 b 1063 376 1049 256 1063 300 b 1044 456 1063 411 1058 432 b 1269 671 1207 539 1269 599 b 1176 839 1269 726 1239 783 b 1297 904 1218 867 1258 889 l 1292 911 b 1165 847 1244 892 1201 871 b 872 924 1081 900 989 924 b 407 765 700 924 544 869 b 199 440 275 664 199 543 b 314 332 199 378 247 332 b 497 372 365 332 429 346 b 715 522 593 408 660 454 b 849 881 800 622 842 736 l 840 881 b 676 569 829 760 783 672 b 304 344 544 444 381 344 b 207 442 250 344 207 388 b 371 718 207 526 268 629 b 881 915 517 843 701 915 b 1153 840 993 915 1086 889 b 732 422 990 729 808 547 b 525 125 589 193 579 181 b 235 3 442 44 344 3 b 68 85 138 3 68 38 b 85 104 68 94 76 104 b 97 101 88 104 92 103 b 131 93 114 94 121 93 b 193 146 165 93 193 117 b 139 193 193 174 171 193 b 49 103 93 193 49 149 b 236 -6 49 36 121 -6 b 525 68 332 -6 442 22 b 882 446 667 146 808 296 b 1163 832 1001 697 1021 724 b 1194 761 1185 808 1194 786 b 1035 465 1194 656 1122 521 b 964 492 1013 483 989 492 b 914 458 935 492 914 478 b 958 431 914 440 931 431 b 1033 450 982 431 1000 435 b 1042 418 1039 436 1042 428 b 971 288 1042 392 1025 361 b 888 106 907 201 888 160 b 964 -6 888 43 921 -6 b 1089 57 996 -6 1036 14 b 1213 167 1114 78 1133 94 z m 1026 460 b 958 439 1003 446 982 439 b 924 458 936 439 924 446 b 964 482 924 472 940 482 b 1026 460 988 482 1007 475 z "},"S":{"ha":847,"x_min":0,"x_max":0,"o":"m 1058 788 b 1040 771 1053 781 1047 775 b 583 921 888 869 731 921 b 225 811 457 921 319 879 b 93 576 146 754 93 661 b 472 318 93 428 254 318 b 686 340 538 318 589 324 b 258 1 547 97 426 1 b 117 71 174 1 117 29 b 129 90 117 82 122 90 b 143 86 132 90 136 89 b 171 79 150 82 163 79 b 226 131 200 79 226 104 b 179 175 226 156 206 175 b 93 86 135 175 93 133 b 254 -6 93 26 150 -6 b 850 393 492 -6 689 126 b 1301 864 1088 485 1301 707 b 1256 928 1301 900 1282 928 b 1132 856 1228 928 1178 899 z m 1033 764 b 694 351 888 626 799 519 b 483 326 596 332 546 326 b 135 536 276 326 135 413 b 288 803 135 629 194 732 b 606 904 372 868 486 904 b 1033 764 749 904 904 853 z m 1146 675 b 1065 753 1121 706 1097 728 b 1142 850 1104 807 1119 826 b 1254 917 1176 886 1229 917 b 1279 885 1268 917 1279 901 b 1104 572 1279 808 1196 658 b 858 410 1025 496 922 429 b 1060 743 925 538 1017 689 b 1139 669 1082 728 1111 700 z "},"T":{"ha":901,"x_min":0,"x_max":0,"o":"m 1188 778 b 693 290 983 679 878 575 b 513 82 614 172 571 122 b 253 8 442 35 351 8 b 72 83 149 8 72 40 b 85 99 72 92 78 99 b 96 96 88 99 92 97 b 126 88 111 89 117 88 b 186 139 158 88 186 111 b 133 185 186 164 163 185 b 49 103 88 185 49 147 b 258 0 49 36 122 0 b 786 238 447 0 658 94 b 943 497 839 297 843 304 b 1192 769 1006 625 1090 717 z m 850 888 b 853 857 853 874 853 868 b 708 572 853 772 804 678 b 381 354 581 433 463 354 b 276 460 322 354 276 400 b 454 765 276 558 344 674 b 842 908 569 860 700 908 b 1110 835 938 908 997 892 b 1235 796 1168 804 1196 796 b 1383 911 1313 796 1367 838 b 1263 875 1340 886 1304 875 b 1125 893 1232 875 1190 881 b 889 922 999 917 958 922 b 457 792 719 922 568 876 b 267 461 344 704 267 569 b 392 343 267 394 321 343 b 732 504 499 343 644 411 b 865 824 813 588 865 715 b 858 889 865 847 863 869 z "},"U":{"ha":924,"x_min":0,"x_max":0,"o":"m 924 167 b 685 8 788 49 726 8 b 665 24 672 8 665 14 b 750 165 665 42 672 53 b 953 440 833 283 878 343 b 1393 868 1256 644 1393 779 b 1361 907 1393 890 1379 907 b 1219 821 1333 907 1293 883 b 938 556 1097 718 1001 628 b 532 149 713 300 665 254 b 301 6 410 53 335 6 b 286 18 293 6 286 11 b 508 265 286 35 347 103 b 693 472 646 404 647 406 b 785 729 754 561 785 646 b 622 922 785 842 717 922 b 93 433 383 922 93 653 b 185 321 93 368 132 321 b 485 492 268 321 399 394 b 617 832 572 589 617 704 b 613 885 617 853 615 863 l 604 883 l 604 875 l 604 854 b 378 460 604 761 513 603 b 186 331 290 368 235 331 b 104 428 139 331 104 372 b 315 776 104 533 182 663 b 619 913 411 858 532 913 b 753 792 694 913 753 860 b 561 465 753 703 693 600 b 292 161 331 228 326 222 b 253 40 268 119 253 72 b 292 -4 253 11 267 -4 b 458 79 328 -4 379 22 b 736 318 576 165 653 232 b 622 75 639 178 622 142 b 672 -4 622 25 640 -4 b 936 167 726 -4 796 40 z m 972 468 b 1240 799 1061 586 1178 729 b 1356 896 1304 871 1333 896 b 1372 874 1365 896 1372 886 b 1228 664 1372 840 1294 728 b 972 468 1150 592 1043 510 z "},"V":{"ha":932,"x_min":0,"x_max":0,"o":"m 678 881 b 435 485 675 768 611 665 b 199 332 326 375 260 332 b 104 438 144 332 104 376 b 332 788 104 551 188 681 b 663 918 447 874 560 918 b 774 883 711 918 747 907 b 819 779 800 858 819 815 b 525 389 819 701 774 642 b 335 83 382 242 335 167 b 414 -4 335 33 368 -4 b 799 217 513 -4 656 78 b 1031 506 885 300 953 386 b 1071 494 1044 497 1056 494 b 1163 599 1122 494 1163 540 b 1151 653 1163 617 1160 632 l 1143 649 b 1153 601 1151 629 1153 619 b 1072 506 1153 547 1118 506 b 1036 515 1058 506 1047 508 b 1164 869 1111 643 1164 790 b 1140 921 1164 900 1154 921 b 1071 840 1118 921 1093 892 b 1008 581 1026 740 1008 665 b 1022 513 1008 549 1011 533 b 794 226 963 410 889 318 b 419 6 658 93 510 6 b 374 44 393 6 374 22 b 449 161 374 71 400 111 b 714 446 614 329 646 364 b 847 738 813 564 847 640 b 664 926 847 853 776 926 b 322 803 551 926 428 882 b 93 439 185 703 93 556 b 204 321 93 374 143 321 b 561 528 307 321 467 414 b 686 857 640 625 686 746 l 686 881 z "},"W":{"ha":1046,"x_min":0,"x_max":0,"o":"m 535 883 b 549 786 546 838 549 819 b 486 561 549 715 529 644 b 197 290 407 411 279 290 b 129 326 175 290 144 307 b 104 418 113 349 104 378 b 233 718 104 513 146 611 b 576 919 342 851 458 919 b 718 772 669 919 718 868 b 507 332 718 672 636 500 b 150 -8 407 201 290 90 b 354 60 242 0 261 7 b 803 469 538 172 669 292 b 1219 914 999 735 1133 879 b 915 538 1094 789 1011 685 b 722 93 786 342 722 193 b 785 -7 722 40 751 -7 b 886 131 817 -7 847 33 b 1492 831 1065 572 1240 774 l 1490 839 b 879 136 1235 782 1058 579 b 803 15 844 57 819 15 b 793 33 797 15 793 24 b 1010 551 793 89 903 353 b 1257 935 1118 754 1179 850 b 918 638 1175 921 1082 840 b 454 136 703 351 611 251 b 197 7 315 42 246 7 b 478 208 311 75 389 132 b 793 683 689 392 793 549 b 579 929 793 817 696 929 b 254 769 474 929 358 872 b 93 417 151 667 93 539 b 206 279 93 336 139 279 b 468 425 285 279 390 338 b 579 701 542 507 579 600 b 542 888 579 758 569 808 z "},"X":{"ha":917,"x_min":0,"x_max":0,"o":"m 917 167 b 672 4 788 51 717 4 b 649 32 658 4 649 15 b 671 92 649 47 654 63 b 883 424 735 207 804 314 b 1351 886 1058 664 1167 772 l 1347 893 b 924 494 1192 801 1060 678 b 972 686 960 579 972 626 b 751 918 972 829 888 918 b 201 454 493 918 201 672 b 333 329 201 379 254 329 b 664 472 449 329 578 385 b 807 839 758 567 807 692 b 806 871 807 849 807 857 l 797 869 l 797 858 l 797 847 b 646 543 797 750 746 646 b 311 342 529 424 394 342 b 211 456 254 342 211 390 b 399 760 211 554 276 661 b 750 908 519 857 642 908 b 931 757 861 908 931 850 b 861 572 931 703 911 650 b 638 286 797 472 724 379 b 192 4 460 97 313 4 b 74 74 125 4 74 33 b 85 89 74 82 79 89 b 94 86 88 89 90 88 b 126 78 113 79 115 78 b 189 136 160 78 189 106 b 140 182 189 163 168 182 b 49 88 93 182 49 136 b 186 -6 49 32 104 -6 b 669 308 324 -6 458 82 b 596 106 607 193 596 164 b 667 -7 596 36 622 -7 b 750 24 688 -7 710 1 b 931 167 796 50 821 71 z "},"Y":{"ha":990,"x_min":0,"x_max":0,"o":"m 640 894 b 457 550 638 774 590 685 b 194 388 347 439 264 388 b 114 465 147 388 114 419 b 272 746 114 550 171 653 b 640 924 396 861 525 924 b 814 776 743 924 814 864 b 653 535 814 718 776 661 b 469 260 508 386 469 328 b 526 201 469 226 493 201 b 947 529 626 201 775 318 b 728 175 854 349 796 254 b 315 3 625 57 496 3 b 101 82 181 3 101 32 b 117 101 101 93 107 101 b 125 100 119 101 122 101 b 157 93 142 94 146 93 b 213 143 186 93 213 117 b 158 190 213 168 188 190 b 74 104 115 190 74 147 b 124 28 74 75 94 43 b 321 -6 168 4 225 -6 b 756 110 488 -6 640 35 b 1043 528 882 192 954 296 b 1231 811 1108 700 1149 763 l 1225 819 b 939 535 1143 771 1108 736 b 699 290 826 400 779 351 b 535 213 631 238 576 213 b 508 231 518 213 508 219 b 546 290 508 246 517 260 b 746 506 701 453 706 457 b 844 740 808 581 844 668 b 789 878 844 788 822 843 b 646 935 753 915 704 935 b 104 468 401 935 104 678 b 207 374 104 411 146 374 b 493 506 293 374 407 426 b 650 868 593 599 650 731 b 649 894 650 879 650 883 z "},"Z":{"ha":974,"x_min":0,"x_max":0,"o":"m 974 167 b 751 89 904 108 849 89 b 472 110 693 89 678 90 b 793 449 572 174 686 293 l 978 449 l 1001 494 l 822 494 b 874 586 843 528 846 533 b 1158 865 963 767 1029 832 b 1261 921 1242 889 1261 899 b 1240 936 1261 929 1253 936 b 1183 914 1224 936 1203 928 b 989 839 1108 860 1053 839 b 882 867 953 839 928 846 b 661 924 772 915 740 924 b 376 847 564 924 453 894 b 283 772 344 828 322 810 l 290 767 b 589 900 379 854 483 900 b 701 861 622 900 660 888 b 883 786 804 796 826 786 b 958 800 911 786 936 790 l 1010 821 b 1039 832 1019 824 1029 828 b 1011 811 1029 826 1019 821 b 683 494 869 718 803 654 l 453 494 l 424 449 l 650 449 b 422 115 589 344 488 196 b 268 121 340 119 313 121 b 18 32 126 121 18 82 b 136 -14 18 3 61 -14 b 372 43 213 -14 279 3 b 613 -6 454 10 531 -6 b 858 61 706 -6 796 19 b 986 167 889 81 896 86 z m 347 51 b 136 -4 288 15 214 -4 b 35 39 74 -4 35 13 b 163 88 35 65 93 88 b 347 51 219 88 282 75 z "},"[":{"ha":781,"x_min":0,"x_max":0,"o":"m 1104 926 l 938 926 l 46 -204 l 213 -204 l 235 -176 b 178 -178 207 -178 194 -178 b 124 -176 163 -178 150 -178 l 969 899 b 1026 900 999 900 1011 900 b 1081 899 1043 900 1056 900 z "},"\\":{"ha":514,"x_min":0,"x_max":0,"o":"m 504 807 l 232 17 b 229 6 231 10 229 7 b 258 -10 229 -3 243 -10 b 281 13 271 -10 275 -4 l 514 801 z "},"]":{"ha":642,"x_min":0,"x_max":0,"o":"m -232 -204 l -65 -204 l 826 926 l 660 926 l 636 899 b 693 900 665 900 678 900 b 747 899 710 900 722 900 l -99 -176 b -156 -178 -126 -178 -140 -178 b -210 -176 -171 -178 -183 -178 z "},"^":{"ha":694,"x_min":0,"x_max":0,"o":"m 728 399 l 358 972 l 350 972 l -33 399 l 99 399 l 392 839 l 679 399 z "},"_":{"ha":694,"x_min":0,"x_max":0,"o":"m 33 -122 l 33 -178 l 661 -178 l 661 -122 z "},"‘":{"ha":665,"x_min":0,"x_max":0,"o":"m 756 953 b 556 775 642 918 556 842 b 590 738 556 754 571 738 b 649 801 621 738 649 768 b 613 843 649 824 635 839 b 758 946 640 881 686 913 z "},"a":{"ha":500,"x_min":0,"x_max":0,"o":"m 14 167 b 42 192 22 175 32 183 b 72 218 49 199 57 206 b 3 51 26 150 3 94 b 53 -7 3 18 24 -7 b 256 117 101 -7 151 24 b 231 38 235 71 231 57 b 268 -4 231 13 246 -4 b 514 167 306 -4 388 53 l 500 167 b 276 13 364 49 311 13 b 268 22 272 13 268 17 b 299 68 268 31 268 32 l 554 371 l 458 371 l 388 283 b 399 329 396 303 399 315 b 353 372 399 356 381 372 b 129 275 297 372 210 333 b 0 167 93 249 50 211 z m 357 360 b 388 329 376 360 388 349 b 267 146 388 286 346 224 b 60 6 175 56 101 6 b 35 24 46 6 35 14 b 169 208 35 46 79 108 b 357 360 260 311 321 360 z "},"b":{"ha":472,"x_min":0,"x_max":0,"o":"m 14 167 b 92 235 29 179 31 182 b 190 317 131 269 153 288 b 78 176 108 217 103 210 b 33 57 49 136 33 94 b 89 -10 33 15 54 -10 b 336 149 151 -10 244 50 b 393 117 350 126 368 117 b 486 167 424 117 438 125 l 472 167 b 393 126 439 136 421 126 b 343 158 369 126 356 135 b 456 343 403 221 456 308 b 432 371 456 360 446 371 b 371 315 414 371 392 351 b 331 158 343 267 331 221 b 93 1 254 71 150 1 b 74 15 82 1 74 7 b 156 139 74 32 86 50 b 342 375 296 318 296 318 l 383 408 b 817 836 792 721 817 744 b 778 894 817 871 801 894 b 611 785 739 894 694 865 b 247 385 528 706 375 538 b 0 167 172 318 89 244 z m 361 406 b 469 550 406 464 422 486 b 683 819 558 669 631 761 b 779 886 729 868 754 886 b 799 864 790 886 799 876 b 647 639 799 819 732 719 b 361 406 558 554 451 467 z "},"c":{"ha":325,"x_min":0,"x_max":0,"o":"m 14 167 b 82 222 22 176 68 213 b 4 53 26 150 4 100 b 57 -6 4 15 24 -6 b 338 167 126 -6 196 38 l 325 167 b 64 7 197 51 125 7 b 40 24 49 7 40 13 b 172 215 40 43 88 111 b 326 361 271 336 297 361 b 356 344 342 361 356 353 b 339 332 356 338 350 335 b 286 283 306 326 286 308 b 317 251 286 267 301 251 b 374 324 346 251 374 286 b 325 371 374 353 354 371 b 0 167 257 371 142 299 z "},"d":{"ha":521,"x_min":0,"x_max":0,"o":"m 14 167 b 99 239 61 208 61 210 b 10 54 33 154 10 106 b 58 -3 10 18 28 -3 b 281 139 113 -3 204 56 b 253 35 257 76 253 60 b 283 -1 253 14 265 -1 b 535 167 332 -1 378 29 l 521 167 b 294 10 392 53 331 10 b 282 19 286 10 282 14 b 313 64 282 26 285 32 l 935 807 l 840 807 l 428 326 b 369 251 400 292 388 275 b 392 324 386 285 392 304 b 349 369 392 351 375 369 b 0 167 264 369 156 306 z m 353 360 b 382 325 369 360 382 346 b 63 7 382 225 164 7 b 43 22 51 7 43 14 b 171 192 43 39 89 100 b 353 360 271 307 329 360 z "},"e":{"ha":325,"x_min":0,"x_max":0,"o":"m 14 167 b 69 214 36 188 61 208 b 0 53 15 133 0 97 b 54 -10 0 14 21 -10 b 339 167 118 -10 208 46 l 325 167 b 57 1 215 64 114 1 b 28 22 40 1 28 10 b 71 97 28 36 40 58 b 233 182 132 121 183 149 b 346 339 313 235 346 282 b 314 378 346 363 332 378 b 0 167 264 378 135 290 z m 79 111 b 138 183 101 138 111 150 b 313 368 256 333 289 368 b 326 354 319 368 326 361 b 247 222 326 328 292 271 b 79 111 201 172 150 139 z "},"f":{"ha":339,"x_min":0,"x_max":0,"o":"m 13 167 b 150 285 72 219 118 258 b 158 247 150 276 154 258 l -149 -112 b -246 -287 -218 -194 -246 -244 b -190 -347 -246 -322 -222 -347 b 50 -150 -132 -347 -44 -276 b 203 171 138 -32 186 69 b 278 125 228 138 249 125 b 351 167 303 125 310 129 l 339 167 b 279 135 311 142 299 135 b 204 188 247 135 225 150 l 283 285 b 343 360 303 310 322 335 l 383 410 b 453 457 406 425 406 425 b 660 608 578 542 578 542 b 826 821 785 708 826 761 b 781 882 826 854 806 882 b 657 817 753 882 703 856 b 410 561 592 763 472 639 b 279 400 361 500 319 450 b 226 361 246 376 240 372 b 189 331 214 351 203 342 b 172 343 185 339 181 343 b 149 314 158 343 149 331 l 149 297 b 0 167 114 268 67 226 z m 517 590 b 778 871 644 764 744 871 b 793 847 786 871 793 861 b 403 436 793 757 613 567 z m 174 265 b 179 292 174 279 175 283 l 185 306 l 189 318 b 267 379 229 351 239 360 z m 192 169 b 67 -108 181 89 138 -7 b -178 -332 -28 -242 -126 -332 b -193 -321 -187 -332 -193 -328 b -131 -225 -193 -310 -168 -272 z "},"g":{"ha":481,"x_min":0,"x_max":0,"o":"m 13 167 l 17 169 l 40 190 b 74 215 54 203 63 208 b 6 57 24 140 6 99 b 53 -7 6 17 22 -7 b 225 94 94 -7 147 25 l 118 -43 b -44 -144 17 -100 10 -104 b -194 -331 -147 -222 -194 -281 b -158 -372 -194 -354 -178 -372 b 65 -200 -115 -372 -12 -293 l 218 -19 b 494 167 324 21 349 36 l 481 167 b 233 3 368 63 299 17 l 540 369 l 449 369 l 367 271 b 383 339 379 306 383 325 b 350 369 383 357 369 369 b 0 167 268 369 161 308 z m 347 360 b 372 335 364 360 372 351 b 58 4 372 238 151 4 b 39 18 47 4 39 10 b 139 168 39 36 69 81 b 347 360 240 293 313 360 z m -61 -268 b -158 -361 -112 -332 -142 -361 b -172 -346 -167 -361 -172 -354 b -126 -250 -172 -325 -154 -289 b 100 -65 -75 -179 3 -117 z "},"h":{"ha":524,"x_min":0,"x_max":0,"o":"m 14 167 b 224 340 140 281 175 308 l -64 0 l 39 0 l 151 132 b 440 364 249 246 396 364 b 454 354 447 364 454 360 b 367 244 454 344 438 322 b 244 61 250 115 244 108 b 292 -1 244 26 265 -1 b 536 167 340 -1 388 31 l 524 167 b 297 10 383 42 338 10 b 285 21 290 10 285 14 b 328 82 285 33 293 44 b 482 328 442 206 482 269 b 446 374 482 353 465 374 b 244 247 411 374 339 328 b 363 399 268 282 281 297 b 643 606 468 472 590 563 b 824 842 785 719 824 771 b 781 897 824 875 807 897 b 547 719 735 897 651 835 b 250 375 444 606 314 456 b 0 167 168 317 153 303 z m 625 747 b 779 888 708 854 744 888 b 804 861 793 888 804 876 b 694 679 804 824 761 751 b 376 424 626 604 524 522 z "},"i":{"ha":285,"x_min":0,"x_max":0,"o":"m 14 167 b 182 311 96 240 143 281 l 89 196 b 8 39 29 122 8 81 b 50 -3 8 14 25 -3 b 278 150 94 -3 139 26 l 297 167 l 285 167 b 56 8 146 44 93 8 b 42 19 49 8 42 14 b 88 88 42 28 53 44 l 324 372 l 233 372 b 0 167 181 326 103 258 z m 458 635 b 406 582 431 635 406 610 b 442 546 406 563 422 546 b 494 601 468 546 494 574 b 458 635 494 619 478 635 z "},"j":{"ha":268,"x_min":0,"x_max":0,"o":"m 14 167 b 213 332 124 265 160 296 l -50 -17 b -417 -379 -289 -160 -417 -285 b -386 -422 -417 -403 -403 -422 b -64 -144 -336 -422 -169 -279 l 51 4 b 282 167 115 25 158 56 l 268 167 b 67 25 165 75 128 49 l 333 372 l 243 372 b 0 167 179 322 103 258 z m -221 -240 b -385 -412 -318 -367 -362 -412 b -399 -397 -393 -412 -399 -406 b -278 -203 -399 -362 -340 -269 b -65 -40 -224 -146 -143 -83 z m 481 635 b 428 582 453 635 428 610 b 464 546 428 563 444 546 b 517 601 490 546 517 574 b 481 635 517 619 500 635 z "},"k":{"ha":510,"x_min":0,"x_max":0,"o":"m 14 167 b 204 310 103 246 129 265 b 65 161 147 250 101 200 l -86 0 l 22 0 l 200 201 b 236 188 211 192 221 188 b 281 207 253 188 264 193 b 288 196 286 203 288 200 b 263 157 288 186 279 174 b 190 54 199 96 190 85 b 254 -1 190 21 217 -1 b 446 100 303 -1 371 35 b 524 167 493 140 510 156 l 510 167 l 496 154 b 375 58 413 83 413 83 b 274 14 332 29 296 14 b 261 24 265 14 261 18 b 279 56 261 31 264 35 b 321 160 307 94 321 128 b 293 214 321 181 311 200 b 356 271 318 235 335 250 b 472 356 436 353 440 356 b 488 347 483 356 488 353 b 475 338 488 343 486 342 b 431 285 446 328 431 308 b 467 250 431 265 447 250 b 529 317 499 250 529 282 b 474 367 529 346 507 367 b 350 281 440 367 425 356 b 286 219 333 263 315 246 b 244 229 269 226 260 229 b 218 225 235 229 225 228 l 374 403 b 778 689 572 522 681 599 b 856 819 835 742 856 776 b 817 874 856 851 839 874 b 376 504 747 874 599 750 b 221 333 290 408 239 351 b 0 167 119 269 92 249 z m 628 708 b 814 864 718 817 774 864 b 836 844 826 864 836 856 b 719 675 836 822 785 749 b 396 431 644 590 568 533 z m 269 211 b 236 197 258 201 249 197 b 208 210 224 197 217 200 b 242 218 221 215 229 218 b 269 211 254 218 263 215 z "},"l":{"ha":294,"x_min":0,"x_max":0,"o":"m 14 167 b 183 310 104 246 121 261 l 68 168 b 11 47 28 118 11 82 b 53 -3 11 18 29 -3 b 181 60 81 -3 128 21 b 308 167 210 81 210 81 l 294 167 b 67 11 179 64 101 11 b 56 21 60 11 56 15 b 119 118 56 33 79 69 l 353 397 b 681 649 547 533 582 560 b 815 843 775 733 815 790 b 781 892 815 871 801 892 b 518 685 735 892 643 819 b 214 346 392 550 288 433 b 0 167 111 265 83 242 z m 383 431 b 778 882 589 707 742 882 b 794 863 788 882 794 874 b 383 431 794 768 635 601 z "},"m":{"ha":767,"x_min":0,"x_max":0,"o":"m 14 167 b 272 360 178 315 239 360 b 285 350 279 360 285 356 b 257 307 285 342 278 332 l -1 0 l 99 0 b 476 360 271 214 424 360 b 488 350 482 360 488 356 b 429 269 488 338 482 331 l 206 0 l 303 0 b 696 357 490 225 636 357 b 708 347 703 357 708 351 b 603 221 708 336 685 307 b 489 44 515 128 489 88 b 529 1 489 21 507 1 b 704 101 567 1 632 39 b 781 167 738 131 757 147 l 767 167 b 675 89 717 122 699 107 b 540 14 621 47 561 14 b 529 22 533 14 529 18 b 540 42 529 28 532 33 b 626 136 589 96 589 96 b 663 176 644 156 657 169 b 740 329 713 236 740 290 b 704 369 740 353 725 369 b 467 199 660 369 590 319 l 479 224 b 518 328 513 283 518 300 b 483 372 518 356 504 372 b 276 219 444 372 376 324 b 317 335 307 283 317 313 b 282 372 317 356 300 372 b 0 167 239 372 185 332 z "},"n":{"ha":564,"x_min":0,"x_max":0,"o":"m 14 167 b 267 353 181 315 232 353 b 282 342 275 353 282 349 b 260 308 282 335 281 332 l -3 0 l 90 0 b 476 357 282 229 422 357 b 492 344 485 357 492 351 b 394 226 492 332 475 311 b 275 47 288 114 275 94 b 319 0 275 21 294 0 b 444 57 351 0 392 18 b 576 167 476 79 489 89 l 564 167 b 461 81 501 113 486 100 b 328 14 406 39 356 14 b 313 25 321 14 313 19 b 375 99 313 33 321 43 b 514 328 468 193 514 268 b 478 367 514 350 499 367 b 247 196 440 367 381 322 b 307 328 294 268 307 294 b 274 364 307 349 293 364 b 0 167 231 364 183 329 z "},"o":{"ha":396,"x_min":0,"x_max":0,"o":"m 14 167 b 103 240 64 213 82 226 b 3 56 24 144 3 106 b 58 -3 3 19 25 -3 b 279 146 111 -3 194 53 b 326 119 293 128 308 119 b 400 160 350 119 361 125 l 408 167 l 396 167 l 390 161 b 326 129 361 136 349 129 b 286 154 310 129 297 136 b 386 324 353 231 386 286 b 338 368 386 349 364 368 b 131 275 289 368 215 335 b 0 167 93 249 81 239 z m 353 263 b 333 265 343 265 339 265 b 269 182 299 265 269 228 b 274 154 269 171 271 164 b 57 7 192 63 111 7 b 35 25 43 7 35 14 b 115 142 35 39 54 67 b 340 358 250 307 304 358 b 376 324 360 358 376 342 b 353 263 376 306 368 285 z "},"p":{"ha":490,"x_min":0,"x_max":0,"o":"m 14 167 b 372 499 117 258 242 374 b -25 43 246 356 246 356 l -425 -407 l -306 -407 l 128 119 b 418 357 232 247 367 357 b 431 347 425 357 431 353 b 388 289 431 336 421 324 b 282 175 308 204 303 199 b 219 56 238 126 219 90 b 265 3 219 26 240 3 b 364 50 286 3 321 19 b 504 167 381 61 426 100 l 490 167 b 271 14 381 67 304 14 b 261 22 265 14 261 17 b 346 125 261 31 281 54 b 450 331 424 210 450 263 b 418 368 450 353 438 368 b 217 235 379 368 333 338 b 317 356 263 292 268 297 l 419 476 l 622 717 l 563 717 b 0 167 404 539 282 419 z "},"q":{"ha":489,"x_min":0,"x_max":0,"o":"m 13 167 b 42 193 22 175 32 183 b 76 222 49 199 57 206 b 13 63 26 144 13 111 b 56 -3 13 22 29 -3 b 253 122 93 -3 158 38 l 243 107 l 222 79 b -69 -340 -44 -261 -69 -296 b -33 -376 -69 -361 -54 -376 b 222 -133 7 -376 60 -326 b 503 167 379 53 403 79 l 489 167 b 304 -21 418 104 365 50 b -21 -358 58 -311 13 -358 b -31 -347 -25 -358 -31 -353 b 3 -293 -31 -339 -19 -321 l 546 371 l 458 371 l 367 261 b 388 336 383 299 388 314 b 344 371 388 360 374 371 b 100 256 278 371 188 328 b 0 167 90 247 68 228 z m 347 363 b 378 333 367 363 378 353 b 257 142 378 286 333 214 b 58 10 176 63 96 10 b 43 25 50 10 43 17 b 192 233 43 50 96 124 b 347 363 271 324 318 363 z "},"r":{"ha":479,"x_min":0,"x_max":0,"o":"m 14 167 b 278 358 183 319 238 358 b 289 349 285 358 289 354 b 219 249 289 338 264 301 l 13 0 l 114 0 b 349 193 171 69 208 100 b 414 124 360 146 381 124 b 488 163 439 124 449 129 l 492 167 l 479 167 b 417 135 453 143 436 135 b 360 201 385 135 365 157 b 456 347 428 267 456 308 b 431 378 456 364 444 378 b 346 204 390 378 351 297 b 199 101 253 143 249 140 b 285 213 253 168 265 183 b 324 325 307 247 324 294 b 285 371 324 353 308 371 b 0 167 238 371 204 347 z "},"s":{"ha":351,"x_min":0,"x_max":0,"o":"m 14 167 b 271 365 167 303 190 321 b 186 132 249 276 219 197 b 60 3 151 61 94 3 b 32 32 46 3 32 18 b 51 50 32 43 39 50 b 124 100 103 53 124 68 b 86 136 124 122 108 136 b 15 44 51 136 15 89 b 71 -10 15 13 39 -10 b 228 51 115 -10 169 13 b 365 167 258 74 282 93 l 351 167 b 225 63 293 114 265 90 b 293 208 279 121 293 151 b 288 268 293 225 292 240 b 281 329 282 306 281 314 b 313 408 281 363 290 385 b 342 446 340 436 342 438 b 333 457 342 453 338 457 b 279 388 319 457 308 443 b 0 167 174 319 150 300 z "},"t":{"ha":301,"x_min":0,"x_max":0,"o":"m 14 167 b 246 364 72 219 164 297 l 97 185 b 25 42 50 126 25 78 b 60 -3 25 15 39 -3 b 193 63 86 -3 140 24 b 315 167 221 85 236 97 l 301 167 b 207 85 231 104 226 100 b 75 11 156 43 99 11 b 65 21 69 11 65 15 b 108 92 65 33 79 56 l 426 479 l 522 479 l 531 496 l 439 496 l 601 696 l 518 696 l 354 496 l 290 496 l 276 479 l 340 479 l 296 424 b 147 296 271 403 260 393 b 0 167 25 189 24 189 z "},"u":{"ha":499,"x_min":0,"x_max":0,"o":"m 14 167 b 185 313 68 217 128 267 l 76 172 b 10 46 25 107 10 78 b 47 -3 10 19 28 -3 b 281 176 89 -3 169 58 l 274 163 b 224 50 228 90 224 81 b 261 -3 224 18 238 -3 b 513 167 307 -3 361 33 l 499 167 b 264 7 357 42 306 7 b 253 17 257 7 253 11 b 304 97 253 29 268 54 l 525 363 l 439 363 b 228 133 319 231 250 154 b 51 8 140 50 82 8 b 40 19 46 8 40 13 b 82 85 40 32 47 43 l 315 363 l 225 363 b 197 339 217 354 207 346 b 83 242 160 306 121 274 b 0 167 58 218 29 193 z "},"v":{"ha":468,"x_min":0,"x_max":0,"o":"m 14 167 b 269 358 165 310 231 358 b 281 350 276 358 281 354 b 181 236 281 340 250 306 b 63 44 90 144 63 99 b 103 -3 63 17 79 -3 b 363 175 161 -3 247 57 b 411 125 372 139 386 125 b 472 160 431 125 439 131 l 481 167 l 468 167 b 413 135 440 142 428 135 b 371 186 390 135 378 150 b 457 338 426 251 457 304 b 438 364 457 353 449 364 b 361 185 396 364 361 281 b 113 8 265 82 161 8 b 94 22 103 8 94 14 b 189 136 94 33 111 54 b 304 326 282 238 304 274 b 274 368 304 353 293 368 b 0 167 228 368 181 333 z "},"w":{"ha":643,"x_min":0,"x_max":0,"o":"m 14 167 b 176 307 57 207 125 265 b 115 228 158 282 149 268 b 26 43 50 143 26 96 b 60 -3 26 17 40 -3 b 307 197 97 -3 172 58 b 290 171 301 188 296 179 b 231 44 243 103 231 76 b 274 -3 231 17 249 -3 b 536 164 338 -3 444 65 b 582 125 543 139 560 125 b 656 167 604 125 615 132 l 643 167 b 585 135 614 142 603 135 b 544 174 563 135 549 149 b 628 336 594 235 628 299 b 606 365 628 353 618 365 b 532 200 569 365 531 281 l 532 185 l 532 175 b 279 7 454 85 336 7 b 260 22 268 7 260 13 b 304 92 260 35 267 47 l 533 365 l 442 365 b 426 347 436 360 431 354 b 217 119 296 196 286 185 b 65 7 144 50 86 7 b 51 21 58 7 51 14 b 94 90 51 32 65 53 l 318 365 l 225 365 b 0 167 149 300 111 267 z "},"x":{"ha":394,"x_min":0,"x_max":0,"o":"m 13 167 b 126 269 71 219 96 242 b 253 358 197 335 231 358 b 265 346 260 358 265 353 b 104 117 265 319 189 211 b -15 0 63 69 31 39 l -1 0 b 143 147 49 40 92 85 b 125 53 131 106 125 76 b 165 -1 125 19 142 -1 b 376 139 206 -1 256 32 b 407 167 386 147 397 157 l 394 167 b 171 10 254 42 208 10 b 154 29 161 10 154 18 b 249 179 154 43 189 100 b 418 365 299 247 354 307 l 406 365 b 261 217 365 331 310 272 b 292 321 286 274 292 294 b 257 368 292 349 278 368 b 135 289 231 368 199 347 b 0 167 88 246 40 203 z "},"y":{"ha":528,"x_min":0,"x_max":0,"o":"m 13 167 b 260 349 168 308 222 349 b 275 335 269 349 275 343 b 250 297 275 325 271 318 b 118 157 144 190 144 190 b 75 44 92 121 75 79 b 108 -3 75 15 89 -3 b 306 142 140 -3 215 51 l 157 -37 b -94 -196 71 -81 -4 -129 b -225 -378 -182 -262 -225 -324 b -193 -417 -225 -400 -212 -417 b 129 -169 -133 -417 10 -307 b 271 -7 196 -92 225 -58 b 540 167 361 17 394 38 l 526 167 b 281 10 404 56 346 18 l 583 360 l 499 360 b 325 171 410 257 386 231 b 115 10 222 71 142 10 b 106 19 110 10 106 14 b 189 125 106 31 132 64 b 300 314 271 213 300 261 b 264 360 300 340 285 360 b 0 167 222 360 178 328 z m -76 -308 b -192 -406 -126 -365 -174 -406 b -203 -392 -199 -406 -203 -400 b -79 -218 -203 -360 -161 -300 b 139 -57 -10 -147 51 -103 z "},"z":{"ha":393,"x_min":0,"x_max":0,"o":"m 14 167 b 201 311 165 303 176 311 b 219 307 207 311 214 310 b 263 296 243 297 249 296 b 297 300 274 296 286 297 l 325 306 l 340 308 b 274 267 315 293 307 286 b 126 117 196 218 168 190 b 79 54 107 79 101 72 b -19 7 24 42 -19 21 b -8 -3 -19 1 -14 -3 b 39 18 6 -3 19 4 b 85 42 71 40 74 42 b 111 25 94 42 101 38 b 158 -3 126 6 140 -3 b 407 167 206 -3 264 38 l 393 167 b 228 65 283 71 274 65 b 208 67 224 65 217 65 b 190 68 197 68 194 68 b 151 64 181 68 167 67 b 103 58 122 60 121 60 b 121 69 108 61 114 65 b 299 236 236 138 249 149 b 396 322 329 289 353 310 b 442 349 435 335 442 339 b 431 358 442 354 438 358 b 396 340 422 358 417 356 b 353 322 378 326 367 322 b 335 333 346 322 340 325 b 281 364 314 360 306 364 b 0 167 224 364 200 347 z "},"{":{"ha":781,"x_min":0,"x_max":0,"o":"m 447 404 b 472 368 468 392 472 385 b 414 267 472 349 456 318 l 214 11 b 140 -137 163 -56 140 -100 b 251 -206 140 -186 174 -206 l 294 -206 l 311 -183 b 188 -132 203 -181 188 -174 b 239 -35 188 -106 196 -89 l 469 260 b 528 374 511 314 528 346 b 517 403 528 386 525 393 b 703 558 569 410 632 461 l 864 765 b 888 797 872 776 881 788 b 1119 906 969 903 979 908 l 1136 928 l 1051 928 b 825 793 940 928 914 913 b 789 746 813 778 801 763 l 642 558 b 461 422 563 454 526 428 z "},"|":{"ha":694,"x_min":0,"x_max":0,"o":"m 313 926 l 313 -232 l 382 -232 l 382 926 z "},"}":{"ha":642,"x_min":0,"x_max":0,"o":"m 425 318 b 400 354 406 331 400 338 b 458 456 400 374 417 404 l 658 711 b 732 861 711 779 732 822 b 621 928 732 908 699 928 l 578 928 l 561 906 b 685 854 669 903 685 896 b 633 757 685 828 676 811 l 403 463 b 344 349 361 408 344 376 b 356 319 344 336 347 329 b 169 164 303 313 240 261 l 8 -43 b -15 -75 0 -54 -8 -64 b -247 -183 -97 -181 -107 -186 l -264 -206 l -179 -206 b 47 -71 -68 -206 -42 -190 b 83 -24 60 -56 71 -40 l 231 164 b 411 300 310 268 346 294 z "},"~":{"ha":926,"x_min":0,"x_max":0,"o":"m 738 1019 b 599 943 696 968 650 943 b 489 968 571 943 549 949 b 363 999 419 992 392 999 b 169 865 290 999 221 950 l 189 853 b 315 935 246 922 267 935 b 436 910 349 935 374 929 b 567 876 539 876 539 876 b 756 1007 633 876 713 931 z "},"¡":{"ha":517,"x_min":0,"x_max":0,"o":"m 371 449 b 101 163 265 324 242 299 b 0 33 7 72 0 64 b 32 -1 0 13 13 -1 b 119 74 58 -1 89 24 b 378 444 190 193 317 374 z m 435 561 b 381 504 407 561 381 533 b 415 472 381 486 396 472 b 469 528 443 472 469 500 b 435 561 469 547 456 561 z "},"¢":{"ha":439,"x_min":0,"x_max":0,"o":"m 525 542 l 442 431 b 140 110 300 400 140 231 b 164 57 140 89 147 72 l 93 -42 l 100 -46 l 172 53 b 188 50 179 50 183 50 b 481 235 254 50 381 131 l 475 239 b 196 60 382 143 253 60 b 172 76 183 60 172 68 b 354 335 172 101 261 226 b 453 422 425 418 429 422 b 481 401 467 422 481 413 b 464 392 481 396 476 393 b 414 344 435 389 414 368 b 443 314 414 328 426 314 b 499 382 472 314 499 346 b 454 431 499 411 482 429 l 532 538 z "},"£":{"ha":918,"x_min":0,"x_max":0,"o":"m 715 197 b 651 179 688 183 675 179 b 594 188 633 179 619 181 b 672 299 633 235 636 240 b 840 401 746 332 788 358 b 1011 640 954 494 1011 575 b 978 686 1011 667 997 686 b 815 590 949 686 913 665 b 500 669 714 644 617 669 b 247 611 401 669 310 649 b 139 442 182 572 139 506 b 436 254 139 328 256 254 b 547 264 472 254 497 257 b 511 199 540 247 522 215 b 476 201 497 201 489 201 b 372 164 432 201 404 192 l 376 160 b 442 178 397 172 415 178 b 494 171 457 178 469 176 b 415 81 467 128 442 99 b 246 97 322 94 300 97 b 93 44 149 97 93 78 b 219 0 93 17 142 0 b 374 29 274 0 311 7 b 526 -1 432 8 479 -1 b 810 133 632 -1 718 40 l 803 139 b 621 47 725 68 685 47 b 456 72 579 47 543 53 b 567 163 492 97 526 125 b 626 157 597 158 610 157 b 719 190 660 157 689 167 z m 346 38 b 210 8 306 17 265 8 b 103 46 147 8 103 24 b 168 78 103 63 133 78 b 346 38 221 78 281 64 z m 806 583 b 554 276 679 467 625 401 b 431 264 504 267 474 264 b 165 410 272 264 165 322 b 264 576 165 467 201 526 b 519 657 335 631 417 657 b 806 583 625 657 717 633 z m 908 514 b 846 571 879 543 865 556 b 976 676 918 654 946 676 b 997 651 988 676 997 665 b 864 435 997 601 936 501 b 682 314 810 383 749 343 b 839 563 744 433 800 519 b 903 508 860 549 864 544 z "},"⁄":{"ha":104,"x_min":0,"x_max":0,"o":"m 428 575 l -76 31 b -93 8 -92 14 -93 13 b -67 -3 -93 3 -79 -3 b 11 60 -43 -3 -40 0 l 438 567 z "},"¥":{"ha":990,"x_min":0,"x_max":0,"o":"m 910 258 b 1043 528 960 328 988 385 b 1231 811 1108 700 1149 761 l 1225 819 b 963 583 1149 778 1121 753 b 772 397 858 471 826 440 b 613 315 703 344 647 315 b 575 350 593 315 575 333 b 701 510 575 385 582 394 b 844 742 811 615 844 669 b 789 878 844 788 822 843 b 644 935 753 915 704 935 b 104 568 399 935 104 735 b 208 476 104 514 147 476 b 492 581 293 476 408 518 b 650 871 594 657 650 758 b 649 894 650 879 650 883 l 640 894 b 457 619 638 799 592 728 b 196 490 349 532 264 490 b 114 567 149 490 114 522 b 274 788 114 636 169 713 b 638 925 394 876 525 925 b 814 779 742 925 814 865 b 679 583 814 731 783 686 b 525 361 557 463 525 418 b 599 303 525 328 556 303 b 947 529 683 303 806 382 b 792 258 885 406 843 333 l 458 258 l 440 218 l 763 218 b 719 165 746 196 735 183 l 422 165 l 404 125 l 678 125 b 315 3 576 39 471 3 b 101 81 181 3 101 32 b 117 100 101 93 107 100 b 125 99 119 100 122 100 b 157 93 142 94 147 93 b 213 143 186 93 213 117 b 158 190 213 168 188 190 b 74 104 117 190 74 147 b 124 28 74 75 94 43 b 321 -6 168 4 225 -6 b 778 125 499 -6 654 39 l 892 125 l 910 165 l 828 165 b 878 218 846 183 858 196 l 947 218 l 965 258 z "},"ƒ":{"ha":649,"x_min":0,"x_max":0,"o":"m 533 450 l 728 450 l 746 490 l 561 490 l 663 632 b 975 932 831 868 897 932 b 1061 822 1024 932 1061 885 b 925 613 1061 717 993 613 b 868 679 890 613 868 639 b 939 829 868 725 889 769 l 928 836 b 832 679 864 782 832 729 b 921 596 832 631 869 596 b 1097 815 1010 596 1097 704 b 974 947 1097 893 1046 947 b 726 794 903 947 829 901 b 467 490 629 693 618 681 l 249 490 l 232 450 l 436 450 l -18 -176 b -154 -294 -96 -283 -108 -294 b -226 -231 -196 -294 -226 -267 b -203 -193 -226 -211 -215 -193 b -193 -196 -201 -193 -197 -194 b -164 -203 -182 -200 -172 -203 b -115 -149 -139 -203 -115 -176 b -164 -106 -115 -124 -136 -106 b -258 -214 -214 -106 -258 -157 b -154 -307 -258 -269 -217 -307 b 226 29 -56 -307 42 -221 z "},"§":{"ha":813,"x_min":0,"x_max":0,"o":"m 454 479 b 238 257 296 397 238 338 b 299 129 238 214 251 185 b 363 28 357 61 363 53 b 157 -122 363 -56 271 -122 b 25 -49 83 -122 25 -90 b 42 -29 25 -39 32 -29 b 57 -33 46 -29 49 -31 b 74 -36 64 -35 68 -36 b 128 17 103 -36 128 -11 b 79 63 128 44 108 63 b 0 -32 36 63 0 19 b 160 -132 0 -93 63 -132 b 450 81 301 -132 450 -24 b 438 125 450 94 447 106 b 651 379 582 207 651 290 b 583 490 651 410 631 443 b 519 593 528 546 519 560 b 581 688 519 633 540 665 b 708 721 619 708 667 721 b 793 679 761 721 793 706 b 772 657 793 668 783 657 b 767 658 771 657 769 657 b 743 663 751 663 750 663 b 693 614 717 663 693 639 b 729 581 693 596 708 581 b 813 668 774 581 813 621 b 714 731 813 707 775 731 b 440 525 579 731 440 626 b 454 479 440 511 444 500 z m 460 471 b 506 415 468 458 482 443 b 564 317 557 358 564 346 b 433 135 564 250 514 182 b 400 175 422 150 419 153 b 332 301 350 233 332 268 b 460 471 332 363 374 418 z "},"¤":{"ha":926,"x_min":0,"x_max":0,"o":"m 299 153 l 317 133 l 438 254 b 640 176 497 203 564 176 b 844 254 717 176 783 203 l 967 133 l 986 153 l 864 274 b 942 476 915 332 942 400 b 864 678 942 551 917 618 l 986 799 l 967 818 l 844 699 b 639 779 788 751 717 779 b 433 699 561 779 493 753 l 313 818 l 293 799 l 415 678 b 338 476 363 617 338 553 b 415 274 338 401 363 336 z m 636 753 b 913 476 790 753 913 631 b 639 203 913 325 790 203 b 367 478 489 203 367 326 b 636 753 367 628 489 753 z "},"'":{"ha":208,"x_min":0,"x_max":0,"o":"m 408 582 l 656 888 l 610 924 l 376 607 z "},"“":{"ha":858,"x_min":0,"x_max":0,"o":"m 947 953 b 749 775 833 918 749 842 b 783 738 749 754 764 738 b 842 801 814 738 842 768 b 806 843 842 824 828 839 b 950 946 832 881 878 913 z m 756 953 b 556 775 642 918 556 842 b 590 738 556 754 571 738 b 649 801 621 738 649 768 b 613 843 649 824 635 839 b 758 946 640 881 686 913 z "},"«":{"ha":389,"x_min":0,"x_max":0,"o":"m 250 406 b 60 213 224 325 153 254 b 71 146 68 186 71 172 b 46 28 71 104 64 71 b 114 214 86 65 115 142 b 257 404 174 251 239 339 z m 336 404 b 154 224 308 331 238 260 b 161 163 160 197 161 183 b 128 26 161 115 153 78 b 204 218 174 67 204 144 b 343 401 265 264 322 340 z "},"‹":{"ha":350,"x_min":0,"x_max":0,"o":"m 297 406 b 107 213 271 325 200 254 b 118 146 115 186 118 172 b 93 28 118 104 111 71 b 161 214 133 65 163 142 b 304 404 221 251 286 339 z "},"›":{"ha":304,"x_min":0,"x_max":0,"o":"m 54 28 b 235 211 89 111 144 167 b 228 274 229 239 228 253 b 257 410 228 319 236 356 b 182 215 211 368 182 292 b 46 28 121 169 65 92 z "},"ﬁ":{"ha":624,"x_min":0,"x_max":0,"o":"m 13 167 b 150 285 72 219 118 258 b 158 247 150 276 154 258 l -149 -112 b -246 -287 -218 -194 -246 -244 b -190 -347 -246 -322 -222 -347 b 50 -150 -132 -347 -44 -276 b 203 171 138 -32 186 69 b 278 125 228 138 249 125 b 339 156 300 125 311 131 b 521 311 419 228 485 283 l 428 196 b 346 38 365 118 346 81 b 388 -3 346 13 363 -3 b 500 51 415 -3 447 13 b 636 167 532 75 532 75 l 622 167 b 393 8 483 43 432 8 b 379 19 386 8 379 14 b 426 88 379 29 379 29 l 663 372 l 572 372 b 454 271 510 318 482 294 b 331 161 385 208 343 171 b 278 135 310 142 296 135 b 204 188 247 135 225 150 l 283 285 b 343 360 303 310 322 335 l 383 410 b 453 457 406 425 406 425 b 660 608 578 542 578 542 b 826 821 785 708 826 761 b 781 882 826 854 806 882 b 657 817 753 882 703 856 b 410 561 592 763 472 639 b 279 400 361 500 319 450 b 226 361 246 376 240 372 b 189 331 214 351 203 342 b 172 343 185 339 181 343 b 149 314 158 343 149 331 l 149 297 b 0 167 114 268 67 226 z m 517 590 b 778 871 644 764 744 871 b 793 847 786 871 793 861 b 403 436 793 757 613 567 z m 174 265 b 179 292 174 279 175 283 l 185 306 l 189 318 b 267 379 229 351 239 360 z m 192 169 b 67 -108 181 89 138 -7 b -178 -332 -28 -242 -126 -332 b -193 -321 -187 -332 -193 -328 b -131 -225 -193 -310 -168 -272 z m 797 635 b 744 582 769 635 744 610 b 781 546 744 563 761 546 b 833 601 807 546 833 574 b 797 635 833 619 817 635 z "},"ﬂ":{"ha":633,"x_min":0,"x_max":0,"o":"m 13 167 b 150 285 72 219 118 258 b 158 247 150 276 154 258 l -149 -112 b -246 -287 -218 -194 -246 -244 b -190 -347 -246 -322 -222 -347 b 50 -150 -132 -347 -44 -276 b 203 171 138 -32 186 69 b 278 125 228 138 249 125 b 339 156 300 125 311 131 b 522 311 431 236 458 261 l 407 168 b 350 47 367 118 350 82 b 392 -3 350 18 368 -3 b 519 60 419 -3 465 19 b 646 167 546 79 546 79 l 633 167 b 406 11 517 64 440 11 b 394 21 399 11 394 15 b 458 118 394 33 418 71 l 692 397 b 1019 649 889 535 922 560 b 1154 843 1114 733 1154 790 b 1119 892 1154 871 1140 892 b 857 686 1075 892 982 818 b 553 346 733 553 624 431 b 350 178 451 267 431 249 b 278 135 307 139 300 135 b 204 188 247 135 225 150 l 283 285 b 343 360 303 310 322 335 l 383 410 b 453 457 406 425 406 425 b 660 608 578 542 578 542 b 826 821 785 708 826 761 b 781 882 826 854 806 882 b 657 817 753 882 703 856 b 410 561 592 763 472 639 b 279 400 361 500 319 450 b 226 361 246 376 240 372 b 189 331 214 351 203 342 b 172 343 185 339 181 343 b 149 314 158 343 149 331 l 149 297 b 0 167 114 268 67 226 z m 517 590 b 778 871 644 764 744 871 b 793 847 786 871 793 861 b 403 436 793 757 613 567 z m 174 265 b 179 292 174 279 175 283 l 185 306 l 189 318 b 267 379 229 351 239 360 z m 192 169 b 67 -108 181 89 138 -7 b -178 -332 -28 -242 -126 -332 b -193 -321 -187 -332 -193 -328 b -131 -225 -193 -310 -168 -272 z m 722 432 b 1117 882 924 704 1081 882 b 1133 863 1126 882 1133 874 b 722 432 1133 768 975 603 z "},"–":{"ha":601,"x_min":0,"x_max":0,"o":"m 60 218 l 557 218 l 574 258 l 78 258 z "},"†":{"ha":601,"x_min":0,"x_max":0,"o":"m 615 640 b 707 743 646 682 664 701 b 829 899 807 836 829 865 b 796 924 829 914 817 924 b 678 789 753 924 731 897 b 593 639 643 719 633 700 b 532 647 568 639 551 642 b 425 674 454 671 443 674 b 368 621 392 674 368 651 b 399 586 368 600 381 586 b 439 593 410 586 424 589 b 579 621 508 614 521 617 b 460 475 511 532 507 525 b 303 282 350 361 349 360 b 157 51 231 154 225 147 l 96 -32 l 25 -133 b -36 -218 6 -161 -15 -190 l -10 -218 b 361 261 174 40 214 93 b 500 449 443 354 461 379 l 547 539 b 560 558 556 553 551 546 b 601 621 575 583 582 594 b 686 608 636 619 656 617 b 796 585 763 588 775 585 b 844 642 822 585 844 610 b 811 675 844 661 831 675 b 742 660 799 675 786 672 b 629 640 686 646 658 640 z "},"‡":{"ha":601,"x_min":0,"x_max":0,"o":"m 500 450 b 579 535 535 493 547 506 b 624 621 597 576 603 588 b 746 599 665 621 688 618 b 811 583 786 586 796 583 b 867 644 843 583 867 610 b 829 676 867 663 851 676 b 764 661 817 676 804 674 b 638 639 714 646 678 640 b 729 743 663 675 685 700 b 851 897 831 839 851 865 b 821 922 851 914 840 922 b 700 789 775 922 751 897 b 615 639 665 717 657 703 b 515 658 571 640 558 643 b 447 675 481 671 463 675 b 389 619 414 675 389 651 b 417 586 389 599 399 586 b 463 594 428 586 444 589 b 593 621 514 610 568 621 l 601 621 b 524 540 560 571 554 565 b 476 450 511 507 510 503 b 379 471 436 451 431 453 b 307 486 349 481 324 486 b 250 432 274 486 250 464 b 278 397 250 410 261 397 b 324 406 289 397 306 400 b 451 432 375 421 428 432 l 463 432 b 438 397 454 422 446 411 b 368 315 407 357 403 353 b 222 131 279 222 275 217 b -18 -218 150 11 111 -46 l 10 -218 b 268 111 125 -57 185 19 b 393 279 335 185 358 215 b 443 369 410 310 426 340 b 486 432 458 396 465 406 b 607 410 526 432 550 428 b 671 396 643 399 653 396 b 729 454 706 396 729 419 b 693 488 729 474 715 488 b 626 472 681 488 671 485 b 515 450 581 458 539 450 z "},"·":{"ha":190,"x_min":0,"x_max":0,"o":"m 106 225 b 46 169 75 225 46 197 b 85 138 46 151 63 138 b 144 193 115 138 144 164 b 106 225 144 211 128 225 z "},"¶":{"ha":1065,"x_min":0,"x_max":0,"o":"m 1411 896 b 1107 926 1272 919 1206 926 b 661 836 929 926 782 896 b 439 546 525 767 439 656 b 607 407 439 460 504 407 b 658 414 622 407 633 408 b 394 125 517 231 497 208 b 93 -15 281 32 179 -15 b -37 71 31 -15 -17 17 b -11 67 -26 68 -18 67 b 31 107 11 67 31 86 b -14 149 31 131 11 149 b -74 89 -47 149 -74 122 b 183 -46 -74 13 38 -46 b 619 97 332 -46 482 3 b 907 414 736 176 782 228 b 1378 876 1121 735 1214 826 l 1401 874 z m 1343 890 b 856 465 1172 825 1024 694 b 278 -29 599 108 504 26 b 761 442 494 86 547 138 b 1221 897 947 714 1046 811 z "},"•":{"ha":926,"x_min":0,"x_max":0,"o":"m 468 663 b 272 469 358 663 272 578 b 465 278 272 364 360 278 b 657 471 571 278 657 364 b 468 663 657 575 571 663 z "},"‚":{"ha":203,"x_min":0,"x_max":0,"o":"m -87 -122 b 111 50 22 -82 111 -6 b 76 86 111 71 96 86 b 17 24 47 86 17 54 b 53 -12 17 3 29 -10 b -92 -114 26 -50 -28 -87 z "},"„":{"ha":394,"x_min":0,"x_max":0,"o":"m -90 -129 b 110 49 24 -94 110 -18 b 75 86 110 69 94 86 b 17 22 44 86 17 56 b 53 -19 17 0 31 -15 b -93 -121 25 -57 -21 -89 z m 103 -129 b 301 49 217 -94 301 -18 b 267 86 301 69 286 86 b 208 22 236 86 208 56 b 244 -19 208 0 222 -15 b 100 -121 218 -57 172 -89 z "},"”":{"ha":858,"x_min":0,"x_max":0,"o":"m 558 738 b 758 915 674 772 758 849 b 724 953 758 936 743 953 b 665 889 693 953 665 922 b 701 849 665 867 679 851 b 556 746 674 811 628 778 z m 751 738 b 950 915 865 772 950 849 b 915 953 950 936 935 953 b 857 889 885 953 857 922 b 893 849 857 867 871 851 b 749 746 867 811 821 778 z "},"»":{"ha":386,"x_min":0,"x_max":0,"o":"m 54 28 b 235 211 89 111 144 167 b 228 274 229 239 228 253 b 257 410 228 319 236 356 b 182 215 211 368 182 292 b 46 28 121 169 65 92 z m 139 28 b 328 222 169 110 235 178 b 317 293 319 254 317 269 b 339 407 317 329 322 356 b 272 221 299 369 271 294 b 132 28 208 175 149 94 z "},"…":{"ha":572,"x_min":0,"x_max":0,"o":"m 60 86 b 0 31 29 86 0 58 b 39 -1 0 13 17 -1 b 99 54 69 -1 99 25 b 60 86 99 72 82 86 z m 250 86 b 190 31 219 86 190 58 b 229 -1 190 13 207 -1 b 289 54 260 -1 289 25 b 250 86 289 72 272 86 z m 442 86 b 382 31 411 86 382 58 b 421 -1 382 13 399 -1 b 481 54 451 -1 481 25 b 442 86 481 72 464 86 z "},"‰":{"ha":986,"x_min":0,"x_max":0,"o":"m 556 669 b 422 596 522 669 475 643 b 308 424 347 528 308 469 b 339 379 308 396 319 379 b 472 446 367 379 424 407 b 592 629 543 503 592 576 b 556 669 592 654 578 669 z m 553 661 b 572 649 567 661 572 657 b 449 481 572 629 529 572 b 339 388 382 407 360 388 b 322 410 329 388 322 396 b 553 661 322 496 475 661 z m 707 575 l 203 31 b 186 8 188 14 186 13 b 213 -3 186 3 200 -3 b 290 60 236 -3 239 0 l 717 567 z m 643 290 b 508 217 610 290 563 264 b 394 44 433 149 394 90 b 425 0 394 17 406 0 b 560 67 454 0 510 28 b 679 250 631 124 679 197 b 643 290 679 275 665 290 z m 640 282 b 660 269 654 282 660 278 b 535 101 660 250 617 192 b 425 8 469 28 446 8 b 408 31 415 8 408 17 b 640 282 408 117 561 282 z m 921 290 b 788 217 888 290 840 264 b 674 44 713 149 674 90 b 704 0 674 17 685 0 b 838 67 732 0 789 28 b 957 250 908 124 957 197 b 921 290 957 275 943 290 z m 918 282 b 938 269 932 282 938 278 b 814 101 938 250 894 193 b 704 8 747 28 725 8 b 688 31 694 8 688 17 b 918 282 688 117 840 282 z "},"¿":{"ha":538,"x_min":0,"x_max":0,"o":"m 240 332 b 392 446 276 396 343 446 b 415 424 406 446 415 436 b 293 321 415 390 364 347 b 129 253 160 271 160 271 b 46 117 79 222 46 168 b 164 -1 46 49 96 -1 b 325 58 219 -1 278 21 b 408 192 374 97 408 153 b 356 238 408 217 383 238 b 204 167 303 238 240 208 b 149 33 171 131 154 88 l 157 33 b 210 131 165 71 179 97 b 360 225 261 188 319 225 b 399 189 383 225 399 210 b 357 104 399 167 385 138 b 164 7 307 43 236 7 b 90 64 119 7 90 29 b 250 271 90 131 157 217 b 369 347 336 319 336 321 b 426 426 407 376 426 404 b 396 454 426 442 413 454 b 235 336 342 454 274 404 z m 440 557 b 389 503 414 557 389 531 b 422 472 389 486 403 472 b 474 524 449 472 474 497 b 440 557 474 543 460 557 z "},"`":{"ha":694,"x_min":0,"x_max":0,"o":"m 413 513 b 614 408 460 458 533 419 l 615 418 b 449 538 553 425 497 464 z "},"´":{"ha":694,"x_min":0,"x_max":0,"o":"m 569 529 b 426 410 539 468 492 428 b 601 504 500 410 561 442 z "},"ˆ":{"ha":694,"x_min":0,"x_max":0,"o":"m 318 424 b 378 418 342 419 357 418 b 560 468 443 418 496 432 b 675 433 607 442 636 433 b 710 439 689 433 696 435 b 550 532 644 446 599 472 b 356 431 488 463 428 431 b 321 435 343 431 336 432 z "},"˜":{"ha":694,"x_min":0,"x_max":0,"o":"m 335 460 b 397 481 356 474 374 481 b 497 460 418 481 450 474 b 583 443 543 446 560 443 b 699 492 629 443 661 457 b 614 478 667 481 646 478 b 517 490 592 478 556 482 b 426 503 468 500 453 503 b 328 465 383 503 356 493 z "},"¯":{"ha":694,"x_min":0,"x_max":0,"o":"m 385 474 l 378 458 l 699 458 l 706 474 z "},"˘":{"ha":694,"x_min":0,"x_max":0,"o":"m 426 526 b 475 418 429 444 442 418 b 692 526 519 418 582 450 l 681 526 b 501 447 599 475 538 447 b 442 526 467 447 446 474 z "},"˙":{"ha":694,"x_min":0,"x_max":0,"o":"m 526 518 b 474 465 499 518 474 492 b 508 432 474 446 489 432 b 560 482 535 432 560 457 b 526 518 560 503 546 518 z "},"¨":{"ha":694,"x_min":0,"x_max":0,"o":"m 450 518 b 397 465 422 518 397 492 b 432 432 397 446 413 432 b 483 482 458 432 483 457 b 450 518 483 503 469 518 z m 597 518 b 544 465 569 518 544 493 b 579 432 544 446 558 432 b 631 485 607 432 631 457 b 597 518 631 504 617 518 z "},"˚":{"ha":694,"x_min":0,"x_max":0,"o":"m 515 553 b 435 471 469 553 435 518 b 514 393 435 428 469 393 b 592 474 557 393 592 429 b 515 553 592 518 558 553 z m 513 538 b 575 474 549 538 575 510 b 514 411 575 440 547 411 b 451 474 479 411 451 439 b 513 538 451 508 479 538 z "},"¸":{"ha":694,"x_min":0,"x_max":0,"o":"m 94 -233 b 260 -67 192 -192 260 -122 b 225 -28 260 -43 246 -28 b 168 -92 194 -28 168 -58 b 206 -133 168 -114 181 -128 b 89 -225 183 -164 138 -200 z "},"˝":{"ha":694,"x_min":0,"x_max":0,"o":"m 514 529 b 371 410 483 468 436 428 b 546 504 444 410 506 442 z m 625 529 b 482 410 594 468 547 428 b 657 504 556 410 617 442 z "},"˛":{"ha":694,"x_min":0,"x_max":0,"o":"m 206 -15 b 83 -122 118 -56 83 -86 b 153 -176 83 -153 114 -176 b 242 -133 183 -176 206 -165 l 231 -133 b 163 -168 206 -157 185 -168 b 114 -121 135 -168 114 -147 b 240 -10 114 -83 147 -54 z "},"ˇ":{"ha":694,"x_min":0,"x_max":0,"o":"m 710 526 b 650 532 688 531 672 532 b 468 481 585 532 532 517 b 353 515 422 507 392 515 b 318 510 339 515 333 514 b 478 418 385 504 429 478 b 672 519 540 488 600 519 b 708 515 685 519 693 518 z "},"—":{"ha":833,"x_min":0,"x_max":0,"o":"m 60 218 l 788 218 l 806 258 l 78 258 z "},"Æ":{"ha":1572,"x_min":0,"x_max":0,"o":"m 739 -6 b 760 21 747 4 750 7 l 772 38 l 779 47 b 944 101 842 54 889 69 b 1150 -6 1000 24 1057 -6 b 1433 113 1253 -6 1347 33 b 1575 376 1522 193 1575 292 b 1456 488 1575 443 1526 488 b 1221 393 1378 488 1292 453 b 1111 179 1151 333 1111 257 b 1179 100 1111 133 1140 100 b 1386 218 1239 100 1324 149 b 1489 415 1436 275 1468 335 l 1479 417 b 1406 258 1461 351 1440 306 b 1182 111 1346 178 1244 111 b 1146 144 1163 111 1146 125 b 1283 342 1146 181 1208 269 b 1486 468 1368 422 1442 468 b 1564 378 1531 468 1564 429 b 1428 119 1564 297 1510 193 b 1150 4 1347 47 1244 4 b 996 147 1057 4 996 61 b 1156 450 996 238 1039 319 b 1333 589 1226 529 1281 572 b 1421 547 1365 560 1390 547 b 1471 579 1449 547 1471 561 b 1400 611 1471 599 1444 611 b 1350 608 1386 611 1375 611 b 1347 621 1347 614 1347 618 b 1446 774 1347 656 1378 701 b 1688 944 1558 889 1638 944 b 1728 899 1711 944 1728 926 b 1626 685 1728 839 1690 758 l 1632 678 b 1749 885 1708 744 1749 817 b 1661 965 1749 935 1717 965 b 1449 889 1594 965 1522 940 b 1306 683 1356 826 1306 754 b 1321 604 1306 658 1310 640 b 1160 561 1269 593 1208 578 b 1439 942 1193 619 1275 732 b 947 572 1333 932 1204 835 l 790 406 l 778 393 b 761 508 775 449 771 474 b 542 696 725 621 638 696 b 361 469 439 696 361 597 b 486 142 361 350 404 238 b 156 6 349 53 233 6 b 76 61 113 6 76 31 b 97 79 76 71 86 79 b 110 78 100 79 104 79 l 121 78 b 175 126 151 78 175 99 b 126 172 175 153 154 172 b 49 89 85 172 49 133 b 156 -4 49 33 92 -4 b 497 132 240 -4 347 39 b 649 51 543 92 594 64 b 626 21 642 40 638 35 b 613 3 622 15 617 10 l 606 -6 z m 499 151 b 401 408 435 221 401 310 b 578 657 401 547 479 657 b 742 528 649 657 711 607 b 765 381 758 486 764 449 b 499 151 686 299 564 194 z m 508 142 b 642 247 565 183 621 226 b 764 357 710 310 751 346 b 660 65 756 242 719 142 b 508 142 607 72 544 103 z m 728 150 b 778 371 756 215 767 268 b 1406 924 1128 753 1297 903 b 728 150 1125 628 1039 529 z m 790 61 b 808 85 796 69 801 76 b 860 153 825 108 842 132 b 907 211 875 172 892 193 b 938 113 914 169 922 140 b 790 61 893 83 836 63 z m 1354 593 b 1403 599 1374 597 1385 599 b 1457 579 1436 599 1457 592 b 1422 558 1457 568 1442 558 b 1354 593 1396 558 1372 569 z "},"ª":{"ha":763,"x_min":0,"x_max":0,"o":"m 490 694 b 518 718 500 703 508 711 b 478 615 489 674 478 644 b 518 569 478 589 494 569 b 654 649 551 569 589 592 b 643 604 646 626 643 617 b 674 571 643 585 656 571 b 858 701 703 571 761 613 l 839 701 l 796 664 b 767 639 781 651 771 643 b 685 589 739 615 694 589 b 678 594 681 589 678 592 b 699 624 678 597 688 613 l 886 847 l 808 847 l 769 799 l 771 817 b 735 849 771 835 756 849 b 471 694 671 849 589 801 z m 738 833 b 756 815 750 833 756 828 b 669 685 756 785 726 742 b 522 585 604 621 551 585 b 508 594 514 585 508 589 b 604 726 508 610 543 657 b 738 833 669 799 713 833 z "},"Ł":{"ha":1007,"x_min":0,"x_max":0,"o":"m 1007 167 b 768 57 906 79 856 57 b 557 88 693 57 632 67 l 588 113 b 754 265 693 197 706 208 l 904 300 l 901 314 l 768 283 b 838 390 796 318 813 346 b 1033 513 911 425 967 460 b 1282 849 1190 635 1282 758 b 1233 914 1282 885 1261 914 b 1022 783 1194 914 1135 876 b 611 882 894 851 764 882 b 246 788 464 882 339 850 b 122 572 171 736 122 651 b 238 385 122 494 168 421 b 510 326 308 347 407 326 b 675 344 563 326 599 331 b 624 250 647 292 638 274 l 463 213 l 465 199 l 614 233 b 501 96 572 165 542 128 b 308 113 428 108 375 113 b 74 40 169 113 74 83 b 231 -14 74 10 140 -14 b 442 28 303 -14 350 -4 b 651 -14 506 1 581 -14 b 1019 167 781 -14 856 22 z m 1011 776 b 682 357 833 604 757 507 b 506 335 599 340 558 335 b 244 393 408 335 313 357 b 160 528 190 422 160 472 b 279 743 160 604 200 676 b 640 869 383 829 497 869 b 1011 776 772 869 899 838 z m 414 36 b 228 -3 363 11 299 -3 b 86 43 147 -3 86 17 b 181 85 86 67 128 85 b 414 36 253 85 324 69 z m 1150 683 b 1063 760 1108 724 1099 732 b 1233 906 1144 858 1199 906 b 1264 872 1250 906 1264 890 b 1114 601 1264 817 1192 686 b 847 408 1036 518 932 443 l 864 438 b 969 629 897 500 932 564 b 1056 750 1001 681 1017 700 b 1143 676 1081 733 1114 706 z "},"Ø":{"ha":972,"x_min":0,"x_max":0,"o":"m 1353 722 l 1346 732 l 1092 600 b 1097 629 1093 611 1094 617 b 1204 801 1169 676 1204 731 b 1035 953 1204 890 1135 953 b 596 774 928 953 750 879 b 242 215 371 618 242 413 b 246 158 242 194 243 181 l 19 40 l 24 29 l 249 146 b 458 -26 274 38 351 -26 b 861 190 582 -26 719 47 b 1089 585 986 315 1061 446 z m 1079 579 b 856 199 1053 451 978 325 b 460 -18 718 58 581 -18 b 317 131 371 -18 317 38 b 321 185 317 147 318 160 l 453 253 b 443 181 446 224 443 204 b 507 96 443 129 468 96 b 917 494 614 96 822 299 z m 904 489 b 511 107 810 301 610 107 b 471 147 490 107 471 126 b 532 294 471 176 488 217 z m 324 199 b 521 578 350 325 407 433 b 1029 943 721 829 879 943 b 1172 831 1115 943 1172 899 b 1094 676 1172 774 1146 719 b 967 775 1078 743 1036 775 b 851 743 929 775 903 768 b 1019 882 856 814 926 871 l 1019 890 b 840 738 917 879 843 815 b 457 268 665 642 513 456 z m 543 314 b 843 708 614 433 794 671 b 992 601 867 639 919 601 b 1085 622 1024 601 1056 608 l 1082 594 l 924 513 l 935 535 l 926 538 b 913 507 919 519 918 518 z m 1086 667 b 972 615 1053 633 1014 615 b 851 718 914 615 863 658 b 968 764 900 753 928 764 b 1086 667 1035 764 1072 733 z "},"Œ":{"ha":1261,"x_min":0,"x_max":0,"o":"m 1163 428 b 1068 243 1142 351 1117 304 b 864 115 1003 163 926 115 b 826 147 842 115 826 129 b 972 353 826 190 882 269 b 1169 481 1071 446 1125 481 b 1249 383 1215 481 1249 439 b 1131 150 1249 311 1207 228 b 843 11 1042 60 942 11 b 729 46 796 11 756 24 b 679 161 701 71 679 121 b 835 458 679 239 739 353 b 1017 593 899 529 951 568 b 1101 557 1043 569 1071 557 b 1151 586 1131 557 1151 569 b 1074 617 1151 607 1126 617 b 1026 614 1058 617 1049 617 b 1024 626 1024 621 1024 624 b 1169 819 1024 664 1081 739 b 1401 960 1271 911 1351 960 b 1458 913 1435 960 1458 939 b 1326 669 1458 854 1410 764 l 1332 664 b 1483 890 1429 747 1483 829 b 1388 974 1483 939 1444 974 b 1125 889 1313 974 1206 939 b 983 688 1031 831 983 764 b 1003 611 983 660 988 643 b 868 576 936 599 900 590 b 878 657 874 603 876 631 b 981 828 940 693 981 758 b 814 969 981 908 910 969 b 422 818 718 969 561 910 b 46 239 183 664 46 451 b 261 0 46 104 139 0 b 607 172 365 0 447 40 b 651 82 624 126 635 106 b 835 0 689 31 757 0 b 1107 114 929 0 1024 39 b 1258 386 1201 197 1258 300 b 1140 500 1258 456 1213 500 b 797 192 963 500 797 351 b 865 107 797 139 824 107 b 1049 207 921 107 992 146 b 1171 426 1113 275 1149 340 z m 711 564 b 538 292 675 468 621 385 b 314 138 453 199 364 138 b 275 181 293 138 275 158 b 422 469 275 224 338 346 b 626 729 507 593 579 685 b 772 626 656 661 704 626 b 867 650 804 626 826 632 b 854 572 864 615 860 590 b 724 490 790 540 757 521 b 600 235 647 422 600 324 b 606 186 600 221 601 210 b 272 11 475 68 368 11 b 122 158 183 11 122 71 b 339 635 122 289 204 469 b 815 960 504 836 683 960 b 943 846 896 960 943 918 b 875 700 943 788 919 738 b 753 801 857 767 815 801 b 635 765 715 801 681 790 b 783 911 644 833 703 892 l 781 919 b 624 760 692 897 632 836 b 375 528 514 692 447 629 b 243 213 290 408 243 297 b 304 126 243 158 265 126 b 542 286 364 126 447 182 b 719 563 628 379 675 453 z m 635 738 b 760 788 672 771 714 788 b 865 690 815 788 849 757 b 753 646 832 661 793 646 b 635 738 699 646 653 681 z m 1032 597 b 1093 604 1058 603 1075 604 b 1140 588 1122 604 1140 597 b 1103 567 1140 576 1122 567 b 1032 597 1074 567 1053 575 z "},"º":{"ha":700,"x_min":0,"x_max":0,"o":"m 500 694 b 544 732 521 713 536 725 b 489 618 504 681 489 650 b 532 572 489 590 507 572 b 690 678 569 572 629 611 b 725 660 704 664 713 660 b 781 690 743 660 751 664 b 793 701 785 693 789 697 l 774 701 l 768 697 b 725 674 749 678 739 674 b 700 689 715 674 707 679 b 771 811 750 747 771 782 b 732 846 771 831 754 846 b 582 779 697 846 643 821 b 481 694 554 758 554 758 z m 742 771 b 729 772 736 772 732 772 b 681 713 704 772 681 743 b 683 689 681 707 682 699 b 532 586 626 626 568 586 b 519 596 525 586 519 590 b 576 678 519 604 535 626 b 735 832 671 793 710 832 b 757 810 746 832 757 822 b 742 771 757 799 751 785 z "},"æ":{"ha":560,"x_min":0,"x_max":0,"o":"m 14 167 b 85 226 63 210 67 214 b 21 56 35 135 21 97 b 68 -10 21 18 40 -10 b 236 93 110 -10 161 21 b 229 46 231 71 229 58 b 286 -10 229 13 251 -10 b 432 50 326 -10 375 10 b 574 167 468 75 483 86 l 560 167 b 450 75 493 107 476 93 b 290 3 386 28 331 3 b 261 24 274 3 261 11 b 304 101 261 39 272 58 b 567 328 474 172 567 253 b 533 369 567 354 554 369 b 500 363 522 369 515 368 l 529 414 l 428 401 l 379 319 b 383 347 382 331 383 338 b 340 393 383 375 365 393 b 78 240 274 393 183 340 b 0 167 35 200 10 175 z m 343 381 b 371 349 360 381 371 368 b 249 135 371 310 326 231 b 76 3 185 56 115 3 b 56 24 65 3 56 13 b 193 247 56 51 118 153 b 343 381 260 332 314 381 z m 317 118 b 333 138 325 129 332 136 b 472 311 444 281 444 281 b 536 358 500 342 524 358 b 547 347 542 358 547 353 b 492 243 547 329 519 278 b 317 118 447 189 396 153 z "},"ı":{"ha":285,"x_min":0,"x_max":0,"o":"m 14 167 b 182 311 96 240 143 281 l 89 196 b 8 39 29 122 8 81 b 50 -3 8 14 25 -3 b 278 150 94 -3 139 26 l 297 167 l 285 167 b 56 8 146 44 93 8 b 42 19 49 8 42 14 b 88 88 42 28 53 44 l 324 372 l 233 372 b 0 167 181 326 103 258 z "},"ł":{"ha":294,"x_min":0,"x_max":0,"o":"m 14 167 b 169 299 101 243 117 257 l 176 300 l 68 168 b 11 47 28 118 11 82 b 53 -3 11 18 29 -3 b 181 60 81 -3 128 21 b 308 167 210 81 210 81 l 294 167 b 67 11 179 64 101 11 b 56 21 60 11 56 15 b 119 118 56 33 79 69 l 294 328 l 438 360 l 435 374 l 310 344 l 353 397 b 681 649 547 533 582 560 b 815 843 775 733 815 790 b 781 892 815 871 801 892 b 518 685 735 892 643 819 b 214 346 392 550 288 433 b 174 314 201 335 188 325 l 32 282 l 35 268 l 150 294 b 0 167 104 258 64 224 z m 383 431 b 778 882 589 707 742 882 b 794 863 788 882 794 874 b 383 431 794 768 635 601 z "},"ø":{"ha":396,"x_min":0,"x_max":0,"o":"m 13 167 b 103 240 64 213 81 226 b 3 60 26 149 8 115 l -92 -3 l -85 -12 l 3 46 b 60 -3 10 11 26 -3 b 279 146 111 -3 194 54 b 325 119 293 128 308 119 b 400 160 350 119 361 125 l 408 167 l 396 167 l 389 161 b 326 129 361 136 347 129 b 286 154 310 129 297 136 b 382 300 342 218 369 261 l 464 356 l 457 365 l 385 317 b 336 368 385 349 367 368 b 131 275 289 368 215 335 b 0 167 93 249 82 240 z m 369 292 b 353 263 364 279 361 274 b 329 264 344 264 342 264 z m 283 233 b 269 182 272 213 269 201 b 274 154 269 171 271 164 b 57 7 192 63 110 7 b 35 25 43 7 35 14 b 81 97 35 36 43 50 z m 106 129 b 340 358 240 297 303 358 b 376 324 360 358 376 342 b 375 310 376 321 376 315 z "},"œ":{"ha":540,"x_min":0,"x_max":0,"o":"m 14 167 l 63 211 l 75 221 l 68 206 b 17 53 21 104 17 92 b 64 -10 17 15 36 -10 b 221 97 111 -10 175 33 b 215 50 217 74 215 63 b 267 -10 215 13 233 -10 b 406 44 306 -10 351 8 b 553 167 436 65 436 65 l 540 167 b 429 74 479 113 454 92 b 271 3 367 26 314 3 b 246 21 256 3 246 10 b 292 103 246 35 257 54 b 543 339 451 171 543 257 b 513 381 543 365 532 381 b 349 290 478 381 438 358 b 356 338 354 308 356 321 b 313 392 356 371 339 392 b 125 285 264 392 208 360 b 0 167 125 285 83 244 z m 311 379 b 342 344 329 379 342 364 b 242 144 342 308 303 231 b 74 3 175 53 117 3 b 56 19 63 3 56 8 b 135 172 56 38 83 92 b 311 379 224 310 282 379 z m 301 117 b 511 369 415 289 483 369 b 521 358 517 369 521 365 b 460 238 521 335 494 282 b 301 117 417 183 372 150 z "},"ß":{"ha":643,"x_min":0,"x_max":0,"o":"m 0 167 l 14 167 b 108 250 50 200 92 236 b 113 207 110 225 111 217 l -210 -133 b -319 -310 -290 -218 -319 -265 b -264 -368 -319 -343 -296 -368 b -24 -190 -204 -368 -118 -304 b 150 131 89 -56 139 38 b 231 96 176 106 199 96 b 336 160 269 96 290 108 l 542 390 b 533 358 539 379 536 368 b 461 106 489 164 489 164 b 365 1 428 40 393 1 b 335 29 349 1 335 15 b 356 47 335 40 342 46 b 418 101 399 54 418 71 b 383 136 418 122 404 136 b 317 44 349 136 317 93 b 369 -10 317 14 339 -10 b 525 57 414 -10 465 13 b 656 167 557 81 576 96 l 643 167 b 524 75 599 128 576 110 b 576 203 568 139 576 160 b 563 288 576 226 574 247 b 549 369 551 329 549 346 b 569 428 549 392 554 408 b 597 469 594 457 597 463 b 588 479 597 475 593 479 b 543 406 574 479 560 456 l 328 167 b 232 104 282 114 267 104 b 157 142 200 104 178 115 b 343 354 210 196 307 306 b 679 574 457 417 578 496 b 811 744 772 644 811 694 b 764 806 811 779 790 806 b 250 360 688 806 481 626 b 149 286 208 332 165 301 b 131 300 144 296 139 300 b 107 269 117 300 107 288 l 107 265 l 107 261 b 56 217 92 249 81 240 z m 525 571 b 764 796 650 718 732 796 b 779 772 772 796 779 786 b 358 374 779 683 585 500 z m 126 218 b 136 250 128 231 129 235 b 147 275 144 265 144 268 b 238 339 171 294 210 322 z m 142 126 b 36 -97 128 49 106 1 b -254 -354 -71 -247 -192 -354 b -269 -346 -262 -354 -269 -350 b -199 -250 -269 -333 -264 -326 z "},"Ä":{"ha":1121,"x_min":0,"x_max":0,"o":"m 1121 167 b 890 58 1038 92 988 68 b 1250 543 964 149 1029 238 b 1435 797 1313 626 1374 713 b 1554 954 1483 861 1504 889 b 1372 868 1494 950 1458 933 b 1031 554 1246 768 1143 675 b 886 406 931 450 904 422 b 825 607 879 499 863 553 b 650 708 782 669 714 708 b 467 474 544 708 467 608 b 589 147 467 346 504 244 b 200 3 444 49 319 3 b 74 65 132 3 74 32 b 83 75 74 71 78 75 b 90 74 85 75 88 75 b 114 71 97 72 106 71 b 171 121 146 71 171 93 b 124 168 171 147 150 168 b 49 88 85 168 49 129 b 200 -6 49 31 108 -6 b 599 138 324 -6 449 39 b 758 54 657 86 692 68 b 714 0 739 29 736 25 l 844 0 l 883 47 b 1135 167 993 60 1040 82 z m 599 154 b 501 417 536 221 501 313 b 572 617 501 501 524 564 b 681 671 606 653 640 671 b 875 393 793 671 868 564 b 599 154 790 304 679 207 z m 610 144 b 875 375 729 235 740 244 b 765 63 878 289 818 118 b 610 144 704 72 647 101 z m 886 388 b 1526 940 1231 754 1438 933 b 1503 914 1519 932 1511 924 b 1013 363 1299 707 1221 619 b 817 114 903 222 838 139 b 886 388 869 243 882 297 z m 1515 1119 b 1463 1067 1488 1119 1463 1093 b 1497 1033 1463 1047 1478 1033 b 1549 1083 1524 1033 1549 1058 b 1515 1119 1549 1104 1535 1119 z m 1663 1119 b 1610 1067 1635 1119 1610 1094 b 1644 1033 1610 1047 1624 1033 b 1696 1086 1672 1033 1696 1058 b 1663 1119 1696 1106 1682 1119 z "},"Á":{"ha":1121,"x_min":0,"x_max":0,"o":"m 1121 167 b 890 58 1038 92 988 68 b 1250 543 964 149 1029 238 b 1435 797 1313 626 1374 713 b 1554 954 1483 861 1504 889 b 1372 868 1494 950 1458 933 b 1031 554 1246 768 1143 675 b 886 406 931 450 904 422 b 825 607 879 499 863 553 b 650 708 782 669 714 708 b 467 474 544 708 467 608 b 589 147 467 346 504 244 b 200 3 444 49 319 3 b 74 65 132 3 74 32 b 83 75 74 71 78 75 b 90 74 85 75 88 75 b 114 71 97 72 106 71 b 171 121 146 71 171 93 b 124 168 171 147 150 168 b 49 88 85 168 49 129 b 200 -6 49 31 108 -6 b 599 138 324 -6 449 39 b 758 54 657 86 692 68 b 714 0 739 29 736 25 l 844 0 l 883 47 b 1135 167 993 60 1040 82 z m 599 154 b 501 417 536 221 501 313 b 572 617 501 501 524 564 b 681 671 606 653 640 671 b 875 393 793 671 868 564 b 599 154 790 304 679 207 z m 610 144 b 875 375 729 235 740 244 b 765 63 878 289 818 118 b 610 144 704 72 647 101 z m 886 388 b 1526 940 1231 754 1438 933 b 1503 914 1519 932 1511 924 b 1013 363 1299 707 1221 619 b 817 114 903 222 838 139 b 886 388 869 243 882 297 z m 1635 1131 b 1492 1013 1604 1071 1557 1031 b 1667 1106 1565 1011 1626 1044 z "},"À":{"ha":1121,"x_min":0,"x_max":0,"o":"m 1121 167 b 890 58 1038 92 988 68 b 1250 543 964 149 1029 238 b 1435 797 1313 626 1374 713 b 1554 954 1483 861 1504 889 b 1372 868 1494 950 1458 933 b 1031 554 1246 768 1143 675 b 886 406 931 450 904 422 b 825 607 879 499 863 553 b 650 708 782 669 714 708 b 467 474 544 708 467 608 b 589 147 467 346 504 244 b 200 3 444 49 319 3 b 74 65 132 3 74 32 b 83 75 74 71 78 75 b 90 74 85 75 88 75 b 114 71 97 72 106 71 b 171 121 146 71 171 93 b 124 168 171 147 150 168 b 49 88 85 168 49 129 b 200 -6 49 31 108 -6 b 599 138 324 -6 449 39 b 758 54 657 86 692 68 b 714 0 739 29 736 25 l 844 0 l 883 47 b 1135 167 993 60 1040 82 z m 599 154 b 501 417 536 221 501 313 b 572 617 501 501 524 564 b 681 671 606 653 640 671 b 875 393 793 671 868 564 b 599 154 790 304 679 207 z m 610 144 b 875 375 729 235 740 244 b 765 63 878 289 818 118 b 610 144 704 72 647 101 z m 886 388 b 1526 940 1231 754 1438 933 b 1503 914 1519 932 1511 924 b 1013 363 1299 707 1221 619 b 817 114 903 222 838 139 b 886 388 869 243 882 297 z m 1385 1115 b 1586 1011 1432 1060 1506 1021 l 1588 1019 b 1421 1139 1525 1026 1469 1067 z "},"Â":{"ha":1121,"x_min":0,"x_max":0,"o":"m 1121 167 b 890 58 1038 92 988 68 b 1250 543 964 149 1029 238 b 1435 797 1313 626 1374 713 b 1554 954 1483 861 1504 889 b 1372 868 1494 950 1458 933 b 1031 554 1246 768 1143 675 b 886 406 931 450 904 422 b 825 607 879 499 863 553 b 650 708 782 669 714 708 b 467 474 544 708 467 608 b 589 147 467 346 504 244 b 200 3 444 49 319 3 b 74 65 132 3 74 32 b 83 75 74 71 78 75 b 90 74 85 75 88 75 b 114 71 97 72 106 71 b 171 121 146 71 171 93 b 124 168 171 147 150 168 b 49 88 85 168 49 129 b 200 -6 49 31 108 -6 b 599 138 324 -6 449 39 b 758 54 657 86 692 68 b 714 0 739 29 736 25 l 844 0 l 883 47 b 1135 167 993 60 1040 82 z m 599 154 b 501 417 536 221 501 313 b 572 617 501 501 524 564 b 681 671 606 653 640 671 b 875 393 793 671 868 564 b 599 154 790 304 679 207 z m 610 144 b 875 375 729 235 740 244 b 765 63 878 289 818 118 b 610 144 704 72 647 101 z m 886 388 b 1526 940 1231 754 1438 933 b 1503 914 1519 932 1511 924 b 1013 363 1299 707 1221 619 b 817 114 903 222 838 139 b 886 388 869 243 882 297 z m 1338 1025 b 1397 1019 1361 1021 1375 1019 b 1579 1071 1463 1019 1515 1035 b 1694 1036 1626 1044 1656 1036 b 1729 1042 1708 1036 1715 1038 b 1569 1133 1664 1047 1618 1074 b 1376 1032 1507 1064 1447 1032 b 1340 1036 1364 1032 1356 1033 z "},"Ã":{"ha":1121,"x_min":0,"x_max":0,"o":"m 1121 167 b 890 58 1038 92 988 68 b 1250 543 964 149 1029 238 b 1435 797 1313 626 1374 713 b 1554 954 1483 861 1504 889 b 1372 868 1494 950 1458 933 b 1031 554 1246 768 1143 675 b 886 406 931 450 904 422 b 825 607 879 499 863 553 b 650 708 782 669 714 708 b 467 474 544 708 467 608 b 589 147 467 346 504 244 b 200 3 444 49 319 3 b 74 65 132 3 74 32 b 83 75 74 71 78 75 b 90 74 85 75 88 75 b 114 71 97 72 106 71 b 171 121 146 71 171 93 b 124 168 171 147 150 168 b 49 88 85 168 49 129 b 200 -6 49 31 108 -6 b 599 138 324 -6 449 39 b 758 54 657 86 692 68 b 714 0 739 29 736 25 l 844 0 l 883 47 b 1135 167 993 60 1040 82 z m 599 154 b 501 417 536 221 501 313 b 572 617 501 501 524 564 b 681 671 606 653 640 671 b 875 393 793 671 868 564 b 599 154 790 304 679 207 z m 610 144 b 875 375 729 235 740 244 b 765 63 878 289 818 118 b 610 144 704 72 647 101 z m 886 388 b 1526 940 1231 754 1438 933 b 1503 914 1519 932 1511 924 b 1013 363 1299 707 1221 619 b 817 114 903 222 838 139 b 886 388 869 243 882 297 z m 1354 1061 b 1417 1082 1374 1075 1393 1082 b 1517 1061 1438 1082 1469 1075 b 1603 1044 1563 1047 1579 1044 b 1718 1094 1649 1044 1681 1058 b 1633 1079 1686 1083 1665 1079 b 1536 1092 1611 1079 1575 1083 b 1446 1104 1488 1101 1472 1104 b 1347 1067 1403 1104 1375 1094 z "},"Å":{"ha":1121,"x_min":0,"x_max":0,"o":"m 1121 167 b 890 58 1038 92 988 68 b 1250 543 964 149 1029 238 b 1435 797 1313 626 1374 713 b 1554 954 1483 861 1504 889 b 1372 868 1494 950 1458 933 b 1031 554 1246 768 1143 675 b 886 406 931 450 904 422 b 825 607 879 499 863 553 b 650 708 782 669 714 708 b 467 474 544 708 467 608 b 589 147 467 346 504 244 b 200 3 444 49 319 3 b 74 65 132 3 74 32 b 83 75 74 71 78 75 b 90 74 85 75 88 75 b 114 71 97 72 106 71 b 171 121 146 71 171 93 b 124 168 171 147 150 168 b 49 88 85 168 49 129 b 200 -6 49 31 108 -6 b 599 138 324 -6 449 39 b 758 54 657 86 692 68 b 714 0 739 29 736 25 l 844 0 l 883 47 b 1135 167 993 60 1040 82 z m 599 154 b 501 417 536 221 501 313 b 572 617 501 501 524 564 b 681 671 606 653 640 671 b 875 393 793 671 868 564 b 599 154 790 304 679 207 z m 610 144 b 875 375 729 235 740 244 b 765 63 878 289 818 118 b 610 144 704 72 647 101 z m 886 388 b 1526 940 1231 754 1438 933 b 1503 914 1519 932 1511 924 b 1013 363 1299 707 1221 619 b 817 114 903 222 838 139 b 886 388 869 243 882 297 z m 1581 1156 b 1500 1074 1535 1156 1500 1121 b 1579 996 1500 1031 1535 996 b 1657 1076 1622 996 1657 1032 b 1581 1156 1657 1121 1624 1156 z m 1578 1140 b 1640 1076 1614 1140 1640 1113 b 1579 1014 1640 1043 1613 1014 b 1517 1076 1544 1014 1517 1042 b 1578 1140 1517 1111 1544 1140 z "},"Ë":{"ha":1013,"x_min":0,"x_max":0,"o":"m 924 397 b 839 235 901 331 876 283 b 608 96 778 156 679 96 b 571 126 588 96 571 110 b 729 336 571 165 643 260 b 935 457 822 417 890 457 b 1013 368 976 457 1013 415 b 890 128 1013 297 965 203 b 588 -10 806 40 696 -10 b 421 135 485 -10 421 46 b 546 392 421 214 453 281 b 1076 614 743 431 939 513 b 1263 867 1204 708 1263 788 b 1167 946 1263 918 1228 946 b 897 868 1082 946 996 921 b 619 915 797 901 714 915 b 93 565 318 915 93 765 b 331 365 93 444 188 365 b 383 368 347 365 360 367 b 343 211 353 300 343 263 b 585 -19 343 75 442 -19 b 896 121 697 -19 807 31 b 1021 367 972 199 1021 296 b 904 474 1021 432 975 474 b 628 357 803 474 694 428 b 542 164 578 303 542 224 b 606 86 542 118 568 86 b 814 193 667 86 753 131 b 929 396 868 250 906 317 z m 769 594 b 388 379 579 567 449 493 b 336 375 367 376 354 375 b 117 531 208 375 117 440 b 654 903 117 719 382 903 b 883 861 729 903 788 892 b 754 667 794 806 754 744 b 769 594 754 640 758 624 z m 1124 722 b 985 831 1075 772 1036 801 b 1179 933 1089 914 1126 933 b 1243 883 1217 933 1243 913 b 983 565 1243 796 1126 654 b 557 404 871 496 689 428 b 779 579 640 500 724 565 b 872 536 814 547 838 536 b 917 564 899 536 917 547 b 829 597 917 586 886 597 b 786 596 821 597 815 597 b 783 607 783 600 783 603 b 974 821 783 643 840 707 b 1115 715 1024 796 1053 775 z m 793 582 b 838 588 806 586 821 588 b 906 564 878 588 906 578 b 871 544 906 553 890 544 b 793 582 842 544 815 557 z m 1183 1119 b 1131 1067 1156 1119 1131 1093 b 1165 1033 1131 1047 1146 1033 b 1217 1083 1192 1033 1217 1058 b 1183 1119 1217 1104 1203 1119 z m 1331 1119 b 1278 1067 1303 1119 1278 1094 b 1313 1033 1278 1047 1292 1033 b 1364 1086 1340 1033 1364 1058 b 1331 1119 1364 1106 1350 1119 z "},"É":{"ha":1013,"x_min":0,"x_max":0,"o":"m 924 397 b 839 235 901 331 876 283 b 608 96 778 156 679 96 b 571 126 588 96 571 110 b 729 336 571 165 643 260 b 935 457 822 417 890 457 b 1013 368 976 457 1013 415 b 890 128 1013 297 965 203 b 588 -10 806 40 696 -10 b 421 135 485 -10 421 46 b 546 392 421 214 453 281 b 1076 614 743 431 939 513 b 1263 867 1204 708 1263 788 b 1167 946 1263 918 1228 946 b 897 868 1082 946 996 921 b 619 915 797 901 714 915 b 93 565 318 915 93 765 b 331 365 93 444 188 365 b 383 368 347 365 360 367 b 343 211 353 300 343 263 b 585 -19 343 75 442 -19 b 896 121 697 -19 807 31 b 1021 367 972 199 1021 296 b 904 474 1021 432 975 474 b 628 357 803 474 694 428 b 542 164 578 303 542 224 b 606 86 542 118 568 86 b 814 193 667 86 753 131 b 929 396 868 250 906 317 z m 769 594 b 388 379 579 567 449 493 b 336 375 367 376 354 375 b 117 531 208 375 117 440 b 654 903 117 719 382 903 b 883 861 729 903 788 892 b 754 667 794 806 754 744 b 769 594 754 640 758 624 z m 1124 722 b 985 831 1075 772 1036 801 b 1179 933 1089 914 1126 933 b 1243 883 1217 933 1243 913 b 983 565 1243 796 1126 654 b 557 404 871 496 689 428 b 779 579 640 500 724 565 b 872 536 814 547 838 536 b 917 564 899 536 917 547 b 829 597 917 586 886 597 b 786 596 821 597 815 597 b 783 607 783 600 783 603 b 974 821 783 643 840 707 b 1115 715 1024 796 1053 775 z m 793 582 b 838 588 806 586 821 588 b 906 564 878 588 906 578 b 871 544 906 553 890 544 b 793 582 842 544 815 557 z m 1303 1131 b 1160 1013 1272 1071 1225 1031 b 1335 1106 1233 1011 1294 1044 z "},"È":{"ha":1013,"x_min":0,"x_max":0,"o":"m 924 397 b 839 235 901 331 876 283 b 608 96 778 156 679 96 b 571 126 588 96 571 110 b 729 336 571 165 643 260 b 935 457 822 417 890 457 b 1013 368 976 457 1013 415 b 890 128 1013 297 965 203 b 588 -10 806 40 696 -10 b 421 135 485 -10 421 46 b 546 392 421 214 453 281 b 1076 614 743 431 939 513 b 1263 867 1204 708 1263 788 b 1167 946 1263 918 1228 946 b 897 868 1082 946 996 921 b 619 915 797 901 714 915 b 93 565 318 915 93 765 b 331 365 93 444 188 365 b 383 368 347 365 360 367 b 343 211 353 300 343 263 b 585 -19 343 75 442 -19 b 896 121 697 -19 807 31 b 1021 367 972 199 1021 296 b 904 474 1021 432 975 474 b 628 357 803 474 694 428 b 542 164 578 303 542 224 b 606 86 542 118 568 86 b 814 193 667 86 753 131 b 929 396 868 250 906 317 z m 769 594 b 388 379 579 567 449 493 b 336 375 367 376 354 375 b 117 531 208 375 117 440 b 654 903 117 719 382 903 b 883 861 729 903 788 892 b 754 667 794 806 754 744 b 769 594 754 640 758 624 z m 1124 722 b 985 831 1075 772 1036 801 b 1179 933 1089 914 1126 933 b 1243 883 1217 933 1243 913 b 983 565 1243 796 1126 654 b 557 404 871 496 689 428 b 779 579 640 500 724 565 b 872 536 814 547 838 536 b 917 564 899 536 917 547 b 829 597 917 586 886 597 b 786 596 821 597 815 597 b 783 607 783 600 783 603 b 974 821 783 643 840 707 b 1115 715 1024 796 1053 775 z m 793 582 b 838 588 806 586 821 588 b 906 564 878 588 906 578 b 871 544 906 553 890 544 b 793 582 842 544 815 557 z m 1053 1115 b 1254 1011 1100 1060 1174 1021 l 1256 1019 b 1089 1139 1193 1026 1138 1067 z "},"Ê":{"ha":1013,"x_min":0,"x_max":0,"o":"m 924 397 b 839 235 901 331 876 283 b 608 96 778 156 679 96 b 571 126 588 96 571 110 b 729 336 571 165 643 260 b 935 457 822 417 890 457 b 1013 368 976 457 1013 415 b 890 128 1013 297 965 203 b 588 -10 806 40 696 -10 b 421 135 485 -10 421 46 b 546 392 421 214 453 281 b 1076 614 743 431 939 513 b 1263 867 1204 708 1263 788 b 1167 946 1263 918 1228 946 b 897 868 1082 946 996 921 b 619 915 797 901 714 915 b 93 565 318 915 93 765 b 331 365 93 444 188 365 b 383 368 347 365 360 367 b 343 211 353 300 343 263 b 585 -19 343 75 442 -19 b 896 121 697 -19 807 31 b 1021 367 972 199 1021 296 b 904 474 1021 432 975 474 b 628 357 803 474 694 428 b 542 164 578 303 542 224 b 606 86 542 118 568 86 b 814 193 667 86 753 131 b 929 396 868 250 906 317 z m 769 594 b 388 379 579 567 449 493 b 336 375 367 376 354 375 b 117 531 208 375 117 440 b 654 903 117 719 382 903 b 883 861 729 903 788 892 b 754 667 794 806 754 744 b 769 594 754 640 758 624 z m 1124 722 b 985 831 1075 772 1036 801 b 1179 933 1089 914 1126 933 b 1243 883 1217 933 1243 913 b 983 565 1243 796 1126 654 b 557 404 871 496 689 428 b 779 579 640 500 724 565 b 872 536 814 547 838 536 b 917 564 899 536 917 547 b 829 597 917 586 886 597 b 786 596 821 597 815 597 b 783 607 783 600 783 603 b 974 821 783 643 840 707 b 1115 715 1024 796 1053 775 z m 793 582 b 838 588 806 586 821 588 b 906 564 878 588 906 578 b 871 544 906 553 890 544 b 793 582 842 544 815 557 z m 978 1025 b 1038 1019 1001 1021 1015 1019 b 1219 1071 1103 1019 1156 1035 b 1335 1036 1267 1044 1296 1036 b 1369 1042 1349 1036 1356 1038 b 1210 1133 1304 1047 1258 1074 b 1017 1032 1147 1064 1088 1032 b 981 1036 1004 1032 996 1033 z "},"Ï":{"ha":865,"x_min":0,"x_max":0,"o":"m 318 106 b 272 276 286 165 272 215 b 810 794 272 531 547 794 b 896 783 835 794 864 790 b 611 481 703 692 611 593 b 657 363 611 433 625 400 b 500 168 579 260 536 206 b 197 4 394 51 307 4 b 74 60 126 4 74 28 b 92 76 74 68 82 76 l 97 76 b 114 74 108 74 108 74 b 172 126 144 74 172 99 b 128 172 172 151 151 172 b 49 88 86 172 49 132 b 204 -6 49 26 103 -6 b 496 79 299 -6 393 22 b 765 315 594 133 663 194 b 878 342 811 318 843 325 b 1046 606 976 386 1046 497 b 1032 688 1046 633 1043 653 b 1254 867 1111 774 1175 825 l 1265 867 b 1310 865 1303 865 1303 865 b 1347 881 1335 865 1347 869 b 1318 896 1347 890 1336 896 b 1256 881 1301 896 1289 893 b 913 790 1147 865 1029 835 b 808 806 878 800 840 806 b 264 269 531 806 264 543 b 311 101 264 210 278 163 z m 1219 864 b 1014 721 1156 824 1074 768 b 947 778 999 744 974 765 b 1219 864 1026 819 1125 850 z m 935 771 b 1004 714 967 756 989 738 b 664 374 828 561 793 526 b 636 439 644 396 636 414 b 935 771 636 535 764 676 z m 1024 675 b 1035 603 1032 647 1035 628 b 775 328 1035 458 913 328 b 1024 675 868 475 979 631 z m 1156 1119 b 1103 1067 1128 1119 1103 1093 b 1138 1033 1103 1047 1118 1033 b 1189 1083 1164 1033 1189 1058 b 1156 1119 1189 1104 1175 1119 z m 1303 1119 b 1250 1067 1275 1119 1250 1094 b 1285 1033 1250 1047 1264 1033 b 1336 1086 1313 1033 1336 1058 b 1303 1119 1336 1106 1322 1119 z "},"Í":{"ha":865,"x_min":0,"x_max":0,"o":"m 318 106 b 272 276 286 165 272 215 b 810 794 272 531 547 794 b 896 783 835 794 864 790 b 611 481 703 692 611 593 b 657 363 611 433 625 400 b 500 168 579 260 536 206 b 197 4 394 51 307 4 b 74 60 126 4 74 28 b 92 76 74 68 82 76 l 97 76 b 114 74 108 74 108 74 b 172 126 144 74 172 99 b 128 172 172 151 151 172 b 49 88 86 172 49 132 b 204 -6 49 26 103 -6 b 496 79 299 -6 393 22 b 765 315 594 133 663 194 b 878 342 811 318 843 325 b 1046 606 976 386 1046 497 b 1032 688 1046 633 1043 653 b 1254 867 1111 774 1175 825 l 1265 867 b 1310 865 1303 865 1303 865 b 1347 881 1335 865 1347 869 b 1318 896 1347 890 1336 896 b 1256 881 1301 896 1289 893 b 913 790 1147 865 1029 835 b 808 806 878 800 840 806 b 264 269 531 806 264 543 b 311 101 264 210 278 163 z m 1219 864 b 1014 721 1156 824 1074 768 b 947 778 999 744 974 765 b 1219 864 1026 819 1125 850 z m 935 771 b 1004 714 967 756 989 738 b 664 374 828 561 793 526 b 636 439 644 396 636 414 b 935 771 636 535 764 676 z m 1024 675 b 1035 603 1032 647 1035 628 b 775 328 1035 458 913 328 b 1024 675 868 475 979 631 z m 1368 1131 b 1225 1013 1338 1071 1290 1031 b 1400 1106 1299 1011 1360 1044 z "},"Ì":{"ha":865,"x_min":0,"x_max":0,"o":"m 318 106 b 272 276 286 165 272 215 b 810 794 272 531 547 794 b 896 783 835 794 864 790 b 611 481 703 692 611 593 b 657 363 611 433 625 400 b 500 168 579 260 536 206 b 197 4 394 51 307 4 b 74 60 126 4 74 28 b 92 76 74 68 82 76 l 97 76 b 114 74 108 74 108 74 b 172 126 144 74 172 99 b 128 172 172 151 151 172 b 49 88 86 172 49 132 b 204 -6 49 26 103 -6 b 496 79 299 -6 393 22 b 765 315 594 133 663 194 b 878 342 811 318 843 325 b 1046 606 976 386 1046 497 b 1032 688 1046 633 1043 653 b 1254 867 1111 774 1175 825 l 1265 867 b 1310 865 1303 865 1303 865 b 1347 881 1335 865 1347 869 b 1318 896 1347 890 1336 896 b 1256 881 1301 896 1289 893 b 913 790 1147 865 1029 835 b 808 806 878 800 840 806 b 264 269 531 806 264 543 b 311 101 264 210 278 163 z m 1219 864 b 1014 721 1156 824 1074 768 b 947 778 999 744 974 765 b 1219 864 1026 819 1125 850 z m 935 771 b 1004 714 967 756 989 738 b 664 374 828 561 793 526 b 636 439 644 396 636 414 b 935 771 636 535 764 676 z m 1024 675 b 1035 603 1032 647 1035 628 b 775 328 1035 458 913 328 b 1024 675 868 475 979 631 z m 1072 1115 b 1274 1011 1119 1060 1193 1021 l 1275 1019 b 1108 1139 1213 1026 1157 1067 z "},"Î":{"ha":865,"x_min":0,"x_max":0,"o":"m 318 106 b 272 276 286 165 272 215 b 810 794 272 531 547 794 b 896 783 835 794 864 790 b 611 481 703 692 611 593 b 657 363 611 433 625 400 b 500 168 579 260 536 206 b 197 4 394 51 307 4 b 74 60 126 4 74 28 b 92 76 74 68 82 76 l 97 76 b 114 74 108 74 108 74 b 172 126 144 74 172 99 b 128 172 172 151 151 172 b 49 88 86 172 49 132 b 204 -6 49 26 103 -6 b 496 79 299 -6 393 22 b 765 315 594 133 663 194 b 878 342 811 318 843 325 b 1046 606 976 386 1046 497 b 1032 688 1046 633 1043 653 b 1254 867 1111 774 1175 825 l 1265 867 b 1310 865 1303 865 1303 865 b 1347 881 1335 865 1347 869 b 1318 896 1347 890 1336 896 b 1256 881 1301 896 1289 893 b 913 790 1147 865 1029 835 b 808 806 878 800 840 806 b 264 269 531 806 264 543 b 311 101 264 210 278 163 z m 1219 864 b 1014 721 1156 824 1074 768 b 947 778 999 744 974 765 b 1219 864 1026 819 1125 850 z m 935 771 b 1004 714 967 756 989 738 b 664 374 828 561 793 526 b 636 439 644 396 636 414 b 935 771 636 535 764 676 z m 1024 675 b 1035 603 1032 647 1035 628 b 775 328 1035 458 913 328 b 1024 675 868 475 979 631 z m 1025 1025 b 1085 1019 1049 1021 1063 1019 b 1267 1071 1150 1019 1203 1035 b 1382 1036 1314 1044 1343 1036 b 1417 1042 1396 1036 1403 1038 b 1257 1133 1351 1047 1306 1074 b 1064 1032 1194 1064 1135 1032 b 1028 1036 1051 1032 1043 1033 z "},"Ñ":{"ha":1051,"x_min":0,"x_max":0,"o":"m 1453 868 b 1065 408 1307 757 1208 640 b 731 26 922 172 858 101 b 1029 621 871 182 944 326 b 1181 964 1089 817 1113 868 b 740 481 1067 914 908 739 b 514 165 590 256 560 214 b 168 4 415 63 290 4 b 81 43 119 4 81 22 b 99 60 81 51 89 60 l 106 60 b 118 58 110 58 115 58 b 185 113 154 58 185 83 b 129 163 185 140 161 163 b 49 81 85 163 49 125 b 167 -6 49 26 92 -6 b 439 89 263 -6 356 26 b 653 331 514 143 560 194 b 886 669 711 418 789 531 b 1128 921 986 799 1054 871 b 815 283 943 674 894 574 b 706 4 772 132 756 88 b 1075 403 851 78 921 151 b 1460 863 1221 638 1314 749 z m 1274 1061 b 1336 1082 1293 1075 1313 1082 b 1436 1061 1357 1082 1389 1075 b 1522 1044 1482 1047 1499 1044 b 1638 1094 1568 1044 1600 1058 b 1553 1079 1606 1083 1585 1079 b 1456 1092 1531 1079 1494 1083 b 1365 1104 1407 1101 1392 1104 b 1267 1067 1322 1104 1294 1094 z "},"Ö":{"ha":824,"x_min":0,"x_max":0,"o":"m 901 629 b 1008 801 974 676 1008 731 b 839 953 1008 890 939 953 b 400 774 732 953 554 879 b 46 215 176 618 46 413 b 264 -26 46 69 133 -26 b 665 190 386 -26 524 47 b 901 629 804 329 874 458 z m 731 538 b 556 271 690 443 638 361 b 315 107 468 172 372 107 b 275 147 294 107 275 125 b 411 411 275 189 331 296 b 647 708 510 553 593 657 b 797 601 672 639 724 601 b 890 622 828 601 860 608 b 660 199 871 475 799 342 b 265 -18 524 58 385 -18 b 122 128 178 -18 122 38 b 326 578 122 257 190 406 b 833 943 526 829 683 943 b 976 831 919 943 976 899 b 900 676 976 774 950 719 b 771 775 882 743 842 775 b 656 743 733 775 708 768 b 824 882 660 814 731 871 l 824 890 b 644 738 721 879 647 815 b 388 511 550 686 463 608 b 247 176 306 403 247 265 b 311 96 247 129 274 96 b 563 265 369 96 472 164 b 739 535 642 351 694 433 z m 890 667 b 776 615 857 633 818 615 b 656 718 718 615 668 658 b 772 764 706 753 733 764 b 890 667 839 764 876 733 z m 903 1119 b 850 1067 875 1119 850 1093 b 885 1033 850 1047 865 1033 b 936 1083 911 1033 936 1058 b 903 1119 936 1104 922 1119 z m 1050 1119 b 997 1067 1022 1119 997 1094 b 1032 1033 997 1047 1011 1033 b 1083 1086 1060 1033 1083 1058 b 1050 1119 1083 1106 1069 1119 z "},"Ó":{"ha":824,"x_min":0,"x_max":0,"o":"m 901 629 b 1008 801 974 676 1008 731 b 839 953 1008 890 939 953 b 400 774 732 953 554 879 b 46 215 176 618 46 413 b 264 -26 46 69 133 -26 b 665 190 386 -26 524 47 b 901 629 804 329 874 458 z m 731 538 b 556 271 690 443 638 361 b 315 107 468 172 372 107 b 275 147 294 107 275 125 b 411 411 275 189 331 296 b 647 708 510 553 593 657 b 797 601 672 639 724 601 b 890 622 828 601 860 608 b 660 199 871 475 799 342 b 265 -18 524 58 385 -18 b 122 128 178 -18 122 38 b 326 578 122 257 190 406 b 833 943 526 829 683 943 b 976 831 919 943 976 899 b 900 676 976 774 950 719 b 771 775 882 743 842 775 b 656 743 733 775 708 768 b 824 882 660 814 731 871 l 824 890 b 644 738 721 879 647 815 b 388 511 550 686 463 608 b 247 176 306 403 247 265 b 311 96 247 129 274 96 b 563 265 369 96 472 164 b 739 535 642 351 694 433 z m 890 667 b 776 615 857 633 818 615 b 656 718 718 615 668 658 b 772 764 706 753 733 764 b 890 667 839 764 876 733 z m 1022 1131 b 879 1013 992 1071 944 1031 b 1054 1106 953 1011 1014 1044 z "},"Ò":{"ha":824,"x_min":0,"x_max":0,"o":"m 901 629 b 1008 801 974 676 1008 731 b 839 953 1008 890 939 953 b 400 774 732 953 554 879 b 46 215 176 618 46 413 b 264 -26 46 69 133 -26 b 665 190 386 -26 524 47 b 901 629 804 329 874 458 z m 731 538 b 556 271 690 443 638 361 b 315 107 468 172 372 107 b 275 147 294 107 275 125 b 411 411 275 189 331 296 b 647 708 510 553 593 657 b 797 601 672 639 724 601 b 890 622 828 601 860 608 b 660 199 871 475 799 342 b 265 -18 524 58 385 -18 b 122 128 178 -18 122 38 b 326 578 122 257 190 406 b 833 943 526 829 683 943 b 976 831 919 943 976 899 b 900 676 976 774 950 719 b 771 775 882 743 842 775 b 656 743 733 775 708 768 b 824 882 660 814 731 871 l 824 890 b 644 738 721 879 647 815 b 388 511 550 686 463 608 b 247 176 306 403 247 265 b 311 96 247 129 274 96 b 563 265 369 96 472 164 b 739 535 642 351 694 433 z m 890 667 b 776 615 857 633 818 615 b 656 718 718 615 668 658 b 772 764 706 753 733 764 b 890 667 839 764 876 733 z m 772 1115 b 974 1011 819 1060 893 1021 l 975 1019 b 808 1139 913 1026 857 1067 z "},"Ô":{"ha":824,"x_min":0,"x_max":0,"o":"m 901 629 b 1008 801 974 676 1008 731 b 839 953 1008 890 939 953 b 400 774 732 953 554 879 b 46 215 176 618 46 413 b 264 -26 46 69 133 -26 b 665 190 386 -26 524 47 b 901 629 804 329 874 458 z m 731 538 b 556 271 690 443 638 361 b 315 107 468 172 372 107 b 275 147 294 107 275 125 b 411 411 275 189 331 296 b 647 708 510 553 593 657 b 797 601 672 639 724 601 b 890 622 828 601 860 608 b 660 199 871 475 799 342 b 265 -18 524 58 385 -18 b 122 128 178 -18 122 38 b 326 578 122 257 190 406 b 833 943 526 829 683 943 b 976 831 919 943 976 899 b 900 676 976 774 950 719 b 771 775 882 743 842 775 b 656 743 733 775 708 768 b 824 882 660 814 731 871 l 824 890 b 644 738 721 879 647 815 b 388 511 550 686 463 608 b 247 176 306 403 247 265 b 311 96 247 129 274 96 b 563 265 369 96 472 164 b 739 535 642 351 694 433 z m 890 667 b 776 615 857 633 818 615 b 656 718 718 615 668 658 b 772 764 706 753 733 764 b 890 667 839 764 876 733 z m 725 1025 b 785 1019 749 1021 763 1019 b 967 1071 850 1019 903 1035 b 1082 1036 1014 1044 1043 1036 b 1117 1042 1096 1036 1103 1038 b 957 1133 1051 1047 1006 1074 b 764 1032 894 1064 835 1032 b 728 1036 751 1032 743 1033 z "},"Õ":{"ha":824,"x_min":0,"x_max":0,"o":"m 901 629 b 1008 801 974 676 1008 731 b 839 953 1008 890 939 953 b 400 774 732 953 554 879 b 46 215 176 618 46 413 b 264 -26 46 69 133 -26 b 665 190 386 -26 524 47 b 901 629 804 329 874 458 z m 731 538 b 556 271 690 443 638 361 b 315 107 468 172 372 107 b 275 147 294 107 275 125 b 411 411 275 189 331 296 b 647 708 510 553 593 657 b 797 601 672 639 724 601 b 890 622 828 601 860 608 b 660 199 871 475 799 342 b 265 -18 524 58 385 -18 b 122 128 178 -18 122 38 b 326 578 122 257 190 406 b 833 943 526 829 683 943 b 976 831 919 943 976 899 b 900 676 976 774 950 719 b 771 775 882 743 842 775 b 656 743 733 775 708 768 b 824 882 660 814 731 871 l 824 890 b 644 738 721 879 647 815 b 388 511 550 686 463 608 b 247 176 306 403 247 265 b 311 96 247 129 274 96 b 563 265 369 96 472 164 b 739 535 642 351 694 433 z m 890 667 b 776 615 857 633 818 615 b 656 718 718 615 668 658 b 772 764 706 753 733 764 b 890 667 839 764 876 733 z m 788 1061 b 850 1082 807 1075 826 1082 b 950 1061 871 1082 903 1075 b 1036 1044 996 1047 1013 1044 b 1151 1094 1082 1044 1114 1058 b 1067 1079 1119 1083 1099 1079 b 969 1092 1044 1079 1008 1083 b 879 1104 921 1101 906 1104 b 781 1067 836 1104 808 1094 z "},"Š":{"ha":847,"x_min":0,"x_max":0,"o":"m 1058 788 b 1040 771 1053 781 1047 775 b 583 921 888 869 731 921 b 225 811 457 921 319 879 b 93 576 146 754 93 661 b 472 318 93 428 254 318 b 686 340 538 318 589 324 b 258 1 547 97 426 1 b 117 71 174 1 117 29 b 129 90 117 82 122 90 b 143 86 132 90 136 89 b 171 79 150 82 163 79 b 226 131 200 79 226 104 b 179 175 226 156 206 175 b 93 86 135 175 93 133 b 254 -6 93 26 150 -6 b 850 393 492 -6 689 126 b 1301 864 1088 485 1301 707 b 1256 928 1301 900 1282 928 b 1132 856 1228 928 1178 899 z m 1033 764 b 694 351 888 626 799 519 b 483 326 596 332 546 326 b 135 536 276 326 135 413 b 288 803 135 629 194 732 b 606 904 372 868 486 904 b 1033 764 749 904 904 853 z m 1146 675 b 1065 753 1121 706 1097 728 b 1142 850 1104 807 1119 826 b 1254 917 1176 886 1229 917 b 1279 885 1268 917 1279 901 b 1104 572 1279 808 1196 658 b 858 410 1025 496 922 429 b 1060 743 925 538 1017 689 b 1139 669 1082 728 1111 700 z m 1407 1128 b 1347 1133 1385 1132 1369 1133 b 1165 1083 1282 1133 1229 1119 b 1051 1118 1119 1108 1089 1118 b 1015 1113 1038 1118 1031 1117 b 1175 1019 1082 1106 1126 1079 b 1369 1121 1238 1089 1297 1121 b 1406 1117 1382 1121 1390 1119 z "},"Ü":{"ha":924,"x_min":0,"x_max":0,"o":"m 924 167 b 685 8 788 49 726 8 b 665 24 672 8 665 14 b 750 165 665 42 672 53 b 953 440 833 283 878 343 b 1393 868 1256 644 1393 779 b 1361 907 1393 890 1379 907 b 1219 821 1333 907 1293 883 b 938 556 1097 718 1001 628 b 532 149 713 300 665 254 b 301 6 410 53 335 6 b 286 18 293 6 286 11 b 508 265 286 35 347 103 b 693 472 646 404 647 406 b 785 729 754 561 785 646 b 622 922 785 842 717 922 b 93 433 383 922 93 653 b 185 321 93 368 132 321 b 485 492 268 321 399 394 b 617 832 572 589 617 704 b 613 885 617 853 615 863 l 604 883 l 604 875 l 604 854 b 378 460 604 761 513 603 b 186 331 290 368 235 331 b 104 428 139 331 104 372 b 315 776 104 533 182 663 b 619 913 411 858 532 913 b 753 792 694 913 753 860 b 561 465 753 703 693 600 b 292 161 331 228 326 222 b 253 40 268 119 253 72 b 292 -4 253 11 267 -4 b 458 79 328 -4 379 22 b 736 318 576 165 653 232 b 622 75 639 178 622 142 b 672 -4 622 25 640 -4 b 936 167 726 -4 796 40 z m 972 468 b 1240 799 1061 586 1178 729 b 1356 896 1304 871 1333 896 b 1372 874 1365 896 1372 886 b 1228 664 1372 840 1294 728 b 972 468 1150 592 1043 510 z m 1046 1119 b 993 1067 1018 1119 993 1093 b 1028 1033 993 1047 1008 1033 b 1079 1083 1054 1033 1079 1058 b 1046 1119 1079 1104 1065 1119 z m 1193 1119 b 1140 1067 1165 1119 1140 1094 b 1175 1033 1140 1047 1154 1033 b 1226 1086 1203 1033 1226 1058 b 1193 1119 1226 1106 1213 1119 z "},"Ú":{"ha":924,"x_min":0,"x_max":0,"o":"m 924 167 b 685 8 788 49 726 8 b 665 24 672 8 665 14 b 750 165 665 42 672 53 b 953 440 833 283 878 343 b 1393 868 1256 644 1393 779 b 1361 907 1393 890 1379 907 b 1219 821 1333 907 1293 883 b 938 556 1097 718 1001 628 b 532 149 713 300 665 254 b 301 6 410 53 335 6 b 286 18 293 6 286 11 b 508 265 286 35 347 103 b 693 472 646 404 647 406 b 785 729 754 561 785 646 b 622 922 785 842 717 922 b 93 433 383 922 93 653 b 185 321 93 368 132 321 b 485 492 268 321 399 394 b 617 832 572 589 617 704 b 613 885 617 853 615 863 l 604 883 l 604 875 l 604 854 b 378 460 604 761 513 603 b 186 331 290 368 235 331 b 104 428 139 331 104 372 b 315 776 104 533 182 663 b 619 913 411 858 532 913 b 753 792 694 913 753 860 b 561 465 753 703 693 600 b 292 161 331 228 326 222 b 253 40 268 119 253 72 b 292 -4 253 11 267 -4 b 458 79 328 -4 379 22 b 736 318 576 165 653 232 b 622 75 639 178 622 142 b 672 -4 622 25 640 -4 b 936 167 726 -4 796 40 z m 972 468 b 1240 799 1061 586 1178 729 b 1356 896 1304 871 1333 896 b 1372 874 1365 896 1372 886 b 1228 664 1372 840 1294 728 b 972 468 1150 592 1043 510 z m 1258 1131 b 1115 1013 1228 1071 1181 1031 b 1290 1106 1189 1011 1250 1044 z "},"Ù":{"ha":924,"x_min":0,"x_max":0,"o":"m 924 167 b 685 8 788 49 726 8 b 665 24 672 8 665 14 b 750 165 665 42 672 53 b 953 440 833 283 878 343 b 1393 868 1256 644 1393 779 b 1361 907 1393 890 1379 907 b 1219 821 1333 907 1293 883 b 938 556 1097 718 1001 628 b 532 149 713 300 665 254 b 301 6 410 53 335 6 b 286 18 293 6 286 11 b 508 265 286 35 347 103 b 693 472 646 404 647 406 b 785 729 754 561 785 646 b 622 922 785 842 717 922 b 93 433 383 922 93 653 b 185 321 93 368 132 321 b 485 492 268 321 399 394 b 617 832 572 589 617 704 b 613 885 617 853 615 863 l 604 883 l 604 875 l 604 854 b 378 460 604 761 513 603 b 186 331 290 368 235 331 b 104 428 139 331 104 372 b 315 776 104 533 182 663 b 619 913 411 858 532 913 b 753 792 694 913 753 860 b 561 465 753 703 693 600 b 292 161 331 228 326 222 b 253 40 268 119 253 72 b 292 -4 253 11 267 -4 b 458 79 328 -4 379 22 b 736 318 576 165 653 232 b 622 75 639 178 622 142 b 672 -4 622 25 640 -4 b 936 167 726 -4 796 40 z m 972 468 b 1240 799 1061 586 1178 729 b 1356 896 1304 871 1333 896 b 1372 874 1365 896 1372 886 b 1228 664 1372 840 1294 728 b 972 468 1150 592 1043 510 z m 917 1115 b 1118 1011 964 1060 1038 1021 l 1119 1019 b 953 1139 1057 1026 1001 1067 z "},"Û":{"ha":924,"x_min":0,"x_max":0,"o":"m 924 167 b 685 8 788 49 726 8 b 665 24 672 8 665 14 b 750 165 665 42 672 53 b 953 440 833 283 878 343 b 1393 868 1256 644 1393 779 b 1361 907 1393 890 1379 907 b 1219 821 1333 907 1293 883 b 938 556 1097 718 1001 628 b 532 149 713 300 665 254 b 301 6 410 53 335 6 b 286 18 293 6 286 11 b 508 265 286 35 347 103 b 693 472 646 404 647 406 b 785 729 754 561 785 646 b 622 922 785 842 717 922 b 93 433 383 922 93 653 b 185 321 93 368 132 321 b 485 492 268 321 399 394 b 617 832 572 589 617 704 b 613 885 617 853 615 863 l 604 883 l 604 875 l 604 854 b 378 460 604 761 513 603 b 186 331 290 368 235 331 b 104 428 139 331 104 372 b 315 776 104 533 182 663 b 619 913 411 858 532 913 b 753 792 694 913 753 860 b 561 465 753 703 693 600 b 292 161 331 228 326 222 b 253 40 268 119 253 72 b 292 -4 253 11 267 -4 b 458 79 328 -4 379 22 b 736 318 576 165 653 232 b 622 75 639 178 622 142 b 672 -4 622 25 640 -4 b 936 167 726 -4 796 40 z m 972 468 b 1240 799 1061 586 1178 729 b 1356 896 1304 871 1333 896 b 1372 874 1365 896 1372 886 b 1228 664 1372 840 1294 728 b 972 468 1150 592 1043 510 z m 868 1025 b 928 1019 892 1021 906 1019 b 1110 1071 993 1019 1046 1035 b 1225 1036 1157 1044 1186 1036 b 1260 1042 1239 1036 1246 1038 b 1100 1133 1194 1047 1149 1074 b 907 1032 1038 1064 978 1032 b 871 1036 894 1032 886 1033 z "},"Ý":{"ha":990,"x_min":0,"x_max":0,"o":"m 640 894 b 457 550 638 774 590 685 b 194 388 347 439 264 388 b 114 465 147 388 114 419 b 272 746 114 550 171 653 b 640 924 396 861 525 924 b 814 776 743 924 814 864 b 653 535 814 718 776 661 b 469 260 508 386 469 328 b 526 201 469 226 493 201 b 947 529 626 201 775 318 b 728 175 854 349 796 254 b 315 3 625 57 496 3 b 101 82 181 3 101 32 b 117 101 101 93 107 101 b 125 100 119 101 122 101 b 157 93 142 94 146 93 b 213 143 186 93 213 117 b 158 190 213 168 188 190 b 74 104 115 190 74 147 b 124 28 74 75 94 43 b 321 -6 168 4 225 -6 b 756 110 488 -6 640 35 b 1043 528 882 192 954 296 b 1231 811 1108 700 1149 763 l 1225 819 b 939 535 1143 771 1108 736 b 699 290 826 400 779 351 b 535 213 631 238 576 213 b 508 231 518 213 508 219 b 546 290 508 246 517 260 b 746 506 701 453 706 457 b 844 740 808 581 844 668 b 789 878 844 788 822 843 b 646 935 753 915 704 935 b 104 468 401 935 104 678 b 207 374 104 411 146 374 b 493 506 293 374 407 426 b 650 868 593 599 650 731 b 649 894 650 879 650 883 z m 1199 1131 b 1056 1013 1168 1071 1121 1031 b 1231 1106 1129 1011 1190 1044 z "},"Ž":{"ha":974,"x_min":0,"x_max":0,"o":"m 974 167 b 751 89 904 108 849 89 b 472 110 693 89 678 90 b 793 449 572 174 686 293 l 978 449 l 1001 494 l 822 494 b 874 586 843 528 846 533 b 1158 865 963 767 1029 832 b 1261 921 1242 889 1261 899 b 1240 936 1261 929 1253 936 b 1183 914 1224 936 1203 928 b 989 839 1108 860 1053 839 b 882 867 953 839 928 846 b 661 924 772 915 740 924 b 376 847 564 924 453 894 b 283 772 344 828 322 810 l 290 767 b 589 900 379 854 483 900 b 701 861 622 900 660 888 b 883 786 804 796 826 786 b 958 800 911 786 936 790 l 1010 821 b 1039 832 1019 824 1029 828 b 1011 811 1029 826 1019 821 b 683 494 869 718 803 654 l 453 494 l 424 449 l 650 449 b 422 115 589 344 488 196 b 268 121 340 119 313 121 b 18 32 126 121 18 82 b 136 -14 18 3 61 -14 b 372 43 213 -14 279 3 b 613 -6 454 10 531 -6 b 858 61 706 -6 796 19 b 986 167 889 81 896 86 z m 347 51 b 136 -4 288 15 214 -4 b 35 39 74 -4 35 13 b 163 88 35 65 93 88 b 347 51 219 88 282 75 z m 1238 1128 b 1178 1133 1215 1132 1200 1133 b 996 1083 1113 1133 1060 1119 b 882 1118 950 1108 919 1118 b 846 1113 868 1118 861 1117 b 1006 1019 913 1106 957 1079 b 1200 1121 1068 1089 1128 1121 b 1236 1117 1213 1121 1221 1119 z "},"Ÿ":{"ha":990,"x_min":0,"x_max":0,"o":"m 640 894 b 457 550 638 774 590 685 b 194 388 347 439 264 388 b 114 465 147 388 114 419 b 272 746 114 550 171 653 b 640 924 396 861 525 924 b 814 776 743 924 814 864 b 653 535 814 718 776 661 b 469 260 508 386 469 328 b 526 201 469 226 493 201 b 947 529 626 201 775 318 b 728 175 854 349 796 254 b 315 3 625 57 496 3 b 101 82 181 3 101 32 b 117 101 101 93 107 101 b 125 100 119 101 122 101 b 157 93 142 94 146 93 b 213 143 186 93 213 117 b 158 190 213 168 188 190 b 74 104 115 190 74 147 b 124 28 74 75 94 43 b 321 -6 168 4 225 -6 b 756 110 488 -6 640 35 b 1043 528 882 192 954 296 b 1231 811 1108 700 1149 763 l 1225 819 b 939 535 1143 771 1108 736 b 699 290 826 400 779 351 b 535 213 631 238 576 213 b 508 231 518 213 508 219 b 546 290 508 246 517 260 b 746 506 701 453 706 457 b 844 740 808 581 844 668 b 789 878 844 788 822 843 b 646 935 753 915 704 935 b 104 468 401 935 104 678 b 207 374 104 411 146 374 b 493 506 293 374 407 426 b 650 868 593 599 650 731 b 649 894 650 879 650 883 z m 1032 1119 b 979 1067 1004 1119 979 1093 b 1014 1033 979 1047 994 1033 b 1065 1083 1040 1033 1065 1058 b 1032 1119 1065 1104 1051 1119 z m 1179 1119 b 1126 1067 1151 1119 1126 1094 b 1161 1033 1126 1047 1140 1033 b 1213 1086 1189 1033 1213 1058 b 1179 1119 1213 1106 1199 1119 z "},"ä":{"ha":500,"x_min":0,"x_max":0,"o":"m 14 167 b 42 192 22 175 32 183 b 72 218 49 199 57 206 b 3 51 26 150 3 94 b 53 -7 3 18 24 -7 b 256 117 101 -7 151 24 b 231 38 235 71 231 57 b 268 -4 231 13 246 -4 b 514 167 306 -4 388 53 l 500 167 b 276 13 364 49 311 13 b 268 22 272 13 268 17 b 299 68 268 31 268 32 l 554 371 l 458 371 l 388 283 b 399 329 396 303 399 315 b 353 372 399 356 381 372 b 129 275 297 372 210 333 b 0 167 93 249 50 211 z m 357 360 b 388 329 376 360 388 349 b 267 146 388 286 346 224 b 60 6 175 56 101 6 b 35 24 46 6 35 14 b 169 208 35 46 79 108 b 357 360 260 311 321 360 z m 351 518 b 299 465 324 518 299 492 b 333 432 299 446 314 432 b 385 482 360 432 385 457 b 351 518 385 503 371 518 z m 499 518 b 446 465 471 518 446 493 b 481 432 446 446 460 432 b 532 485 508 432 532 457 b 499 518 532 504 518 518 z "},"á":{"ha":500,"x_min":0,"x_max":0,"o":"m 14 167 b 42 192 22 175 32 183 b 72 218 49 199 57 206 b 3 51 26 150 3 94 b 53 -7 3 18 24 -7 b 256 117 101 -7 151 24 b 231 38 235 71 231 57 b 268 -4 231 13 246 -4 b 514 167 306 -4 388 53 l 500 167 b 276 13 364 49 311 13 b 268 22 272 13 268 17 b 299 68 268 31 268 32 l 554 371 l 458 371 l 388 283 b 399 329 396 303 399 315 b 353 372 399 356 381 372 b 129 275 297 372 210 333 b 0 167 93 249 50 211 z m 357 360 b 388 329 376 360 388 349 b 267 146 388 286 346 224 b 60 6 175 56 101 6 b 35 24 46 6 35 14 b 169 208 35 46 79 108 b 357 360 260 311 321 360 z m 518 529 b 375 410 488 468 440 428 b 550 504 449 410 510 442 z "},"à":{"ha":500,"x_min":0,"x_max":0,"o":"m 14 167 b 42 192 22 175 32 183 b 72 218 49 199 57 206 b 3 51 26 150 3 94 b 53 -7 3 18 24 -7 b 256 117 101 -7 151 24 b 231 38 235 71 231 57 b 268 -4 231 13 246 -4 b 514 167 306 -4 388 53 l 500 167 b 276 13 364 49 311 13 b 268 22 272 13 268 17 b 299 68 268 31 268 32 l 554 371 l 458 371 l 388 283 b 399 329 396 303 399 315 b 353 372 399 356 381 372 b 129 275 297 372 210 333 b 0 167 93 249 50 211 z m 357 360 b 388 329 376 360 388 349 b 267 146 388 286 346 224 b 60 6 175 56 101 6 b 35 24 46 6 35 14 b 169 208 35 46 79 108 b 357 360 260 311 321 360 z m 269 513 b 471 408 317 458 390 419 l 472 418 b 306 538 410 425 354 464 z "},"â":{"ha":500,"x_min":0,"x_max":0,"o":"m 14 167 b 42 192 22 175 32 183 b 72 218 49 199 57 206 b 3 51 26 150 3 94 b 53 -7 3 18 24 -7 b 256 117 101 -7 151 24 b 231 38 235 71 231 57 b 268 -4 231 13 246 -4 b 514 167 306 -4 388 53 l 500 167 b 276 13 364 49 311 13 b 268 22 272 13 268 17 b 299 68 268 31 268 32 l 554 371 l 458 371 l 388 283 b 399 329 396 303 399 315 b 353 372 399 356 381 372 b 129 275 297 372 210 333 b 0 167 93 249 50 211 z m 357 360 b 388 329 376 360 388 349 b 267 146 388 286 346 224 b 60 6 175 56 101 6 b 35 24 46 6 35 14 b 169 208 35 46 79 108 b 357 360 260 311 321 360 z m 221 424 b 281 418 244 419 260 418 b 463 468 346 418 399 432 b 578 433 510 442 539 433 b 613 439 592 433 599 435 b 453 532 547 446 501 472 b 258 431 390 463 331 431 b 224 435 246 431 239 432 z "},"ã":{"ha":500,"x_min":0,"x_max":0,"o":"m 14 167 b 42 192 22 175 32 183 b 72 218 49 199 57 206 b 3 51 26 150 3 94 b 53 -7 3 18 24 -7 b 256 117 101 -7 151 24 b 231 38 235 71 231 57 b 268 -4 231 13 246 -4 b 514 167 306 -4 388 53 l 500 167 b 276 13 364 49 311 13 b 268 22 272 13 268 17 b 299 68 268 31 268 32 l 554 371 l 458 371 l 388 283 b 399 329 396 303 399 315 b 353 372 399 356 381 372 b 129 275 297 372 210 333 b 0 167 93 249 50 211 z m 357 360 b 388 329 376 360 388 349 b 267 146 388 286 346 224 b 60 6 175 56 101 6 b 35 24 46 6 35 14 b 169 208 35 46 79 108 b 357 360 260 311 321 360 z m 238 460 b 300 481 258 474 276 481 b 400 460 321 481 353 474 b 486 443 446 446 463 443 b 601 492 532 443 564 457 b 517 478 569 481 549 478 b 419 490 494 478 458 482 b 329 503 371 500 356 503 b 231 465 286 503 258 493 z "},"å":{"ha":500,"x_min":0,"x_max":0,"o":"m 14 167 b 42 192 22 175 32 183 b 72 218 49 199 57 206 b 3 51 26 150 3 94 b 53 -7 3 18 24 -7 b 256 117 101 -7 151 24 b 231 38 235 71 231 57 b 268 -4 231 13 246 -4 b 514 167 306 -4 388 53 l 500 167 b 276 13 364 49 311 13 b 268 22 272 13 268 17 b 299 68 268 31 268 32 l 554 371 l 458 371 l 388 283 b 399 329 396 303 399 315 b 353 372 399 356 381 372 b 129 275 297 372 210 333 b 0 167 93 249 50 211 z m 357 360 b 388 329 376 360 388 349 b 267 146 388 286 346 224 b 60 6 175 56 101 6 b 35 24 46 6 35 14 b 169 208 35 46 79 108 b 357 360 260 311 321 360 z m 418 553 b 338 471 372 553 338 518 b 417 393 338 428 372 393 b 494 474 460 393 494 429 b 418 553 494 518 461 553 z m 415 538 b 478 474 451 538 478 510 b 417 411 478 440 450 411 b 354 474 382 411 354 439 b 415 538 354 508 382 538 z "},"ë":{"ha":325,"x_min":0,"x_max":0,"o":"m 14 167 b 69 214 36 188 61 208 b 0 53 15 133 0 97 b 54 -10 0 14 21 -10 b 339 167 118 -10 208 46 l 325 167 b 57 1 215 64 114 1 b 28 22 40 1 28 10 b 71 97 28 36 40 58 b 233 182 132 121 183 149 b 346 339 313 235 346 282 b 314 378 346 363 332 378 b 0 167 264 378 135 290 z m 79 111 b 138 183 101 138 111 150 b 313 368 256 333 289 368 b 326 354 319 368 326 361 b 247 222 326 328 292 271 b 79 111 201 172 150 139 z m 264 518 b 211 465 236 518 211 492 b 246 432 211 446 226 432 b 297 482 272 432 297 457 b 264 518 297 503 283 518 z m 411 518 b 358 465 383 518 358 493 b 393 432 358 446 372 432 b 444 485 421 432 444 457 b 411 518 444 504 431 518 z "},"é":{"ha":325,"x_min":0,"x_max":0,"o":"m 14 167 b 69 214 36 188 61 208 b 0 53 15 133 0 97 b 54 -10 0 14 21 -10 b 339 167 118 -10 208 46 l 325 167 b 57 1 215 64 114 1 b 28 22 40 1 28 10 b 71 97 28 36 40 58 b 233 182 132 121 183 149 b 346 339 313 235 346 282 b 314 378 346 363 332 378 b 0 167 264 378 135 290 z m 79 111 b 138 183 101 138 111 150 b 313 368 256 333 289 368 b 326 354 319 368 326 361 b 247 222 326 328 292 271 b 79 111 201 172 150 139 z m 431 529 b 288 410 400 468 353 428 b 463 504 361 410 422 442 z "},"è":{"ha":325,"x_min":0,"x_max":0,"o":"m 14 167 b 69 214 36 188 61 208 b 0 53 15 133 0 97 b 54 -10 0 14 21 -10 b 339 167 118 -10 208 46 l 325 167 b 57 1 215 64 114 1 b 28 22 40 1 28 10 b 71 97 28 36 40 58 b 233 182 132 121 183 149 b 346 339 313 235 346 282 b 314 378 346 363 332 378 b 0 167 264 378 135 290 z m 79 111 b 138 183 101 138 111 150 b 313 368 256 333 289 368 b 326 354 319 368 326 361 b 247 222 326 328 292 271 b 79 111 201 172 150 139 z m 182 513 b 383 408 229 458 303 419 l 385 418 b 218 538 322 425 267 464 z "},"ê":{"ha":325,"x_min":0,"x_max":0,"o":"m 14 167 b 69 214 36 188 61 208 b 0 53 15 133 0 97 b 54 -10 0 14 21 -10 b 339 167 118 -10 208 46 l 325 167 b 57 1 215 64 114 1 b 28 22 40 1 28 10 b 71 97 28 36 40 58 b 233 182 132 121 183 149 b 346 339 313 235 346 282 b 314 378 346 363 332 378 b 0 167 264 378 135 290 z m 79 111 b 138 183 101 138 111 150 b 313 368 256 333 289 368 b 326 354 319 368 326 361 b 247 222 326 328 292 271 b 79 111 201 172 150 139 z m 133 424 b 193 418 157 419 172 418 b 375 468 258 418 311 432 b 490 433 422 442 451 433 b 525 439 504 433 511 435 b 365 532 460 446 414 472 b 171 431 303 463 243 431 b 136 435 158 431 151 432 z "},"ï":{"ha":285,"x_min":0,"x_max":0,"o":"m 14 167 b 182 311 96 240 143 281 l 89 196 b 8 39 29 122 8 81 b 50 -3 8 14 25 -3 b 278 150 94 -3 139 26 l 297 167 l 285 167 b 56 8 146 44 93 8 b 42 19 49 8 42 14 b 88 88 42 28 53 44 l 324 372 l 233 372 b 0 167 181 326 103 258 z m 281 518 b 228 465 253 518 228 492 b 263 432 228 446 243 432 b 314 482 289 432 314 457 b 281 518 314 503 300 518 z m 390 518 b 338 465 363 518 338 493 b 372 432 338 446 351 432 b 424 485 400 432 424 457 b 390 518 424 504 410 518 z "},"í":{"ha":285,"x_min":0,"x_max":0,"o":"m 14 167 b 182 311 96 240 143 281 l 89 196 b 8 39 29 122 8 81 b 50 -3 8 14 25 -3 b 278 150 94 -3 139 26 l 297 167 l 285 167 b 56 8 146 44 93 8 b 42 19 49 8 42 14 b 88 88 42 28 53 44 l 324 372 l 233 372 b 0 167 181 326 103 258 z m 411 529 b 268 410 381 468 333 428 b 443 504 342 410 403 442 z "},"ì":{"ha":285,"x_min":0,"x_max":0,"o":"m 14 167 b 182 311 96 240 143 281 l 89 196 b 8 39 29 122 8 81 b 50 -3 8 14 25 -3 b 278 150 94 -3 139 26 l 297 167 l 285 167 b 56 8 146 44 93 8 b 42 19 49 8 42 14 b 88 88 42 28 53 44 l 324 372 l 233 372 b 0 167 181 326 103 258 z m 143 513 b 344 408 190 458 264 419 l 346 418 b 179 538 283 425 228 464 z "},"î":{"ha":285,"x_min":0,"x_max":0,"o":"m 14 167 b 182 311 96 240 143 281 l 89 196 b 8 39 29 122 8 81 b 50 -3 8 14 25 -3 b 278 150 94 -3 139 26 l 297 167 l 285 167 b 56 8 146 44 93 8 b 42 19 49 8 42 14 b 88 88 42 28 53 44 l 324 372 l 233 372 b 0 167 181 326 103 258 z m 113 424 b 172 418 136 419 151 418 b 354 468 238 418 290 432 b 469 433 401 442 431 433 b 504 439 483 433 490 435 b 344 532 439 446 393 472 b 150 431 282 463 222 431 b 115 435 138 431 131 432 z "},"ñ":{"ha":564,"x_min":0,"x_max":0,"o":"m 14 167 b 267 353 181 315 232 353 b 282 342 275 353 282 349 b 260 308 282 335 281 332 l -3 0 l 90 0 b 476 357 282 229 422 357 b 492 344 485 357 492 351 b 394 226 492 332 475 311 b 275 47 288 114 275 94 b 319 0 275 21 294 0 b 444 57 351 0 392 18 b 576 167 476 79 489 89 l 564 167 b 461 81 501 113 486 100 b 328 14 406 39 356 14 b 313 25 321 14 313 19 b 375 99 313 33 321 43 b 514 328 468 193 514 268 b 478 367 514 350 499 367 b 247 196 440 367 381 322 b 307 328 294 268 307 294 b 274 364 307 349 293 364 b 0 167 231 364 183 329 z m 269 460 b 332 481 290 474 308 481 b 432 460 353 481 385 474 b 518 443 478 446 494 443 b 633 492 564 443 596 457 b 549 478 601 481 581 478 b 451 490 526 478 490 482 b 361 503 403 500 388 503 b 263 465 318 503 290 493 z "},"ö":{"ha":396,"x_min":0,"x_max":0,"o":"m 14 167 b 103 240 64 213 82 226 b 3 56 24 144 3 106 b 58 -3 3 19 25 -3 b 279 146 111 -3 194 53 b 326 119 293 128 308 119 b 400 160 350 119 361 125 l 408 167 l 396 167 l 390 161 b 326 129 361 136 349 129 b 286 154 310 129 297 136 b 386 324 353 231 386 286 b 338 368 386 349 364 368 b 131 275 289 368 215 335 b 0 167 93 249 81 239 z m 353 263 b 333 265 343 265 339 265 b 269 182 299 265 269 228 b 274 154 269 171 271 164 b 57 7 192 63 111 7 b 35 25 43 7 35 14 b 115 142 35 39 54 67 b 340 358 250 307 304 358 b 376 324 360 358 376 342 b 353 263 376 306 368 285 z m 300 518 b 247 465 272 518 247 492 b 282 432 247 446 263 432 b 333 482 308 432 333 457 b 300 518 333 503 319 518 z m 447 518 b 394 465 419 518 394 493 b 429 432 394 446 408 432 b 481 485 457 432 481 457 b 447 518 481 504 467 518 z "},"ó":{"ha":396,"x_min":0,"x_max":0,"o":"m 14 167 b 103 240 64 213 82 226 b 3 56 24 144 3 106 b 58 -3 3 19 25 -3 b 279 146 111 -3 194 53 b 326 119 293 128 308 119 b 400 160 350 119 361 125 l 408 167 l 396 167 l 390 161 b 326 129 361 136 349 129 b 286 154 310 129 297 136 b 386 324 353 231 386 286 b 338 368 386 349 364 368 b 131 275 289 368 215 335 b 0 167 93 249 81 239 z m 353 263 b 333 265 343 265 339 265 b 269 182 299 265 269 228 b 274 154 269 171 271 164 b 57 7 192 63 111 7 b 35 25 43 7 35 14 b 115 142 35 39 54 67 b 340 358 250 307 304 358 b 376 324 360 358 376 342 b 353 263 376 306 368 285 z m 467 529 b 324 410 436 468 389 428 b 499 504 397 410 458 442 z "},"ò":{"ha":396,"x_min":0,"x_max":0,"o":"m 14 167 b 103 240 64 213 82 226 b 3 56 24 144 3 106 b 58 -3 3 19 25 -3 b 279 146 111 -3 194 53 b 326 119 293 128 308 119 b 400 160 350 119 361 125 l 408 167 l 396 167 l 390 161 b 326 129 361 136 349 129 b 286 154 310 129 297 136 b 386 324 353 231 386 286 b 338 368 386 349 364 368 b 131 275 289 368 215 335 b 0 167 93 249 81 239 z m 353 263 b 333 265 343 265 339 265 b 269 182 299 265 269 228 b 274 154 269 171 271 164 b 57 7 192 63 111 7 b 35 25 43 7 35 14 b 115 142 35 39 54 67 b 340 358 250 307 304 358 b 376 324 360 358 376 342 b 353 263 376 306 368 285 z m 235 513 b 436 408 282 458 356 419 l 438 418 b 271 538 375 425 319 464 z "},"ô":{"ha":396,"x_min":0,"x_max":0,"o":"m 14 167 b 103 240 64 213 82 226 b 3 56 24 144 3 106 b 58 -3 3 19 25 -3 b 279 146 111 -3 194 53 b 326 119 293 128 308 119 b 400 160 350 119 361 125 l 408 167 l 396 167 l 390 161 b 326 129 361 136 349 129 b 286 154 310 129 297 136 b 386 324 353 231 386 286 b 338 368 386 349 364 368 b 131 275 289 368 215 335 b 0 167 93 249 81 239 z m 353 263 b 333 265 343 265 339 265 b 269 182 299 265 269 228 b 274 154 269 171 271 164 b 57 7 192 63 111 7 b 35 25 43 7 35 14 b 115 142 35 39 54 67 b 340 358 250 307 304 358 b 376 324 360 358 376 342 b 353 263 376 306 368 285 z m 168 424 b 228 418 192 419 207 418 b 410 468 293 418 346 432 b 525 433 457 442 486 433 b 560 439 539 433 546 435 b 400 532 494 446 449 472 b 206 431 338 463 278 431 b 171 435 193 431 186 432 z "},"õ":{"ha":396,"x_min":0,"x_max":0,"o":"m 14 167 b 103 240 64 213 82 226 b 3 56 24 144 3 106 b 58 -3 3 19 25 -3 b 279 146 111 -3 194 53 b 326 119 293 128 308 119 b 400 160 350 119 361 125 l 408 167 l 396 167 l 390 161 b 326 129 361 136 349 129 b 286 154 310 129 297 136 b 386 324 353 231 386 286 b 338 368 386 349 364 368 b 131 275 289 368 215 335 b 0 167 93 249 81 239 z m 353 263 b 333 265 343 265 339 265 b 269 182 299 265 269 228 b 274 154 269 171 271 164 b 57 7 192 63 111 7 b 35 25 43 7 35 14 b 115 142 35 39 54 67 b 340 358 250 307 304 358 b 376 324 360 358 376 342 b 353 263 376 306 368 285 z m 186 460 b 249 481 207 474 225 481 b 349 460 269 481 301 474 b 435 443 394 446 411 443 b 550 492 481 443 513 457 b 465 478 518 481 497 478 b 368 490 443 478 407 482 b 278 503 319 500 304 503 b 179 465 235 503 207 493 z "},"š":{"ha":351,"x_min":0,"x_max":0,"o":"m 14 167 b 271 365 167 303 190 321 b 186 132 249 276 219 197 b 60 3 151 61 94 3 b 32 32 46 3 32 18 b 51 50 32 43 39 50 b 124 100 103 53 124 68 b 86 136 124 122 108 136 b 15 44 51 136 15 89 b 71 -10 15 13 39 -10 b 228 51 115 -10 169 13 b 365 167 258 74 282 93 l 351 167 b 225 63 293 114 265 90 b 293 208 279 121 293 151 b 288 268 293 225 292 240 b 281 329 282 306 281 314 b 313 408 281 363 290 385 b 342 446 340 436 342 438 b 333 457 342 453 338 457 b 279 388 319 457 308 443 b 0 167 174 319 150 300 z m 571 600 b 511 606 549 604 533 606 b 329 554 446 606 393 590 b 214 589 283 581 253 589 b 179 583 200 589 194 588 b 339 492 246 578 290 551 b 533 593 401 561 461 593 b 569 589 546 593 554 592 z "},"ü":{"ha":499,"x_min":0,"x_max":0,"o":"m 14 167 b 185 313 68 217 128 267 l 76 172 b 10 46 25 107 10 78 b 47 -3 10 19 28 -3 b 281 176 89 -3 169 58 l 274 163 b 224 50 228 90 224 81 b 261 -3 224 18 238 -3 b 513 167 307 -3 361 33 l 499 167 b 264 7 357 42 306 7 b 253 17 257 7 253 11 b 304 97 253 29 268 54 l 525 363 l 439 363 b 228 133 319 231 250 154 b 51 8 140 50 82 8 b 40 19 46 8 40 13 b 82 85 40 32 47 43 l 315 363 l 225 363 b 197 339 217 354 207 346 b 83 242 160 306 121 274 b 0 167 58 218 29 193 z m 351 518 b 299 465 324 518 299 492 b 333 432 299 446 314 432 b 385 482 360 432 385 457 b 351 518 385 503 371 518 z m 499 518 b 446 465 471 518 446 493 b 481 432 446 446 460 432 b 532 485 508 432 532 457 b 499 518 532 504 518 518 z "},"ú":{"ha":499,"x_min":0,"x_max":0,"o":"m 14 167 b 185 313 68 217 128 267 l 76 172 b 10 46 25 107 10 78 b 47 -3 10 19 28 -3 b 281 176 89 -3 169 58 l 274 163 b 224 50 228 90 224 81 b 261 -3 224 18 238 -3 b 513 167 307 -3 361 33 l 499 167 b 264 7 357 42 306 7 b 253 17 257 7 253 11 b 304 97 253 29 268 54 l 525 363 l 439 363 b 228 133 319 231 250 154 b 51 8 140 50 82 8 b 40 19 46 8 40 13 b 82 85 40 32 47 43 l 315 363 l 225 363 b 197 339 217 354 207 346 b 83 242 160 306 121 274 b 0 167 58 218 29 193 z m 518 529 b 375 410 488 468 440 428 b 550 504 449 410 510 442 z "},"ù":{"ha":499,"x_min":0,"x_max":0,"o":"m 14 167 b 185 313 68 217 128 267 l 76 172 b 10 46 25 107 10 78 b 47 -3 10 19 28 -3 b 281 176 89 -3 169 58 l 274 163 b 224 50 228 90 224 81 b 261 -3 224 18 238 -3 b 513 167 307 -3 361 33 l 499 167 b 264 7 357 42 306 7 b 253 17 257 7 253 11 b 304 97 253 29 268 54 l 525 363 l 439 363 b 228 133 319 231 250 154 b 51 8 140 50 82 8 b 40 19 46 8 40 13 b 82 85 40 32 47 43 l 315 363 l 225 363 b 197 339 217 354 207 346 b 83 242 160 306 121 274 b 0 167 58 218 29 193 z m 268 513 b 469 408 315 458 389 419 l 471 418 b 304 538 408 425 353 464 z "},"û":{"ha":499,"x_min":0,"x_max":0,"o":"m 14 167 b 185 313 68 217 128 267 l 76 172 b 10 46 25 107 10 78 b 47 -3 10 19 28 -3 b 281 176 89 -3 169 58 l 274 163 b 224 50 228 90 224 81 b 261 -3 224 18 238 -3 b 513 167 307 -3 361 33 l 499 167 b 264 7 357 42 306 7 b 253 17 257 7 253 11 b 304 97 253 29 268 54 l 525 363 l 439 363 b 228 133 319 231 250 154 b 51 8 140 50 82 8 b 40 19 46 8 40 13 b 82 85 40 32 47 43 l 315 363 l 225 363 b 197 339 217 354 207 346 b 83 242 160 306 121 274 b 0 167 58 218 29 193 z m 221 424 b 281 418 244 419 260 418 b 463 468 346 418 399 432 b 578 433 510 442 539 433 b 613 439 592 433 599 435 b 453 532 547 446 501 472 b 258 431 390 463 331 431 b 224 435 246 431 239 432 z "},"ý":{"ha":528,"x_min":0,"x_max":0,"o":"m 13 167 b 260 349 168 308 222 349 b 275 335 269 349 275 343 b 250 297 275 325 271 318 b 118 157 144 190 144 190 b 75 44 92 121 75 79 b 108 -3 75 15 89 -3 b 306 142 140 -3 215 51 l 157 -37 b -94 -196 71 -81 -4 -129 b -225 -378 -182 -262 -225 -324 b -193 -417 -225 -400 -212 -417 b 129 -169 -133 -417 10 -307 b 271 -7 196 -92 225 -58 b 540 167 361 17 394 38 l 526 167 b 281 10 404 56 346 18 l 583 360 l 499 360 b 325 171 410 257 386 231 b 115 10 222 71 142 10 b 106 19 110 10 106 14 b 189 125 106 31 132 64 b 300 314 271 213 300 261 b 264 360 300 340 285 360 b 0 167 222 360 178 328 z m -76 -308 b -192 -406 -126 -365 -174 -406 b -203 -392 -199 -406 -203 -400 b -79 -218 -203 -360 -161 -300 b 139 -57 -10 -147 51 -103 z m 532 529 b 389 410 501 468 454 428 b 564 504 463 410 524 442 z "},"ž":{"ha":393,"x_min":0,"x_max":0,"o":"m 14 167 b 201 311 165 303 176 311 b 219 307 207 311 214 310 b 263 296 243 297 249 296 b 297 300 274 296 286 297 l 325 306 l 340 308 b 274 267 315 293 307 286 b 126 117 196 218 168 190 b 79 54 107 79 101 72 b -19 7 24 42 -19 21 b -8 -3 -19 1 -14 -3 b 39 18 6 -3 19 4 b 85 42 71 40 74 42 b 111 25 94 42 101 38 b 158 -3 126 6 140 -3 b 407 167 206 -3 264 38 l 393 167 b 228 65 283 71 274 65 b 208 67 224 65 217 65 b 190 68 197 68 194 68 b 151 64 181 68 167 67 b 103 58 122 60 121 60 b 121 69 108 61 114 65 b 299 236 236 138 249 149 b 396 322 329 289 353 310 b 442 349 435 335 442 339 b 431 358 442 354 438 358 b 396 340 422 358 417 356 b 353 322 378 326 367 322 b 335 333 346 322 340 325 b 281 364 314 360 306 364 b 0 167 224 364 200 347 z m 560 526 b 500 532 538 531 522 532 b 318 481 435 532 382 517 b 203 515 272 507 242 515 b 168 510 189 515 183 514 b 328 418 235 504 279 478 b 522 519 390 488 450 519 b 558 515 535 519 543 518 z "},"ÿ":{"ha":528,"x_min":0,"x_max":0,"o":"m 13 167 b 260 349 168 308 222 349 b 275 335 269 349 275 343 b 250 297 275 325 271 318 b 118 157 144 190 144 190 b 75 44 92 121 75 79 b 108 -3 75 15 89 -3 b 306 142 140 -3 215 51 l 157 -37 b -94 -196 71 -81 -4 -129 b -225 -378 -182 -262 -225 -324 b -193 -417 -225 -400 -212 -417 b 129 -169 -133 -417 10 -307 b 271 -7 196 -92 225 -58 b 540 167 361 17 394 38 l 526 167 b 281 10 404 56 346 18 l 583 360 l 499 360 b 325 171 410 257 386 231 b 115 10 222 71 142 10 b 106 19 110 10 106 14 b 189 125 106 31 132 64 b 300 314 271 213 300 261 b 264 360 300 340 285 360 b 0 167 222 360 178 328 z m -76 -308 b -192 -406 -126 -365 -174 -406 b -203 -392 -199 -406 -203 -400 b -79 -218 -203 -360 -161 -300 b 139 -57 -10 -147 51 -103 z m 411 518 b 358 465 383 518 358 492 b 393 432 358 446 374 432 b 444 482 419 432 444 457 b 411 518 444 503 431 518 z m 558 518 b 506 465 531 518 506 493 b 540 432 506 446 519 432 b 592 485 568 432 592 457 b 558 518 592 504 578 518 z "},"Ç":{"ha":1119,"x_min":0,"x_max":0,"o":"m 1015 374 b 947 235 1004 322 983 279 b 699 92 883 156 772 92 b 651 125 674 92 651 107 b 807 318 651 158 713 235 b 1038 457 919 417 985 457 b 1124 364 1086 457 1124 417 b 994 128 1124 289 1075 200 b 675 -1 903 46 788 -1 b 497 129 568 -1 497 51 b 644 403 497 207 532 271 b 1251 722 876 490 1144 632 b 1333 865 1303 765 1333 819 b 1294 906 1333 889 1318 906 b 1018 799 1250 906 1147 865 b 600 908 907 874 775 908 b 229 817 444 908 321 878 b 93 569 147 761 93 664 b 378 349 93 439 211 349 b 476 357 408 349 432 351 b 438 207 446 290 438 257 b 674 -10 438 78 533 -10 b 1001 121 790 -10 911 38 b 1132 363 1082 193 1132 286 b 1000 474 1132 432 1082 474 b 756 378 922 474 832 438 b 626 150 681 317 626 222 b 697 82 626 110 656 82 b 925 199 758 82 858 133 b 1022 372 976 249 1007 304 z m 482 367 b 378 357 432 360 407 357 b 113 544 228 357 113 438 b 311 803 113 638 185 732 b 651 892 417 861 532 892 b 1006 793 789 892 922 854 b 482 367 739 647 563 504 z m 1117 683 b 1058 767 1099 719 1083 742 b 1289 896 1199 871 1243 896 b 1318 875 1306 896 1318 886 b 1258 771 1318 851 1297 815 b 1058 611 1215 721 1146 664 b 658 418 949 543 783 463 b 1050 760 765 531 903 650 b 1110 679 1071 740 1093 711 z m 492 -233 b 658 -67 590 -192 658 -122 b 624 -28 658 -43 643 -28 b 565 -92 592 -28 565 -57 b 604 -133 565 -114 578 -128 b 488 -225 582 -164 536 -200 z "},"Ð":{"ha":1100,"x_min":0,"x_max":0,"o":"m 694 286 b 531 76 622 165 581 113 b 288 108 439 100 376 108 b 94 46 181 108 94 81 b 281 -7 94 14 169 -7 b 471 18 350 -7 388 -1 b 604 -4 526 0 554 -4 b 922 99 719 -4 832 32 b 1182 611 1078 213 1182 418 b 1122 800 1182 679 1164 738 b 1285 886 1176 843 1222 867 l 1283 894 b 1115 810 1215 874 1164 849 b 847 915 1042 883 960 915 b 703 900 804 915 771 911 b 581 933 660 925 628 933 b 228 769 463 933 339 876 b 56 393 121 667 56 524 b 231 175 56 282 121 200 l 231 183 b 65 394 126 206 65 285 b 199 715 65 501 113 615 b 581 925 313 849 451 925 b 686 897 622 925 653 917 b 394 754 540 856 469 821 b 226 418 290 660 226 532 b 363 268 226 328 281 268 b 604 379 436 268 522 308 b 779 738 713 475 779 611 b 729 879 779 789 763 835 b 860 906 782 899 813 906 b 1107 804 960 906 1043 872 b 701 297 947 675 867 572 l 532 297 l 528 286 z m 988 286 l 992 297 l 822 297 b 997 607 896 392 933 461 b 1114 793 1043 713 1065 749 b 1172 607 1151 744 1172 678 b 722 32 1172 329 939 32 b 564 68 676 32 618 46 b 814 286 676 139 743 199 z m 449 26 b 288 1 401 8 356 1 b 107 47 183 1 107 21 b 201 88 107 67 157 88 b 449 26 260 88 353 64 z m 718 875 b 769 735 750 842 769 789 b 635 424 769 629 718 511 b 367 276 549 333 446 276 b 264 356 307 276 264 310 b 425 638 264 414 328 528 b 718 875 528 754 628 836 z "},"Þ":{"ha":931,"x_min":0,"x_max":0,"o":"m 651 581 b 306 358 465 408 388 358 b 207 450 253 358 207 401 b 315 582 207 496 249 547 b 724 690 439 649 597 690 b 917 642 792 690 863 672 b 765 463 857 581 788 499 b 731 411 754 446 743 429 b 557 236 626 406 557 335 l 557 213 l 558 196 l 560 178 b 224 3 454 56 353 3 b 63 93 129 3 63 40 b 82 121 63 110 69 121 b 104 111 88 121 90 119 b 136 101 115 104 124 101 b 190 150 167 101 190 122 b 142 197 190 176 168 197 b 46 101 92 197 46 151 b 224 -6 46 35 114 -6 b 607 131 354 -6 479 39 b 724 101 676 104 686 101 b 1050 408 897 101 1050 244 b 972 611 1050 485 1018 567 b 1332 903 1069 783 1156 853 l 1329 913 b 924 649 1199 882 1082 807 b 725 700 864 683 799 700 b 328 600 597 700 457 665 b 197 451 243 558 197 506 b 311 349 197 394 249 349 b 543 431 381 349 483 385 b 661 575 578 456 607 492 z m 758 188 b 831 306 806 215 831 256 b 818 354 831 322 828 332 b 853 410 832 376 835 381 b 967 603 890 472 928 535 b 1006 510 997 568 1006 546 b 889 233 1006 432 967 342 b 714 111 828 150 772 111 b 618 139 683 111 665 117 b 813 344 708 204 765 265 b 821 306 819 326 821 318 b 754 196 821 260 799 222 z m 568 189 b 567 217 567 201 567 211 b 724 401 567 328 622 393 b 568 189 663 311 613 243 z "},"ç":{"ha":325,"x_min":0,"x_max":0,"o":"m 14 167 b 82 222 24 176 69 213 b 6 53 28 150 6 100 b 58 -6 6 15 25 -6 b 339 167 128 -6 196 36 l 325 167 b 65 7 201 53 126 7 b 42 24 50 7 42 13 b 174 215 42 43 89 111 b 328 361 272 336 299 361 b 357 344 343 361 357 353 b 340 332 357 338 351 335 b 288 283 307 326 288 308 b 318 251 288 267 303 251 b 375 324 347 251 375 286 b 326 371 375 353 356 371 b 0 167 258 371 140 297 z m -90 -233 b 75 -67 7 -192 75 -122 b 40 -28 75 -43 61 -28 b -17 -92 10 -28 -17 -58 b 21 -133 -17 -114 -4 -128 b -96 -225 -1 -164 -47 -200 z "},"ð":{"ha":396,"x_min":0,"x_max":0,"o":"m 14 167 b 103 240 64 213 82 226 b 3 56 24 144 3 106 b 58 -3 3 19 25 -3 b 279 146 111 -3 194 53 b 326 119 293 128 308 119 b 400 160 350 119 361 125 l 408 167 l 396 167 l 390 161 b 326 129 361 136 349 129 b 286 154 310 129 297 136 b 403 481 386 269 403 315 b 401 519 403 489 403 503 l 518 568 l 519 576 l 401 529 l 401 607 l 400 675 l 392 675 l 392 658 l 392 525 l 278 478 l 278 469 l 392 515 b 364 361 390 475 378 403 b 338 368 353 367 346 368 b 131 275 289 368 215 335 b 0 167 93 249 82 239 z m 274 154 b 57 7 192 63 111 7 b 35 25 43 7 35 14 b 115 142 35 39 54 65 b 342 358 250 307 304 358 b 361 351 347 358 353 357 b 306 264 350 324 338 304 b 268 185 276 226 268 210 b 274 154 268 175 269 167 z "},"þ":{"ha":490,"x_min":0,"x_max":0,"o":"m 14 167 b 372 499 117 258 242 374 b -25 43 246 356 246 356 l -425 -407 l -306 -407 l 128 119 b 418 357 232 247 367 357 b 431 347 425 357 431 353 b 388 289 431 336 421 324 b 282 175 308 204 303 199 b 219 56 238 126 219 90 b 265 3 219 26 240 3 b 364 50 286 3 321 19 b 504 167 381 61 426 100 l 490 167 b 271 14 381 67 304 14 b 261 22 265 14 261 17 b 346 125 261 31 281 54 b 450 331 424 210 450 263 b 418 368 450 353 438 368 b 217 235 379 368 333 338 b 283 315 251 278 265 294 b 419 476 328 369 374 422 l 831 956 l 779 957 b 0 167 417 549 342 474 z "},"¹":{"ha":361,"x_min":0,"x_max":0,"o":"m 672 689 b 331 386 535 558 431 465 l 338 379 b 626 632 421 446 513 525 b 392 371 554 529 486 453 l 471 371 b 590 550 522 429 546 464 b 683 685 617 601 643 640 z "},"²":{"ha":361,"x_min":0,"x_max":0,"o":"m 544 551 b 513 540 531 543 524 540 b 494 558 503 540 494 549 b 619 683 494 613 565 683 b 649 657 638 683 649 674 b 510 488 649 599 581 515 b 368 417 431 457 404 443 b 332 378 346 404 332 390 b 340 369 332 374 336 369 b 356 385 346 369 351 374 b 383 408 364 403 369 408 b 414 393 392 408 401 404 b 463 371 435 376 446 371 b 586 460 503 371 538 396 l 578 464 b 483 419 549 428 531 419 l 388 419 b 468 458 411 435 446 451 b 603 503 561 483 572 488 b 683 622 654 531 683 574 b 619 692 683 661 656 692 b 486 560 560 692 486 619 b 511 531 486 543 497 531 b 549 544 522 531 531 533 z "},"³":{"ha":361,"x_min":0,"x_max":0,"o":"m 540 594 b 514 583 529 586 521 583 b 503 594 507 583 503 588 b 606 682 503 633 561 682 b 631 661 619 682 631 674 b 561 563 631 639 590 583 b 517 549 550 554 536 550 l 511 549 b 496 550 504 550 499 550 b 460 538 471 550 460 546 b 471 529 460 532 464 529 b 482 532 474 529 478 531 b 515 539 499 538 507 539 b 535 525 528 539 535 533 b 488 449 535 511 518 485 b 385 381 447 400 418 381 b 343 411 361 381 343 393 b 349 417 343 414 346 417 b 353 415 349 417 350 417 b 371 411 358 413 365 411 b 403 438 389 411 403 422 b 375 461 403 451 392 461 b 332 415 353 461 332 439 b 392 371 332 388 354 371 b 568 494 481 371 568 432 b 540 542 568 513 560 525 b 667 628 633 564 667 586 b 606 692 667 663 639 692 b 493 596 556 692 493 638 b 513 575 493 583 501 575 b 544 589 521 575 529 579 z "},"­":{"ha":190,"x_min":0,"x_max":0,"o":"m 106 225 b 46 169 75 225 46 197 b 85 138 46 151 63 138 b 144 193 115 138 144 164 b 106 225 144 211 128 225 z "},"°":{"ha":428,"x_min":0,"x_max":0,"o":"m 0 218 l 404 218 l 422 258 l 18 258 z "},"−":{"ha":256,"x_min":0,"x_max":0,"o":"m 235 476 b 143 386 183 476 143 438 b 235 294 143 335 183 294 b 324 386 283 294 324 336 b 235 476 324 435 283 476 z m 231 463 b 307 385 274 463 307 429 b 233 308 307 343 274 308 b 158 386 192 308 158 343 b 231 463 158 428 192 463 z "},"×":{"ha":513,"x_min":0,"x_max":0,"o":"m 53 297 l 46 282 l 506 282 l 513 297 z "},"÷":{"ha":614,"x_min":0,"x_max":0,"o":"m 629 471 l 385 306 l 317 471 l 297 471 l 372 293 l 88 103 l 114 103 l 376 279 l 449 104 l 467 104 l 390 290 l 656 471 z "},"™":{"ha":513,"x_min":0,"x_max":0,"o":"m 53 297 l 46 282 l 506 282 l 513 297 z m 346 475 b 286 419 315 475 286 447 b 325 388 286 401 303 388 b 385 443 356 388 385 414 b 346 475 385 461 368 475 z m 235 197 b 175 142 204 197 175 169 b 214 110 175 124 192 110 b 274 165 244 110 274 136 b 235 197 274 183 257 197 z "},"±":{"ha":1168,"x_min":0,"x_max":0,"o":"m 714 846 b 411 550 589 788 524 724 b 304 426 364 479 339 451 b 151 383 263 399 210 383 b 46 425 90 383 46 401 b 50 431 46 428 49 431 b 56 429 51 431 53 431 b 75 424 61 425 68 424 b 115 458 97 424 115 439 b 81 489 115 475 99 489 b 25 436 50 489 25 465 b 154 371 25 393 71 371 b 401 453 239 371 324 399 b 568 671 478 504 494 526 b 719 835 607 750 657 803 z m 506 910 b 507 889 507 900 507 897 b 422 721 507 839 479 783 b 228 590 347 639 275 590 b 169 650 194 590 169 617 b 275 832 169 708 210 776 b 506 917 343 889 419 917 b 664 872 563 917 596 907 b 740 849 700 854 717 849 b 835 929 792 849 824 875 b 757 904 806 911 783 904 b 675 915 740 904 714 907 b 532 932 601 929 574 932 b 271 853 429 932 339 904 b 156 651 203 800 156 718 b 233 576 156 608 189 576 b 442 674 300 576 389 618 b 522 868 490 725 522 803 b 517 911 522 883 521 899 z m 1167 478 b 1021 382 1088 410 1047 382 b 1014 388 1017 382 1014 385 b 1121 524 1014 397 1018 403 b 1371 810 1261 686 1314 747 b 1392 832 1385 825 1378 817 b 1433 879 1406 847 1421 864 b 1460 910 1443 889 1451 900 b 1039 590 1340 861 1217 765 b 822 392 850 399 850 399 b 926 515 828 403 828 403 b 1310 922 1142 760 1225 849 b 813 561 1201 901 1089 819 b 640 421 719 474 688 447 b 514 382 599 396 553 382 b 447 414 481 382 447 397 b 451 418 447 415 449 418 l 457 417 b 483 408 465 411 475 408 b 521 444 504 408 521 424 b 485 479 521 464 504 479 b 426 425 454 479 426 454 b 511 368 426 390 458 368 b 649 408 557 368 604 382 b 822 550 697 438 717 453 b 1242 885 1099 803 1139 835 b 1128 792 1233 878 1194 846 b 933 618 1079 753 996 676 b 788 417 810 501 788 471 b 811 372 788 390 797 372 b 957 489 838 372 878 404 b 1378 851 1133 672 1274 794 b 1118 614 1263 753 1214 707 b 983 421 1011 510 983 469 b 1019 368 983 390 999 368 b 1185 478 1053 368 1079 385 z "},"½":{"ha":513,"x_min":0,"x_max":0,"o":"m 53 297 l 47 282 l 268 282 l 174 38 l 189 38 l 283 282 l 507 282 l 513 297 l 289 297 l 392 563 l 376 563 l 274 297 z m -56 15 l -62 0 l 397 0 l 404 15 z "},"¼":{"ha":826,"x_min":0,"x_max":0,"o":"m 671 689 b 331 386 535 558 431 465 l 338 379 b 625 632 421 446 513 525 b 390 371 553 529 486 453 l 469 371 b 590 550 522 429 546 464 b 682 685 617 601 643 640 z m 789 575 l 285 31 b 268 8 269 14 268 13 b 294 -3 268 3 282 -3 b 372 60 318 -3 321 0 l 799 567 z m 732 181 b 700 169 718 172 710 169 b 682 188 690 169 682 178 b 806 313 682 242 753 313 b 835 286 824 313 835 303 b 696 117 835 228 767 144 b 554 46 617 86 592 74 b 518 7 532 33 518 19 b 526 -1 518 3 522 -1 b 542 14 532 -1 538 3 b 569 38 550 32 557 38 b 600 22 579 38 588 33 b 649 0 621 6 632 0 b 772 89 689 0 725 25 l 765 93 b 669 49 736 57 718 49 l 575 49 b 654 88 597 64 632 81 b 789 132 749 113 758 117 b 869 251 840 160 869 203 b 807 321 869 290 842 321 b 674 189 746 321 674 249 b 699 160 674 172 685 160 b 736 174 708 160 717 163 z "},"¾":{"ha":826,"x_min":0,"x_max":0,"o":"m 671 689 b 331 386 535 558 431 465 l 338 379 b 625 632 421 446 513 525 b 390 371 553 529 486 453 l 469 371 b 590 550 522 429 546 464 b 682 685 617 601 643 640 z m 789 575 l 285 31 b 268 8 269 14 268 13 b 294 -3 268 3 282 -3 b 372 60 318 -3 321 0 l 799 567 z m 836 249 b 697 101 799 203 733 133 b 619 107 675 101 651 103 b 901 390 731 183 822 275 l 828 390 b 604 108 754 254 686 169 b 575 110 589 110 582 110 b 518 86 542 110 518 100 b 539 75 518 79 526 75 b 604 99 557 75 569 79 b 689 93 642 94 654 94 l 683 86 b 638 38 667 69 653 54 b 606 0 628 26 617 14 l 678 0 l 742 90 b 888 163 793 93 828 111 l 882 169 b 749 101 831 124 790 103 l 849 249 z "},"©":{"ha":826,"x_min":0,"x_max":0,"o":"m 539 594 b 514 583 528 586 521 583 b 503 594 507 583 503 588 b 606 682 503 633 561 682 b 631 661 619 682 631 674 b 560 563 631 639 590 583 b 517 549 549 554 536 550 l 510 549 b 494 550 503 550 497 550 b 458 538 469 550 458 546 b 469 529 458 532 463 529 b 481 532 472 529 476 531 b 514 539 497 538 506 539 b 533 525 526 539 533 533 b 486 449 533 511 517 485 b 383 381 446 400 417 381 b 342 411 360 381 342 393 b 347 417 342 414 344 417 b 351 415 347 417 349 417 b 369 411 357 413 364 411 b 401 438 388 411 401 422 b 374 461 401 451 390 461 b 331 415 351 461 331 439 b 390 371 331 388 353 371 b 567 494 479 371 567 432 b 539 542 567 513 560 525 b 667 628 633 564 667 586 b 606 692 667 663 639 692 b 493 596 556 692 493 638 b 513 575 493 583 501 575 b 543 589 521 575 529 579 z m 789 575 l 285 31 b 268 8 269 14 268 13 b 294 -3 268 3 282 -3 b 372 60 318 -3 321 0 l 799 567 z m 836 249 b 697 101 799 203 733 133 b 619 107 675 101 651 103 b 901 390 731 183 822 275 l 828 390 b 604 108 754 254 686 169 b 575 110 589 110 582 110 b 518 86 542 110 518 100 b 539 75 518 79 526 75 b 604 99 557 75 569 79 b 689 93 642 94 654 94 l 683 86 b 638 38 667 69 653 54 b 606 0 628 26 617 14 l 678 0 l 742 90 b 888 163 793 93 828 111 l 882 169 b 749 101 831 124 790 103 l 849 249 z "},"®":{"ha":1094,"x_min":0,"x_max":0,"o":"m 1117 964 b 281 278 719 964 281 604 b 372 49 281 194 318 103 b 617 -36 428 -7 511 -36 b 904 35 715 -36 813 -12 b 1274 371 1039 101 1181 232 b 1392 704 1354 493 1392 597 b 1117 964 1392 878 1300 964 z m 1135 946 b 1372 717 1296 946 1372 872 b 1149 250 1372 572 1290 401 b 614 -18 986 78 797 -18 b 354 178 449 -18 354 53 b 560 647 354 311 436 497 b 1135 946 713 831 933 946 z m 1013 422 b 972 336 1006 389 993 364 b 825 251 933 290 868 251 b 800 268 811 251 800 258 b 892 382 800 286 838 333 b 1029 465 960 442 997 465 b 1076 413 1056 465 1076 443 b 811 197 1076 310 939 197 b 708 272 749 197 708 228 b 794 432 708 317 728 354 b 1074 565 883 465 1001 522 b 1210 713 1174 625 1210 664 b 1182 740 1210 729 1199 740 b 1017 676 1156 740 1103 719 b 824 742 967 722 907 742 b 550 521 668 742 550 646 b 661 401 550 451 597 401 b 686 403 669 401 675 401 b 665 319 669 367 665 347 b 811 185 665 239 724 185 b 1089 413 947 185 1089 300 b 1006 482 1089 456 1057 482 b 778 283 899 482 778 378 b 824 239 778 257 797 239 b 964 310 863 239 922 269 b 1024 419 996 342 1014 375 z m 693 417 b 661 414 678 415 669 414 b 579 511 608 414 579 447 b 621 622 579 553 593 589 b 843 725 672 683 761 725 b 1003 669 904 725 967 703 b 693 417 846 585 742 499 z m 1081 601 b 1046 653 1069 625 1061 638 b 1179 726 1128 713 1154 726 b 1193 717 1188 726 1193 722 b 1039 563 1193 683 1126 617 b 815 453 979 526 881 478 b 1036 644 868 508 954 583 b 1071 596 1049 632 1060 615 z "}," ":{"ha":1094,"x_min":0,"x_max":0,"o":"m 1117 964 b 281 278 719 964 281 604 b 372 49 281 194 318 103 b 617 -36 428 -7 511 -36 b 904 35 715 -36 813 -12 b 1274 371 1039 101 1181 232 b 1392 704 1354 493 1392 597 b 1117 964 1392 878 1300 964 z m 1135 946 b 1372 717 1296 946 1372 872 b 1149 250 1372 572 1290 401 b 614 -18 986 78 797 -18 b 354 178 449 -18 354 53 b 560 647 354 311 436 497 b 1135 946 713 831 933 946 z m 1119 292 b 986 197 1033 214 1010 197 b 981 203 983 197 981 200 b 990 235 981 208 985 221 b 1043 415 1035 340 1043 368 b 1033 460 1043 432 1042 440 b 1167 590 1128 507 1167 546 b 1113 690 1167 624 1149 657 b 1186 728 1139 707 1163 719 l 1178 739 b 1100 700 1147 726 1125 715 b 924 744 1050 731 994 744 b 643 649 821 744 725 713 b 517 451 563 588 517 515 b 589 383 517 413 547 383 b 833 499 674 383 779 433 b 914 719 885 560 910 629 l 901 719 b 804 532 896 646 868 593 b 583 397 728 457 629 397 b 529 453 553 397 529 421 b 626 615 529 501 565 563 b 933 732 714 690 822 732 b 1086 692 993 732 1021 725 b 838 443 990 625 882 518 b 714 265 751 306 746 297 b 542 193 665 218 607 193 b 446 239 486 193 446 213 b 451 247 446 243 449 247 b 458 246 454 247 456 247 b 479 240 467 242 474 240 b 521 275 503 240 521 256 b 485 307 521 293 506 307 b 426 249 456 307 426 279 b 543 181 426 207 471 181 b 718 225 600 181 667 197 b 933 454 803 272 889 364 b 1099 682 1004 603 1017 619 b 1114 644 1110 665 1114 657 b 1022 471 1114 583 1071 501 b 979 486 1008 481 994 486 b 946 463 960 486 946 476 b 976 443 946 450 957 443 b 1019 453 990 443 1001 446 b 1024 438 1022 446 1024 440 b 981 363 1024 424 1013 404 b 929 251 942 311 929 285 b 979 182 929 213 951 182 b 1139 292 1011 182 1028 193 z m 1010 464 b 976 456 994 457 988 456 b 960 463 967 456 960 458 b 981 472 960 468 968 472 b 1010 464 990 472 997 471 z "},"¬":{"ha":285,"x_min":0,"x_max":0,"o":""},"¦":{"ha":694,"x_min":0,"x_max":0,"o":"m 521 0 l 644 0 l 644 371 l 50 371 l 50 317 l 521 317 z "},"µ":{"ha":694,"x_min":0,"x_max":0,"o":"m 313 926 l 313 464 l 382 464 l 382 926 z m 313 213 l 313 -232 l 382 -232 l 382 213 z "}}}
